<?xml version="1.0" encoding="UTF-8" standalone="no"?>
<svg
   xmlns:dc="http://purl.org/dc/elements/1.1/"
   xmlns:cc="http://creativecommons.org/ns#"
   xmlns:rdf="http://www.w3.org/1999/02/22-rdf-syntax-ns#"
   xmlns:svg="http://www.w3.org/2000/svg"
   xmlns="http://www.w3.org/2000/svg"
   xmlns:sodipodi="http://sodipodi.sourceforge.net/DTD/sodipodi-0.dtd"
   xmlns:inkscape="http://www.inkscape.org/namespaces/inkscape"
   width="14.111052mm"
   height="13.076192mm"
   viewBox="0 0 49.999789 46.332963"
   id="svg2"
   version="1.1"
   inkscape:version="0.91 r13725"
   sodipodi:docname="icono-measure.svg">
  <defs
     id="defs4" />
  <sodipodi:namedview
     id="base"
     pagecolor="#818181"
     bordercolor="#666666"
     borderopacity="1.0"
     inkscape:pageopacity="0"
     inkscape:pageshadow="2"
     inkscape:zoom="9.188579"
     inkscape:cx="36.506904"
     inkscape:cy="11.156913"
     inkscape:document-units="px"
     inkscape:current-layer="layer1"
     showgrid="false"
     fit-margin-top="0"
     fit-margin-left="0"
     fit-margin-right="0"
     fit-margin-bottom="0"
     inkscape:window-width="1920"
     inkscape:window-height="1030"
     inkscape:window-x="0"
     inkscape:window-y="0"
     inkscape:window-maximized="1" />
  <metadata
     id="metadata7">
    <rdf:RDF>
      <cc:Work
         rdf:about="">
        <dc:format>image/svg+xml</dc:format>
        <dc:type
           rdf:resource="http://purl.org/dc/dcmitype/StillImage" />
        <dc:title />
      </cc:Work>
    </rdf:RDF>
  </metadata>
  <g
     inkscape:label="Capa 1"
     inkscape:groupmode="layer"
     id="layer1"
     transform="translate(-258.06632,-355.38146)">
    <path
       style="fill:#ffffff"
       d="m 282.42727,365.50648 c -7.68641,0.14069 -15.37872,3.37667 -20.63933,9.02424 -0.92056,1.4014 0.9964,2.38805 1.68355,3.36257 4.57678,4.56252 9.01645,9.30517 13.80891,13.62649 1.56834,0.47888 2.41625,-1.41847 3.88362,-1.64527 2.269,-0.87477 4.77831,0.0687 6.49922,1.61236 1.67548,0.62034 2.56494,-1.51202 3.72978,-2.29399 4.35213,-4.41031 8.92086,-8.63139 13.0288,-13.26964 0.74379,-1.38953 -1.17557,-2.43095 -1.97741,-3.27502 -5.53594,-4.73762 -12.77007,-7.32459 -20.01714,-7.14174 z m -1.47435,3.30698 c 1.13309,-0.24424 1.34595,1.60185 2.54294,1.02744 0.60817,-0.36941 0.94532,-1.29005 1.85104,-1.02356 1.66449,0.11759 3.30306,0.46162 4.92608,0.83522 -0.59811,1.17521 0.77238,2.84942 1.9048,1.80213 0.33362,-0.82976 1.23267,-0.93466 1.90118,-0.35949 0.94471,0.60697 2.42691,0.86139 2.98954,1.74378 -0.21894,1.08067 0.79896,2.09322 1.84571,1.54211 0.88125,-0.13143 2.16004,1.01661 1.08665,1.64685 -3.88821,3.95289 -7.82659,7.85583 -11.74304,11.78106 -0.91962,-0.6717 -2.26888,-0.71536 -3.05667,-1.52084 -0.75122,-2.68735 -0.42945,-5.55114 -0.54155,-8.32694 -0.25231,-1.61268 0.45775,-3.55486 -0.45295,-4.94745 -1.18634,-1.22571 -3.31521,0.18831 -2.69381,1.804 -0.16808,3.38266 0.18094,6.82723 -0.29749,10.18005 -0.22252,0.67888 -0.0957,1.73159 -1.09522,1.78905 -0.98155,0.25982 -2.17056,1.53497 -2.93562,0.27259 -3.75146,-3.78578 -7.69472,-7.40974 -11.23984,-11.38607 -0.47541,-1.0945 1.20297,-1.56279 1.98224,-1.15188 1.03328,0.004 1.19191,-1.15994 1.17414,-1.95077 1.40558,-0.51944 2.71325,-1.69447 4.19595,-1.84522 0.5659,0.4495 1.00081,1.41805 1.91543,0.95335 1.02323,-0.29401 0.48745,-1.69815 0.89658,-2.07979 1.59386,-0.36105 3.20807,-0.7008 4.84391,-0.78562 z"
       id="path4223"
       inkscape:connector-curvature="0" />
  </g>
</svg>
