<?xml version="1.0" encoding="UTF-8" standalone="no"?>
<!-- Created with Inkscape (http://www.inkscape.org/) -->

<svg
   xmlns:dc="http://purl.org/dc/elements/1.1/"
   xmlns:cc="http://creativecommons.org/ns#"
   xmlns:rdf="http://www.w3.org/1999/02/22-rdf-syntax-ns#"
   xmlns:svg="http://www.w3.org/2000/svg"
   xmlns="http://www.w3.org/2000/svg"
   xmlns:sodipodi="http://sodipodi.sourceforge.net/DTD/sodipodi-0.dtd"
   xmlns:inkscape="http://www.inkscape.org/namespaces/inkscape"
   width="14.111052mm"
   height="13.076192mm"
   viewBox="0 0 49.999789 46.332963"
   id="svg2"
   version="1.1"
   inkscape:version="0.91 r13725"
   sodipodi:docname="icono-team.svg">
  <defs
     id="defs4" />
  <sodipodi:namedview
     id="base"
     pagecolor="#818181"
     bordercolor="#666666"
     borderopacity="1.0"
     inkscape:pageopacity="0"
     inkscape:pageshadow="2"
     inkscape:zoom="4.5013019"
     inkscape:cx="25.795216"
     inkscape:cy="6.2044305"
     inkscape:document-units="px"
     inkscape:current-layer="layer1"
     showgrid="false"
     fit-margin-top="0"
     fit-margin-left="0"
     fit-margin-right="0"
     fit-margin-bottom="0"
     inkscape:window-width="1920"
     inkscape:window-height="1030"
     inkscape:window-x="0"
     inkscape:window-y="0"
     inkscape:window-maximized="1" />
  <metadata
     id="metadata7">
    <rdf:RDF>
      <cc:Work
         rdf:about="">
        <dc:format>image/svg+xml</dc:format>
        <dc:type
           rdf:resource="http://purl.org/dc/dcmitype/StillImage" />
        <dc:title></dc:title>
      </cc:Work>
    </rdf:RDF>
  </metadata>
  <g
     inkscape:label="Capa 1"
     inkscape:groupmode="layer"
     id="layer1"
     transform="translate(-258.06632,-355.38146)">
    <path
       style="fill:#ffffff"
       d="m 273.55032,396.8442 c -0.27946,-0.13059 -0.65275,-0.41233 -0.82953,-0.62611 -0.59292,-0.71696 -0.61627,-0.92981 -0.61627,-5.61724 l 0,-4.24031 -4.13324,-3.2e-4 c -3.95426,-3.2e-4 -4.14744,-0.009 -4.46138,-0.20044 -0.18048,-0.11004 -0.37391,-0.32043 -0.42984,-0.46753 -0.13585,-0.35732 0.75295,-10.81117 0.97137,-11.42497 0.21622,-0.60765 0.50444,-0.92609 1.08131,-1.19471 0.49323,-0.22967 0.59063,-0.2372 3.1642,-0.24454 2.50771,-0.007 2.62528,-0.0157 2.11544,-0.15276 -1.34001,-0.36037 -2.61115,-1.38027 -3.19265,-2.56161 -0.39232,-0.79703 -0.52042,-1.34609 -0.52354,-2.2439 -0.005,-1.39392 0.45619,-2.50524 1.46241,-3.52515 l 0.615,-0.62336 -0.24589,-0.47884 c -0.62782,-1.22258 0.21104,-2.6178 1.86356,-3.09958 0.75725,-0.22078 2.09438,-0.14704 2.76534,0.15248 0.59201,0.26429 1.2204,0.83636 1.41446,1.2877 0.18498,0.4302 0.17582,1.27234 -0.0183,1.68138 l -0.15692,0.33071 0.68893,0.68894 c 1.13791,1.13791 1.59581,2.32045 1.50483,3.88627 -0.0584,1.00524 -0.33171,1.77884 -0.91945,2.60247 -0.65691,0.92059 -1.65013,1.59933 -2.78917,1.90604 -0.49582,0.13352 -0.39308,0.14201 1.79236,0.14823 l 2.31835,0.006 -0.002,-0.97695 c -0.004,-1.82079 0.55606,-3.18925 1.81685,-4.43824 1.26556,-1.25373 2.62262,-1.81643 4.37196,-1.81284 1.13222,0.002 1.67021,0.12685 2.73839,0.63381 0.63721,0.30243 1.00914,0.56808 1.56227,1.11583 1.10983,1.09905 1.68665,2.28617 1.83529,3.77712 l 0.0747,0.74938 6.12868,0.0501 6.12869,0.0501 0.4344,0.30122 c 0.28444,0.19724 0.5295,0.48879 0.70994,0.84461 l 0.27554,0.5434 0,5.93247 0,5.93247 -0.27989,0.53578 c -0.17461,0.33424 -0.44162,0.6495 -0.70984,0.83809 l -0.42994,0.30231 -3.724,0.0501 -3.724,0.0501 -0.0501,4.06614 -0.0501,4.06615 -0.30325,0.49029 c -0.18782,0.30366 -0.48993,0.60571 -0.7937,0.79354 l -0.49045,0.30324 -9.22627,0.0249 -9.22627,0.0249 -0.5081,-0.23743 z m 18.33544,-1.9273 c 0.14242,-0.0546 0.1585,-0.76427 0.1585,-6.99393 0,-5.25883 -0.029,-6.96216 -0.12024,-7.05337 -0.0884,-0.0884 -0.94497,-0.12018 -3.23145,-0.12002 l -3.11119,2e-4 -0.64749,0.81926 -0.64747,0.81926 0.73115,4.3293 c 0.6811,4.03284 0.72082,4.34895 0.58009,4.61636 -0.0831,0.15788 -0.53833,0.72474 -1.01165,1.25967 -1.30898,1.4794 -1.60724,1.46288 -3.01262,-0.1668 -0.44088,-0.51125 -0.84344,-1.04632 -0.89459,-1.18906 -0.069,-0.19263 0.0824,-1.29995 0.58749,-4.29681 0.37427,-2.22053 0.70172,-4.1521 0.72767,-4.2924 0.0373,-0.20143 -0.0924,-0.428 -0.61652,-1.07715 l -0.66372,-0.82205 -3.07715,0.002 c -1.76337,8e-4 -3.14133,0.0421 -3.22746,0.0965 -0.13075,0.0826 -0.15382,0.98176 -0.17739,6.91501 -0.0185,4.64468 0.006,6.88307 0.0786,7.01766 0.10403,0.19437 0.24869,0.19763 8.76133,0.19763 4.76054,0 8.72687,-0.0274 8.81404,-0.0608 z m 9.07627,-15.31983 0,-5.56108 -2.49949,0 -2.49949,0 -0.46498,0.57082 c -0.35736,0.43869 -0.45363,0.63002 -0.41592,0.82664 0.027,0.14071 0.2887,1.7067 0.58159,3.47998 0.39964,2.41963 0.5083,3.28773 0.43547,3.47896 -0.13301,0.34919 -1.52171,1.94169 -1.75884,2.01695 -0.13999,0.0444 -0.19192,0.15398 -0.19192,0.40487 l 0,0.34394 3.40679,0 3.40679,0 0,-5.56108 z m -28.84185,2.78054 c 0.0342,-1.86768 0.0362,-1.88191 0.33247,-2.41684 0.16392,-0.29596 0.44564,-0.65069 0.62605,-0.78829 0.5929,-0.45222 0.95498,-0.51821 2.86961,-0.52291 l 1.7897,-0.004 -0.0553,-0.32565 c -0.0304,-0.17911 -0.13249,-1.01327 -0.22683,-1.85369 l -0.17152,-1.52805 -5.64601,0 -5.646,0 -0.004,0.27555 c -0.002,0.15155 -0.17716,2.21441 -0.38864,4.58414 -0.21149,2.36972 -0.36478,4.3424 -0.34067,4.38374 0.0241,0.0414 1.57002,0.0751 3.43534,0.0751 l 3.39149,0 0.0344,-1.87875 z m 12.6095,-4.12119 0,-0.38875 -1.09015,0.0517 c -1.3685,0.0649 -2.16055,-0.079 -3.18423,-0.57831 -0.43188,-0.21066 -0.78993,-0.3754 -0.79566,-0.36609 -0.006,0.009 0.0344,0.38892 0.0892,0.84358 l 0.0996,0.82665 2.44065,0 2.44065,0 0,-0.38875 z m 7.76992,-1.34834 0.2821,-1.73709 -0.44386,-0.56191 -0.44388,-0.56191 -1.4766,-0.006 -1.4766,-0.006 -0.15174,0.36316 c -0.23338,0.55857 -1.01089,1.59537 -1.50797,2.01088 l -0.44718,0.37379 0,0.86388 c 0,0.47513 0.0301,0.89394 0.0668,0.93068 0.0367,0.0367 1.24805,0.0668 2.6918,0.0668 l 2.62501,0 0.28212,-1.7371 z m -7.64387,-1.44325 c 0.87196,-0.40803 1.59326,-1.12836 2.00864,-2.00592 0.29304,-0.61909 0.31972,-0.75898 0.31995,-1.67742 2e-4,-0.91563 -0.0269,-1.0592 -0.31419,-1.66565 -0.77053,-1.62626 -2.15309,-2.46105 -3.93006,-2.37299 -0.71056,0.0352 -0.98372,0.0996 -1.52436,0.35911 -0.80331,0.38565 -1.59598,1.18792 -1.97698,2.00092 -0.24207,0.51653 -0.27013,0.69093 -0.27013,1.67861 0,0.99696 0.026,1.15517 0.27273,1.65703 0.7862,1.59934 2.15249,2.43293 3.88729,2.3717 0.70877,-0.025 0.96762,-0.0836 1.52711,-0.34539 z m -12.02278,-5.0155 c 1.40274,-0.6205 2.07337,-2.4607 1.38704,-3.80602 -0.11866,-0.23259 -0.22611,-0.42193 -0.23876,-0.42075 -0.0126,0.002 -1.17281,0.3788 -2.5781,0.83914 -1.76039,0.57665 -2.56473,0.88528 -2.58604,0.9923 -0.0544,0.2731 0.1694,0.91978 0.48132,1.39068 0.75695,1.14279 2.25783,1.56939 3.53454,1.00465 z m 19.72356,1.1237 c -1.22311,-0.32894 -2.32399,-1.12334 -3.01421,-2.17507 -0.59006,-0.8991 -0.82485,-1.71801 -0.82485,-2.87695 0,-2.0174 0.97144,-3.66614 2.70428,-4.58973 2.05887,-1.09737 4.4839,-0.74898 6.14163,0.88234 2.10289,2.06937 2.10299,5.34484 2e-4,7.41478 -0.72054,0.7093 -1.60266,1.20118 -2.49322,1.39026 -0.71621,0.15206 -1.85564,0.13138 -2.51385,-0.0456 z m 2.46183,-2.16164 c 0.86138,-0.32229 1.5562,-1.0578 1.82676,-1.93376 0.11503,-0.37242 0.20914,-0.8029 0.20914,-0.95662 0,-0.15372 -0.0941,-0.5842 -0.20914,-0.95662 -0.16832,-0.54494 -0.31075,-0.77874 -0.72956,-1.19755 -1.53921,-1.53921 -4.02167,-1.1463 -4.97352,0.78718 -1.24438,2.52769 1.23148,5.24693 3.87632,4.25737 z"
       id="path4147"
       inkscape:connector-curvature="0" />
  </g>
</svg>
