<?xml version="1.0" encoding="UTF-8" standalone="no"?>

<svg
   xmlns:dc="http://purl.org/dc/elements/1.1/"
   xmlns:cc="http://creativecommons.org/ns#"
   xmlns:rdf="http://www.w3.org/1999/02/22-rdf-syntax-ns#"
   xmlns:svg="http://www.w3.org/2000/svg"
   xmlns="http://www.w3.org/2000/svg"
   xmlns:sodipodi="http://sodipodi.sourceforge.net/DTD/sodipodi-0.dtd"
   xmlns:inkscape="http://www.inkscape.org/namespaces/inkscape"
   width="36.785431mm"
   height="8.5448875mm"
   viewBox="0 0 130.34207 30.27716"
   id="svg2"
   version="1.1"
   inkscape:version="0.91 r13725"
   sodipodi:docname="keppler-logo.svg">
  <defs
     id="defs4" />
  <sodipodi:namedview
     id="base"
     pagecolor="#ffffff"
     bordercolor="#666666"
     borderopacity="1.0"
     inkscape:pageopacity="0.0"
     inkscape:pageshadow="2"
     inkscape:zoom="5.8660436"
     inkscape:cx="51.422436"
     inkscape:cy="20.049199"
     inkscape:document-units="px"
     inkscape:current-layer="layer1"
     showgrid="false"
     fit-margin-top="0"
     fit-margin-left="3"
     fit-margin-right="3"
     fit-margin-bottom="0"
     inkscape:window-width="1920"
     inkscape:window-height="1028"
     inkscape:window-x="0"
     inkscape:window-y="0"
     inkscape:window-maximized="1" />
  <metadata
     id="metadata7">
    <rdf:RDF>
      <cc:Work
         rdf:about="">
        <dc:format>image/svg+xml</dc:format>
        <dc:type
           rdf:resource="http://purl.org/dc/dcmitype/StillImage" />
        <dc:title></dc:title>
      </cc:Work>
    </rdf:RDF>
  </metadata>
  <g
     inkscape:label="Capa 1"
     inkscape:groupmode="layer"
     id="layer1"
     transform="translate(-77.687269,-574.90069)">
    <g
       style="font-style:normal;font-weight:normal;font-size:32.80298996px;line-height:125%;font-family:sans-serif;letter-spacing:0px;word-spacing:0px;fill:#ececec;fill-opacity:1;stroke:none;stroke-width:1px;stroke-linecap:butt;stroke-linejoin:miter;stroke-opacity:1"
       id="text4136">
      <path
         d="m 107.76936,598.61725 -5.44529,0 -7.282267,-11.80908 5.478097,-7.28226 q -0.918482,-0.42644 -1.279314,-0.88568 l 0.328029,-2.65704 7.479085,0 0.32803,2.65704 q -0.45924,0.52485 -1.70576,1.04969 l -5.674916,6.98704 5.182876,7.80711 q 2.13219,0.45924 2.91946,1.41053 l -0.32803,2.72265 z m -11.448241,-22.63406 0.32803,2.72264 q -0.524848,0.62326 -1.804164,1.11531 l 0,14.99096 q 1.312119,0.52485 1.804164,1.0825 l -0.32803,2.72265 -7.675899,0 -0.32803,-2.72265 q 0.426439,-0.55765 1.804164,-1.0825 l 0,-14.99096 q -1.344922,-0.49205 -1.804164,-1.11531 l 0.32803,-2.72264 7.675899,0 z"
         style="font-style:normal;font-variant:normal;font-weight:normal;font-stretch:normal;font-family:'Patua One';-inkscape-font-specification:'Patua One';fill:#ececec"
         id="path4160"
         inkscape:connector-curvature="0" />
      <path
         d="m 116.55903,598.87967 q -3.93636,0 -5.93734,-2.09939 -1.96818,-2.09939 -1.96818,-6.10136 0,-2.42742 0.68886,-4.16597 0.68886,-1.77137 1.86977,-2.72265 2.29621,-1.83697 5.34689,-1.83697 3.05067,0 4.65802,1.57454 1.64015,1.54174 1.64015,5.57651 0,2.36182 -2.32901,2.36182 l -7.11825,0 q 0.13121,2.06659 1.0497,2.91946 0.95128,0.85288 2.98507,0.85288 1.1153,0 2.13219,-0.26242 1.01689,-0.26243 1.47614,-0.52485 l 0.45924,-0.26243 0.98409,2.62424 q -0.19682,0.22963 -0.59046,0.59046 -0.36083,0.32803 -1.90257,0.91848 -1.50894,0.55765 -3.44431,0.55765 z m 2.06658,-10.33294 q 0.0656,-0.45924 0.0656,-1.1153 0,-0.65606 -0.52485,-1.37773 -0.52484,-0.75447 -1.83696,-0.75447 -1.27932,0 -1.96818,0.78728 -0.68887,0.78727 -0.91849,2.65704 l 5.18287,-0.19682 z"
         style="font-style:normal;font-variant:normal;font-weight:normal;font-stretch:normal;font-family:'Patua One';-inkscape-font-specification:'Patua One';fill:#ececec"
         id="path4162"
         inkscape:connector-curvature="0" />
      <path
         d="m 124.47838,582.21575 q 1.80417,-0.39363 3.2475,-0.39363 1.44333,0 2.39462,0.0656 l 0,1.60735 q 2.1978,-1.54174 4.69083,-1.54174 3.2803,0 4.75643,1.86977 1.47613,1.86977 1.47613,6.23257 0,2.32901 -0.68886,4.10037 -0.68886,1.77136 -1.86977,2.75545 -2.2634,1.96818 -5.37969,1.96818 -1.34492,0 -2.55863,-0.26242 l 0,2.82106 q 1.93537,0.52484 2.49303,1.21371 l -0.32803,2.52583 -8.23356,0 -0.32803,-2.52583 q 0.42644,-0.59046 1.80417,-1.11531 l 0,-15.67982 q -1.14811,-0.39364 -1.80417,-1.11531 l 0.32803,-2.52583 z m 8.29916,13.31802 q 1.64015,0 2.59144,-1.44333 0.95128,-1.47614 0.95128,-4.03477 0,-2.59144 -0.52484,-3.54272 -0.52485,-0.95129 -1.90258,-0.95129 -2.09939,0 -3.3459,0.98409 l 0,8.72559 q 1.01689,0.26243 2.2306,0.26243 z"
         style="font-style:normal;font-variant:normal;font-weight:normal;font-stretch:normal;font-family:'Patua One';-inkscape-font-specification:'Patua One';fill:#ececec"
         id="path4164"
         inkscape:connector-curvature="0" />
      <path
         d="m 142.73786,582.21575 q 1.80417,-0.39363 3.2475,-0.39363 1.44333,0 2.39462,0.0656 l 0,1.60735 q 2.1978,-1.54174 4.69083,-1.54174 3.2803,0 4.75643,1.86977 1.47613,1.86977 1.47613,6.23257 0,2.32901 -0.68886,4.10037 -0.68886,1.77136 -1.86977,2.75545 -2.26341,1.96818 -5.37969,1.96818 -1.34492,0 -2.55863,-0.26242 l 0,2.82106 q 1.93537,0.52484 2.49302,1.21371 l -0.32803,2.52583 -8.23355,0 -0.32803,-2.52583 q 0.42644,-0.59046 1.80417,-1.11531 l 0,-15.67982 q -1.14811,-0.39364 -1.80417,-1.11531 l 0.32803,-2.52583 z m 8.29916,13.31802 q 1.64015,0 2.59144,-1.44333 0.95128,-1.47614 0.95128,-4.03477 0,-2.59144 -0.52484,-3.54272 -0.52485,-0.95129 -1.90258,-0.95129 -2.09939,0 -3.3459,0.98409 l 0,8.72559 q 1.01689,0.26243 2.2306,0.26243 z"
         style="font-style:normal;font-variant:normal;font-weight:normal;font-stretch:normal;font-family:'Patua One';-inkscape-font-specification:'Patua One';fill:#ececec"
         id="path4166"
         inkscape:connector-curvature="0" />
      <path
         d="m 160.96454,575.32713 q 1.83697,-0.42644 3.41151,-0.42644 1.57455,0 2.65704,0.0984 l 0,19.97702 q 1.27932,0.49204 1.80417,1.1153 l -0.32803,2.52583 -7.54469,0 -0.32803,-2.52583 q 0.45924,-0.62326 1.80417,-1.1153 l 0,-16.00786 q -1.14811,-0.39364 -1.80417,-1.1153 l 0.32803,-2.52583 z"
         style="font-style:normal;font-variant:normal;font-weight:normal;font-stretch:normal;font-family:'Patua One';-inkscape-font-specification:'Patua One';fill:#ececec"
         id="path4168"
         inkscape:connector-curvature="0" />
      <path
         d="m 178.06464,598.87967 q -3.93636,0 -5.93734,-2.09939 -1.96818,-2.09939 -1.96818,-6.10136 0,-2.42742 0.68886,-4.16597 0.68886,-1.77137 1.86977,-2.72265 2.29621,-1.83697 5.34689,-1.83697 3.05068,0 4.65802,1.57454 1.64015,1.54174 1.64015,5.57651 0,2.36182 -2.32901,2.36182 l -7.11825,0 q 0.13121,2.06659 1.0497,2.91946 0.95128,0.85288 2.98507,0.85288 1.1153,0 2.13219,-0.26242 1.0169,-0.26243 1.47614,-0.52485 l 0.45924,-0.26243 0.98409,2.62424 q -0.19682,0.22963 -0.59045,0.59046 -0.36084,0.32803 -1.90258,0.91848 -1.50894,0.55765 -3.44431,0.55765 z m 2.06659,-10.33294 q 0.0656,-0.45924 0.0656,-1.1153 0,-0.65606 -0.52485,-1.37773 -0.52484,-0.75447 -1.83696,-0.75447 -1.27932,0 -1.96818,0.78728 -0.68887,0.78727 -0.91849,2.65704 l 5.18288,-0.19682 z"
         style="font-style:normal;font-variant:normal;font-weight:normal;font-stretch:normal;font-family:'Patua One';-inkscape-font-specification:'Patua One';fill:#ececec"
         id="path4170"
         inkscape:connector-curvature="0" />
      <path
         d="m 195.85769,586.25052 q -2.49302,0 -3.44431,0.95129 l 0,7.51188 q 2.65704,0.49205 3.64113,1.37773 l -0.32803,2.52583 -9.38165,0 -0.32803,-2.52583 q 0.45924,-0.62326 1.80416,-1.1153 l 0,-9.11923 q -1.1481,-0.39364 -1.80416,-1.11531 l 0.32803,-2.52583 q 1.80416,-0.39363 3.24749,-0.39363 1.44333,0 2.39462,0.0656 l 0,2.06659 q 0.75447,-0.88568 1.93538,-1.44333 1.1809,-0.59045 2.13219,-0.59045 0.98409,0 1.34492,0.16401 l -0.0984,4.26439 q -0.65606,-0.0984 -1.44333,-0.0984 z"
         style="font-style:normal;font-variant:normal;font-weight:normal;font-stretch:normal;font-family:'Patua One';-inkscape-font-specification:'Patua One';fill:#ececec"
         id="path4172"
         inkscape:connector-curvature="0" />
    </g>
  </g>
</svg>
