<?xml version="1.0" encoding="UTF-8" standalone="no"?>

<svg
   xmlns:dc="http://purl.org/dc/elements/1.1/"
   xmlns:cc="http://creativecommons.org/ns#"
   xmlns:rdf="http://www.w3.org/1999/02/22-rdf-syntax-ns#"
   xmlns:svg="http://www.w3.org/2000/svg"
   xmlns="http://www.w3.org/2000/svg"
   xmlns:sodipodi="http://sodipodi.sourceforge.net/DTD/sodipodi-0.dtd"
   xmlns:inkscape="http://www.inkscape.org/namespaces/inkscape"
   width="14.111052mm"
   height="13.076192mm"
   viewBox="0 0 49.999789 46.332963"
   id="svg2"
   version="1.1"
   inkscape:version="0.91 r13725"
   sodipodi:docname="icono-plant.svg">
  <defs
     id="defs4" />
  <sodipodi:namedview
     id="base"
     pagecolor="#818181"
     bordercolor="#666666"
     borderopacity="1.0"
     inkscape:pageopacity="0"
     inkscape:pageshadow="2"
     inkscape:zoom="3.2793199"
     inkscape:cx="87.011233"
     inkscape:cy="44.210896"
     inkscape:document-units="px"
     inkscape:current-layer="layer1"
     showgrid="false"
     fit-margin-top="0"
     fit-margin-left="0"
     fit-margin-right="0"
     fit-margin-bottom="0"
     inkscape:window-width="1920"
     inkscape:window-height="1030"
     inkscape:window-x="0"
     inkscape:window-y="0"
     inkscape:window-maximized="1" />
  <metadata
     id="metadata7">
    <rdf:RDF>
      <cc:Work
         rdf:about="">
        <dc:format>image/svg+xml</dc:format>
        <dc:type
           rdf:resource="http://purl.org/dc/dcmitype/StillImage" />
        <dc:title></dc:title>
      </cc:Work>
    </rdf:RDF>
  </metadata>
  <g
     inkscape:label="Capa 1"
     inkscape:groupmode="layer"
     id="layer1"
     transform="translate(-258.06632,-355.38146)">
    <path
       style="fill:#ffffff"
       d="m 287.4142,395.60271 c -0.29433,-0.31758 -0.53283,-0.96104 -0.68458,-1.84692 -0.17288,-1.00923 -0.39237,-1.54796 -0.85189,-2.09085 -1.18418,-1.39903 -2.22881,-3.37916 -3.42619,-6.49445 -0.66259,-1.72388 -1.26542,-3.46109 -1.33963,-3.86044 -0.16363,-0.8805 0.15673,-2.16847 0.71629,-2.87985 0.88254,-1.12196 2.92476,-0.88859 4.08492,0.46679 0.79295,0.92639 1.00124,1.30808 1.58121,2.89762 0.46864,1.28442 0.89856,1.45907 1.33515,0.5424 0.51926,-1.09022 1.10616,-3.87176 1.37543,-6.51861 0.22048,-2.1673 0.38553,-2.96285 0.74877,-3.60915 0.60113,-1.06957 1.82764,-1.80047 3.02131,-1.80047 1.09572,0 1.70328,0.39269 1.86594,1.20604 0.0986,0.49297 0.22534,0.6139 0.64342,0.6139 1.24265,0 2.18944,0.9321 3.01973,2.9729 0.41623,1.02309 0.55518,1.17592 1.24504,1.36948 1.49173,0.41854 2.65962,3.2192 2.43762,5.84553 -0.22586,2.67191 -3.39244,12.39822 -4.30354,13.21849 -0.49671,0.44721 -0.59523,0.45499 -5.76132,0.45499 l -5.25597,0 z m 11.83151,-5.24964 c 2.42851,-7.03903 2.72052,-8.93716 1.71334,-11.13715 -0.28277,-0.61762 -0.59562,-1.12296 -0.69523,-1.12296 -0.0996,0 -0.4594,1.42072 -0.79954,3.15715 -0.35465,1.81057 -0.74924,3.28797 -0.92514,3.46388 -0.20651,0.20651 -0.48414,0.26219 -0.84976,0.17043 -0.6479,-0.16261 -0.64834,-0.15273 0.2092,-4.5909 l 0.57115,-2.95592 -0.46665,-1.24781 c -0.52106,-1.39327 -1.10401,-2.24335 -1.5384,-2.24335 -0.23223,0 -0.28864,0.4268 -0.28864,2.18376 0,1.79828 -0.12109,2.67723 -0.68597,4.97942 -0.64314,2.62106 -0.88567,3.13907 -1.4734,3.1467 -0.44465,0.006 -0.91067,-0.64566 -0.77883,-1.08868 0.0696,-0.23366 0.4133,-1.6704 0.76391,-3.19276 0.62602,-2.71814 0.63357,-2.81197 0.41995,-5.21561 -0.11965,-1.34623 -0.27144,-2.50158 -0.33731,-2.56744 -0.24781,-0.24783 -1.37695,0.41903 -1.67041,0.98652 -0.17085,0.33038 -0.38679,1.58977 -0.49026,2.85932 -0.21578,2.64739 -1.19169,6.74096 -1.81612,7.61789 -0.50303,0.70645 -1.37747,1.2105 -2.09996,1.2105 -0.80749,0 -1.51287,-0.79366 -2.0668,-2.32548 -0.59365,-1.64169 -1.3119,-2.67095 -2.06323,-2.95661 -0.42639,-0.1621 -0.58089,-0.13227 -0.789,0.15233 -0.48354,0.66129 -0.27201,1.82052 0.86785,4.75603 1.21927,3.14001 2.03806,4.75007 2.94378,5.78861 0.84198,0.96544 1.39525,2.15778 1.53028,3.29786 l 0.11854,1.00091 4.65518,-0.0542 4.65516,-0.0542 1.38631,-4.01822 z m -25.17853,2.97343 c -0.21972,-0.21971 -0.15373,-0.97869 0.10785,-1.24025 4.7075,-1.97947 2.83,-10.5072 3.40433,-13.49592 0.27239,-0.50897 1.12888,-0.50897 1.40127,0 0.28749,0.53718 0.28749,13.94267 0,14.47985 -0.18799,0.35127 -0.44217,0.39113 -2.49398,0.39113 -1.25657,0 -2.34533,-0.0607 -2.41947,-0.13481 z m -3.71684,-5.20078 c -3.08544,-1.01189 -4.96237,-3.45094 -5.01098,-6.51168 -0.0173,-1.08654 -0.10773,-1.35111 -0.77114,-2.25486 -1.31274,-1.7883 -1.64389,-2.75292 -1.64954,-4.80498 -0.004,-1.61833 0.0639,-1.96562 0.61715,-3.13492 0.3422,-0.72324 1.03521,-1.728 1.54002,-2.23282 1.01496,-1.01495 2.91016,-2.10972 4.00335,-2.31253 0.62306,-0.11558 0.77497,-0.27443 1.26942,-1.32739 0.73505,-1.56535 2.23414,-3.04018 3.93628,-3.8726 1.31494,-0.64305 1.4575,-0.66817 3.79288,-0.66817 2.3183,0 2.48541,0.0288 3.74504,0.64534 0.72515,0.35495 1.72612,1.02221 2.22437,1.48282 0.72074,0.66631 0.9679,0.7917 1.20922,0.61348 0.62756,-0.46345 2.75731,-1.40775 3.4571,-1.53281 0.53662,-0.0959 0.81485,-0.0423 1.06163,0.20446 0.48395,0.48394 0.42382,2.33822 -0.12834,3.95787 l -0.45233,1.32685 0.77397,0.55105 c 0.83531,0.5947 0.94826,1.21585 0.29551,1.62502 -0.27365,0.17153 -0.54812,0.11253 -1.24341,-0.26729 l -0.89224,-0.48741 -0.65591,0.55192 c -1.61014,1.35483 -4.25177,2.15399 -4.82741,1.46039 -0.45289,-0.54571 -0.18917,-3.02517 0.48047,-4.51734 0.52668,-1.1736 0.54359,-1.29141 0.24959,-1.74009 -0.17344,-0.2647 -0.75201,-0.77052 -1.28572,-1.12404 -3.75654,-2.48822 -8.87884,-0.9833 -10.42373,3.06247 -0.36774,0.96302 -0.59923,1.29343 -0.97799,1.39586 -3.24205,0.87685 -4.41242,1.66328 -5.42279,3.64388 -0.57362,1.12448 -0.67884,1.54248 -0.67233,2.67107 0.009,1.63959 0.61108,3.07736 1.8086,4.32225 l 0.82696,0.85966 -0.11016,1.46581 c -0.1272,1.6927 0.12416,2.48811 1.15857,3.66624 1.23861,1.4107 3.43882,2.15041 5.24444,1.76317 0.55222,-0.11843 1.14023,-0.16306 1.3067,-0.0992 0.51898,0.19914 0.60282,0.89497 0.16108,1.33671 -0.52801,0.528 -3.36251,0.70021 -4.63833,0.28179 z m 14.68492,-18.92056 c 1.74496,-0.89022 2.89999,-2.36509 3.22825,-4.12225 0.20064,-1.07399 0.13496,-1.1097 -0.98763,-0.537 -1.07055,0.54616 -2.06171,1.57071 -2.56233,2.64868 -0.42625,0.91783 -0.77901,2.40533 -0.57043,2.40533 0.0651,0 0.46655,-0.17764 0.89214,-0.39476 z"
       id="path4839"
       inkscape:connector-curvature="0"
       sodipodi:nodetypes="ssssccsssssscsssscscsccsscsscssssccsscsssssccsssccccccccssscccscsccssscscscscccscssscsscscscssscsccssssss" />
  </g>
</svg>
