<?xml version="1.0" encoding="UTF-8" standalone="no"?>
<!-- Created with Inkscape (http://www.inkscape.org/) -->

<svg
   xmlns:dc="http://purl.org/dc/elements/1.1/"
   xmlns:cc="http://creativecommons.org/ns#"
   xmlns:rdf="http://www.w3.org/1999/02/22-rdf-syntax-ns#"
   xmlns:svg="http://www.w3.org/2000/svg"
   xmlns="http://www.w3.org/2000/svg"
   xmlns:sodipodi="http://sodipodi.sourceforge.net/DTD/sodipodi-0.dtd"
   xmlns:inkscape="http://www.inkscape.org/namespaces/inkscape"
   width="14.111052mm"
   height="13.076192mm"
   viewBox="0 0 49.999789 46.332963"
   id="svg2"
   version="1.1"
   inkscape:version="0.91 r13725"
   sodipodi:docname="icono-planing.svg">
  <defs
     id="defs4" />
  <sodipodi:namedview
     id="base"
     pagecolor="#818181"
     bordercolor="#666666"
     borderopacity="1.0"
     inkscape:pageopacity="0"
     inkscape:pageshadow="2"
     inkscape:zoom="4.6376587"
     inkscape:cx="23.254321"
     inkscape:cy="-11.273766"
     inkscape:document-units="px"
     inkscape:current-layer="layer1"
     showgrid="false"
     fit-margin-top="0"
     fit-margin-left="0"
     fit-margin-right="0"
     fit-margin-bottom="0"
     inkscape:window-width="1920"
     inkscape:window-height="1030"
     inkscape:window-x="0"
     inkscape:window-y="0"
     inkscape:window-maximized="1" />
  <metadata
     id="metadata7">
    <rdf:RDF>
      <cc:Work
         rdf:about="">
        <dc:format>image/svg+xml</dc:format>
        <dc:type
           rdf:resource="http://purl.org/dc/dcmitype/StillImage" />
        <dc:title></dc:title>
      </cc:Work>
    </rdf:RDF>
  </metadata>
  <g
     inkscape:label="Capa 1"
     inkscape:groupmode="layer"
     id="layer1"
     transform="translate(-258.06632,-355.38146)">
    <path
       style="fill:#ffffff"
       d="m 295.29598,397.69306 c -0.71935,-0.26347 -0.89017,-0.55801 -0.67933,-1.17131 l 0.13007,-0.37836 -0.45952,-0.42506 -0.45952,-0.42505 -0.41719,0.15267 c -0.57233,0.20943 -0.83047,0.0926 -1.13856,-0.51542 -0.32234,-0.6361 -0.32102,-1.0068 0.005,-1.26284 0.13842,-0.10889 0.33577,-0.22466 0.43855,-0.25728 0.15882,-0.0504 0.18687,-0.15394 0.18687,-0.68968 l 0,-0.63036 -0.43549,-0.18668 c -0.30772,-0.1319 -0.45385,-0.25975 -0.49801,-0.43573 -0.0891,-0.35516 0.0254,-0.85548 0.28304,-1.2358 0.19401,-0.28646 0.27025,-0.32549 0.60672,-0.31063 0.21166,0.009 0.47255,0.0313 0.57975,0.0487 0.13097,0.0214 0.33184,-0.11686 0.61229,-0.42119 l 0.41738,-0.45291 -0.16786,-0.35202 c -0.24107,-0.50553 -0.10387,-0.81872 0.5046,-1.15192 0.77336,-0.42348 1.16154,-0.3472 1.44604,0.28417 l 0.16734,0.37139 0.65094,-0.0487 c 0.63979,-0.0479 0.65252,-0.0543 0.74379,-0.37408 0.17524,-0.61389 0.68071,-0.73482 1.55123,-0.3711 0.49458,0.20665 0.6358,0.53918 0.45216,1.06471 l -0.14071,0.40271 0.45891,0.42811 0.45891,0.42812 0.42201,-0.16117 c 0.6194,-0.23655 0.85351,-0.11202 1.18719,0.63151 0.22298,0.49687 0.25256,0.64659 0.16552,0.83762 -0.0869,0.19061 -0.51724,0.53465 -0.8081,0.64596 -0.0356,0.0136 -0.0407,0.31857 -0.0114,0.67768 0.0508,0.62198 0.0664,0.65583 0.3315,0.71404 0.15302,0.0336 0.3699,0.17766 0.48194,0.3201 0.2297,0.29201 0.2097,0.55039 -0.0961,1.24174 -0.22121,0.50009 -0.51566,0.61961 -1.07313,0.43562 -0.3657,-0.12068 -0.36602,-0.12054 -0.81088,0.35029 -0.42828,0.4533 -0.43987,0.48103 -0.30769,0.73663 0.32682,0.63199 0.13193,1.00294 -0.73146,1.39228 -0.55662,0.251 -0.87182,0.1363 -1.12904,-0.41087 -0.15358,-0.3267 -0.23625,-0.40448 -0.38983,-0.36679 -0.1072,0.0263 -0.39893,0.0484 -0.64829,0.0492 -0.42153,0.002 -0.46099,0.0232 -0.56159,0.31174 -0.23127,0.66341 -0.55575,0.78902 -1.31752,0.51001 z m 3.12463,-2.75005 c 0.53018,-0.27179 1.15328,-0.9914 1.34457,-1.55282 0.43387,-1.27333 -0.0997,-2.59267 -1.30119,-3.21765 -1.84186,-0.95806 -3.92976,0.30847 -3.92976,2.38381 0,1.08967 0.71881,2.13853 1.71868,2.50783 0.56085,0.20716 1.6455,0.14652 2.1677,-0.12117 z m -11.75596,-8.01089 0,-7.89395 -2.48514,0 -2.48513,0 0,-0.58306 0,-0.58307 2.46077,-0.0261 2.46077,-0.0261 0.025,-7.28485 0.025,-7.28485 2.19214,0 2.19214,0 0,0.48728 0,0.48728 -1.75487,0 -1.75487,0 0.025,6.79757 0.025,6.79757 1.72985,0.0266 1.72985,0.0266 0,0.58249 0,0.58249 -1.75421,0 -1.75421,0 0,7.40667 0,7.40667 1.75421,0 1.75421,0 0,0.48728 0,0.48728 -2.19277,0 -2.19276,0 0,-7.89395 z m -16.53426,-1.20981 c -1.339,-0.25524 -2.27063,-0.6437 -3.30898,-1.37975 -1.36344,-0.96648 -2.49595,-2.59562 -2.97607,-4.2811 -0.28914,-1.01503 -0.31064,-2.86264 -0.0454,-3.89825 0.24253,-0.94685 0.92804,-2.32088 1.5182,-3.04306 1.0125,-1.23899 2.63184,-2.25595 4.23416,-2.65909 0.96079,-0.24173 2.51085,-0.25892 3.47959,-0.0386 2.87684,0.65433 5.12988,2.82615 5.90487,5.69201 0.21727,0.80346 0.2387,2.91785 0.0375,3.70328 -0.58028,2.26565 -2.08909,4.14716 -4.16936,5.19927 -1.32169,0.66845 -3.30104,0.96709 -4.67457,0.70527 z m -1.30985,-3.00517 c -0.009,-1.63829 -0.0134,-1.66994 -0.15798,-1.24256 -0.0928,0.27448 -0.15305,0.83959 -0.16091,1.51057 -0.0126,1.0768 0.0416,1.41311 0.22801,1.41311 0.0655,0 0.0972,-0.58501 0.0909,-1.68112 z m 5.37984,1.46729 c 0.14981,-0.27992 0.0527,-2.20652 -0.14147,-2.80731 -0.13573,-0.41994 -0.14216,-0.36513 -0.15138,1.29129 -0.009,1.70685 0.0436,1.98176 0.29285,1.51602 z m -7.40947,-3.17726 c 0.26063,-0.80462 0.72289,-1.54978 1.34582,-2.16943 0.67211,-0.66859 2.1521,-1.65124 2.48697,-1.65124 0.10651,0 0.31666,0.11785 0.467,0.26187 l 0.27333,0.26188 0.27334,-0.26188 c 0.15033,-0.14402 0.35152,-0.26187 0.44708,-0.26187 0.25527,0 1.28892,0.60354 1.95726,1.14283 1.3185,1.0639 1.97389,2.2512 2.07112,3.752 0.0546,0.84193 0.0594,0.85557 0.24432,0.68822 0.61726,-0.55862 1.44675,-2.08091 1.69612,-3.1128 0.21177,-0.87628 0.21079,-2.4218 -0.002,-3.2499 -0.50599,-1.96848 -1.82782,-3.61646 -3.62227,-4.51601 -1.01442,-0.50853 -1.77623,-0.68281 -3.01617,-0.69002 -1.29825,-0.008 -1.86167,0.1201 -3.06987,0.69548 -0.80104,0.38148 -1.04584,0.56178 -1.81614,1.33768 -0.72383,0.72908 -0.96455,1.05037 -1.28726,1.71809 -0.51418,1.0639 -0.69417,1.8583 -0.69595,3.07158 -0.002,1.67042 0.48137,3.04993 1.53392,4.37367 l 0.46249,0.58166 0.067,-0.80542 c 0.0369,-0.44299 0.11964,-0.96786 0.18394,-1.16639 z m 3.7758,-4.16955 c -0.61897,-0.19047 -1.27896,-0.85869 -1.49726,-1.5159 -0.31671,-0.95352 -0.0299,-1.98934 0.73118,-2.64081 0.46323,-0.39651 0.95402,-0.56212 1.66576,-0.56212 1.71548,0 2.8624,1.9226 2.08161,3.48943 -0.56224,1.12828 -1.73643,1.61248 -2.98129,1.2294 z m 1.13385,5.32574 0.26558,-0.38323 -0.26949,-1.8534 c -0.14823,-1.01938 -0.3005,-1.83424 -0.3384,-1.81082 -0.0379,0.0234 -0.0991,0.29533 -0.13611,0.60424 -0.0369,0.30891 -0.15441,1.1177 -0.26099,1.7973 l -0.19379,1.23565 0.26256,0.39675 c 0.14441,0.21821 0.29462,0.39675 0.33381,0.39675 0.0392,0 0.19076,-0.17246 0.33683,-0.38324 z m 23.55027,1.37686 c -0.23567,-0.0909 -0.51233,-0.27781 -0.61477,-0.41537 -0.17424,-0.23397 -0.17669,-0.27796 -0.0379,-0.68081 0.0816,-0.23687 0.11706,-0.45802 0.0788,-0.49144 -0.0383,-0.0334 -0.25484,-0.22449 -0.48124,-0.42461 l -0.41164,-0.36385 -0.43041,0.16437 c -0.55203,0.21082 -0.75845,0.10882 -1.0854,-0.53639 -0.40216,-0.79364 -0.31116,-1.15224 0.3656,-1.44065 0.25351,-0.10803 0.26801,-0.14877 0.26801,-0.75322 l 0,-0.63902 -0.4355,-0.18668 c -0.30772,-0.1319 -0.45384,-0.25976 -0.49801,-0.43573 -0.0892,-0.35528 0.0255,-0.85558 0.28322,-1.23581 0.1824,-0.26909 0.2821,-0.32643 0.558,-0.32096 0.18476,0.004 0.44556,0.0379 0.57956,0.0761 0.20917,0.0597 0.30238,7.6e-4 0.65875,-0.41564 l 0.4151,-0.48507 -0.16559,-0.34723 c -0.22339,-0.46845 -0.0957,-0.81105 0.40897,-1.09692 0.82193,-0.46563 1.27086,-0.37568 1.56209,0.31296 0.12189,0.28823 0.13275,0.29191 0.7653,0.25974 l 0.64166,-0.0327 0.18872,-0.42664 c 0.24039,-0.54343 0.52192,-0.62893 1.25291,-0.38044 0.7227,0.24564 0.87471,0.48746 0.71012,1.12968 -0.0684,0.26682 -0.10799,0.4935 -0.088,0.50373 0.02,0.0103 0.21905,0.18903 0.44236,0.39732 l 0.40601,0.37871 0.41199,-0.16484 c 0.60623,-0.24256 0.87657,-0.0985 1.21008,0.64462 0.21632,0.48201 0.24485,0.63025 0.158,0.82085 -0.0868,0.19061 -0.51724,0.53465 -0.8081,0.64597 -0.0356,0.0136 -0.0407,0.3098 -0.0112,0.65821 0.053,0.62791 0.0569,0.63518 0.45449,0.82838 0.54703,0.26585 0.62193,0.53162 0.35195,1.24893 -0.26327,0.69952 -0.49639,0.83893 -1.12269,0.67143 l -0.42823,-0.11453 -0.43371,0.45903 c -0.41687,0.44121 -0.42839,0.46935 -0.29637,0.72464 0.1729,0.33434 0.17692,0.80659 0.008,0.97488 -0.071,0.0708 -0.35721,0.23551 -0.63609,0.36595 -0.63881,0.29878 -0.94529,0.21623 -1.24995,-0.33671 l -0.21364,-0.38775 -0.63311,0.0324 c -0.60936,0.0312 -0.63707,0.0437 -0.73853,0.33477 -0.23339,0.6695 -0.56526,0.78672 -1.35986,0.48029 z m 3.05983,-2.68529 c 1.03655,-0.48484 1.68277,-1.58339 1.58243,-2.69005 -0.0897,-0.98879 -0.67125,-1.78835 -1.61766,-2.22396 -1.01695,-0.46808 -2.36798,-0.16917 -3.08851,0.6833 -1.22453,1.44877 -0.65187,3.69583 1.10133,4.32149 0.59088,0.21086 1.46101,0.1718 2.02241,-0.0908 z m -3.02114,-11.13106 c -0.57246,-0.20513 -0.82974,-0.53428 -0.73305,-0.93781 0.0424,-0.17704 0.1044,-0.38767 0.13775,-0.46807 0.0404,-0.0976 -0.10403,-0.28778 -0.43448,-0.57194 l -0.49511,-0.42576 -0.38359,0.17297 c -0.5169,0.23309 -0.78813,0.10079 -1.11474,-0.54376 -0.36216,-0.71467 -0.30657,-1.05163 0.22136,-1.34199 l 0.41419,-0.2278 0,-0.61583 0,-0.61582 -0.46293,-0.22962 c -0.42754,-0.21207 -0.46465,-0.2594 -0.48567,-0.61944 -0.025,-0.4286 0.29825,-1.18506 0.57907,-1.35498 0.11693,-0.0707 0.30315,-0.0642 0.62576,0.0221 l 0.4593,0.12284 0.4267,-0.46477 0.42671,-0.46477 -0.16807,-0.37269 c -0.22363,-0.49593 -0.10379,-0.82675 0.40363,-1.1142 0.83471,-0.47287 1.27011,-0.37733 1.57606,0.34587 0.0956,0.22593 0.18321,0.30779 0.28689,0.26801 0.0821,-0.0315 0.36532,-0.0573 0.62937,-0.0573 0.46974,0 0.4835,-0.009 0.63722,-0.39267 0.25737,-0.64324 0.58803,-0.72329 1.43693,-0.34787 0.61752,0.2731 0.71817,0.47533 0.54477,1.09464 -0.0664,0.23712 -0.10303,0.44084 -0.0814,0.45271 0.0216,0.0119 0.22114,0.19113 0.44338,0.39839 l 0.40407,0.37681 0.44522,-0.17003 c 0.42074,-0.16069 0.45922,-0.16085 0.69999,-0.003 0.14012,0.0918 0.3646,0.40683 0.49884,0.70005 0.30817,0.67313 0.21221,0.99534 -0.37533,1.26028 -0.3557,0.1604 -0.38608,0.20245 -0.3341,0.46238 0.0315,0.15727 0.0588,0.44491 0.0607,0.63921 0.003,0.31806 0.0445,0.37272 0.41419,0.54819 0.57066,0.27086 0.65153,0.5534 0.36234,1.26593 -0.2774,0.68345 -0.5095,0.81865 -1.12348,0.65444 l -0.42823,-0.11454 -0.43371,0.45904 c -0.41688,0.44121 -0.42839,0.46935 -0.29638,0.72463 0.17002,0.32878 0.17705,0.77194 0.0155,0.97877 -0.067,0.0858 -0.35599,0.25476 -0.64219,0.37547 -0.64785,0.27325 -0.95629,0.19191 -1.23385,-0.32535 l -0.19491,-0.36325 -0.64829,-2.9e-4 c -0.64117,-3e-4 -0.64949,0.003 -0.75651,0.31014 -0.23146,0.66398 -0.55164,0.78749 -1.32397,0.51073 z m 3.02318,-2.70766 c 0.57787,-0.2691 1.04426,-0.7103 1.34006,-1.26771 0.28559,-0.53815 0.30439,-1.79175 0.0346,-2.30331 -0.25336,-0.4803 -0.82115,-1.05335 -1.27634,-1.28814 -0.53887,-0.27796 -1.45847,-0.33745 -2.07109,-0.13397 -2.0145,0.66911 -2.45151,3.40179 -0.7514,4.69852 0.74832,0.57078 1.87054,0.69214 2.72421,0.29461 z"
       id="path4871"
       inkscape:connector-curvature="0" />
  </g>
</svg>
