<?xml version="1.0" encoding="UTF-8" standalone="no"?>
<!-- Created with Inkscape (http://www.inkscape.org/) -->

<svg
   xmlns:dc="http://purl.org/dc/elements/1.1/"
   xmlns:cc="http://creativecommons.org/ns#"
   xmlns:rdf="http://www.w3.org/1999/02/22-rdf-syntax-ns#"
   xmlns:svg="http://www.w3.org/2000/svg"
   xmlns="http://www.w3.org/2000/svg"
   xmlns:sodipodi="http://sodipodi.sourceforge.net/DTD/sodipodi-0.dtd"
   xmlns:inkscape="http://www.inkscape.org/namespaces/inkscape"
   width="14.111052mm"
   height="13.076192mm"
   viewBox="0 0 49.999789 46.332963"
   id="svg2"
   version="1.1"
   inkscape:version="0.91 r13725"
   sodipodi:docname="icono-expert.svg">
  <defs
     id="defs4" />
  <sodipodi:namedview
     id="base"
     pagecolor="#818181"
     bordercolor="#666666"
     borderopacity="1.0"
     inkscape:pageopacity="0"
     inkscape:pageshadow="2"
     inkscape:zoom="6.3658022"
     inkscape:cx="70.767914"
     inkscape:cy="7.9906435"
     inkscape:document-units="px"
     inkscape:current-layer="layer1"
     showgrid="false"
     fit-margin-top="0"
     fit-margin-left="0"
     fit-margin-right="0"
     fit-margin-bottom="0"
     inkscape:window-width="1920"
     inkscape:window-height="1030"
     inkscape:window-x="0"
     inkscape:window-y="0"
     inkscape:window-maximized="1" />
  <metadata
     id="metadata7">
    <rdf:RDF>
      <cc:Work
         rdf:about="">
        <dc:format>image/svg+xml</dc:format>
        <dc:type
           rdf:resource="http://purl.org/dc/dcmitype/StillImage" />
        <dc:title></dc:title>
      </cc:Work>
    </rdf:RDF>
  </metadata>
  <g
     inkscape:label="Capa 1"
     inkscape:groupmode="layer"
     id="layer1"
     transform="translate(-258.06632,-355.38146)">
    <path
       id="path4185"
       style="fill:#ffffff;fill-opacity:1;stroke:none;stroke-width:0.40000001;stroke-miterlimit:4;stroke-dasharray:none"
       d="m 277.0494,372.69788 a 3.0283635,3.0283635 0 0 0 2.9872,2.53464 3.0283635,3.0283635 0 0 0 2.9769,-2.48175 l -5.44396,0 c -0.17868,0 -0.34929,-0.0259 -0.52014,-0.053 z m 6.46541,-3.34992 a 1.1721287,1.1721287 0 0 1 -1.17213,1.17213 1.1721287,1.1721287 0 0 1 -1.17213,-1.17213 1.1721287,1.1721287 0 0 1 1.17213,-1.17213 1.1721287,1.1721287 0 0 1 1.17213,1.17213 z m -4.72476,0 a 1.1721287,1.1721287 0 0 1 -1.17213,1.17213 1.1721287,1.1721287 0 0 1 -1.17213,-1.17213 1.1721287,1.1721287 0 0 1 1.17213,-1.17213 1.1721287,1.1721287 0 0 1 1.17213,1.17213 z m -1.6195,29.40812 c -0.17831,-0.0776 -0.37382,-0.23375 -0.43448,-0.34708 -0.0744,-0.13913 -0.11027,-1.78804 -0.11027,-5.07651 l 0,-4.87045 0.29882,-0.29883 0.29882,-0.29882 5.68621,0 5.68622,0 0.25092,0.25093 c 0.35448,0.35447 0.34645,0.95464 -0.0177,1.31872 l -0.26855,0.26856 -5.02179,0.0265 -5.02178,0.0265 -0.0268,3.60357 -0.0268,3.60356 3.17827,0 3.17827,0 0.29882,0.29883 c 0.50546,0.50546 0.37578,1.22969 -0.26838,1.49884 -0.49822,0.20817 -7.19991,0.20438 -7.67973,-0.004 z m 10.81007,-0.12034 c -0.11653,-0.14814 -0.21188,-0.39906 -0.21188,-0.55759 0,-0.16002 0.86857,-2.15007 1.95251,-4.47356 l 1.95252,-4.18531 -1.03216,-1.46748 c -0.75591,-1.07473 -1.03188,-1.54959 -1.03109,-1.77418 0.002,-0.4018 1.75022,-4.1418 2.02067,-4.32137 0.32187,-0.21371 2.21994,-0.37612 2.59246,-0.22181 0.62456,0.2587 0.74498,1.05404 0.23247,1.53551 -0.19719,0.18526 -0.39995,0.24754 -0.91197,0.28014 -0.36212,0.0231 -0.69883,0.0942 -0.74823,0.15798 -0.0494,0.0638 -0.3302,0.63785 -0.624,1.2756 l -0.53417,1.15955 0.67734,0.98726 c 0.37254,0.54299 0.73587,1.0653 0.8074,1.1607 0.11862,0.1582 0.24971,0.16344 1.49051,0.0596 l 1.36045,-0.11382 0.60279,-1.2773 0.60279,-1.27729 -0.41153,-0.61288 c -0.50136,-0.74665 -0.52733,-1.09422 -0.11271,-1.50883 0.35015,-0.35016 0.88668,-0.40313 1.21475,-0.11992 0.40224,0.34721 1.34883,1.80951 1.34883,2.08367 0,0.34827 -1.67446,3.95018 -1.98008,4.25935 -0.20058,0.20291 -0.41892,0.25478 -1.6051,0.38132 -0.7551,0.0806 -1.55885,0.14739 -1.78609,0.1485 -0.48793,0.003 -0.19815,-0.51524 -2.60508,4.65345 -0.91641,1.9679 -1.75878,3.68152 -1.87195,3.80803 -0.31312,0.35002 -1.10072,0.32772 -1.38945,-0.0393 z m -20.5784,-1.73011 c -0.3158,-0.17139 -0.48816,-0.44061 -0.48816,-0.76254 0,-0.12086 0.66503,-2.95435 1.47784,-6.29665 1.65829,-6.81886 1.6755,-6.86771 2.82235,-8.00978 1.26266,-1.25739 3.03723,-2.03109 4.87606,-2.12595 1.18103,-0.0609 1.30256,-0.009 1.66994,0.71061 0.81949,1.60565 3.86967,1.59343 4.69216,-0.0188 0.29757,-0.58328 0.54764,-0.71644 1.34547,-0.71644 1.65629,0 3.75496,0.79888 4.91648,1.87149 0.32484,0.29997 0.38335,0.41893 0.38335,0.77934 0,0.57073 -0.34315,0.92718 -0.8926,0.92718 -0.29587,0 -0.52059,-0.0976 -0.92545,-0.40176 -0.67509,-0.50726 -1.43576,-0.87712 -2.2159,-1.07744 -0.88363,-0.22691 -1.02982,-0.20531 -1.33707,0.19752 -0.30868,0.40469 -1.12015,0.96343 -1.76407,1.21465 -1.77185,0.69127 -4.07015,0.23147 -5.2735,-1.05501 -0.53178,-0.56852 -0.61571,-0.588 -1.52204,-0.35314 -1.34786,0.34926 -2.67237,1.24258 -3.21487,2.16829 -0.20511,0.35 -0.60138,1.81418 -1.56741,5.79138 l -1.29289,5.32294 2.41241,0.0529 c 1.32683,0.0291 5.43821,0.0922 5.53869,0.14017 0.23527,0.11243 0.4818,0.59048 0.4818,0.93426 0,0.16047 -0.12023,0.38875 -0.29882,0.56733 l -0.29883,0.29882 -6.09499,-0.004 c -2.58162,-0.003 -3.20176,-0.0315 -3.42995,-0.15527 z m 14.92284,-10.58286 c -0.21951,-0.12785 -0.4856,-0.62385 -0.4856,-0.90518 0,-0.11435 0.13425,-0.35816 0.29831,-0.54178 l 0.2983,-0.33385 2.06135,0 2.06135,0 0.2983,0.33385 c 0.16407,0.18362 0.2983,0.42743 0.2983,0.54178 0,0.29416 -0.27308,0.78596 -0.50549,0.91034 -0.25943,0.13884 -4.08543,0.13428 -4.32482,-0.005 z m -3.50134,-8.44068 c -3.3863,-0.54494 -6.06523,-3.00924 -6.90173,-6.34875 -0.0965,-0.38506 -0.14223,-0.43447 -0.40248,-0.43447 -0.19996,0 -0.37497,-0.0966 -0.5485,-0.30285 -0.21689,-0.25778 -0.26579,-0.44918 -0.32852,-1.28588 -0.0496,-0.66185 -0.0361,-1.06564 0.0415,-1.2359 0.13096,-0.28741 0.69916,-0.56409 0.99799,-0.48595 0.1681,0.044 0.22941,-0.0422 0.38597,-0.54205 0.10237,-0.32689 0.26637,-0.75195 0.36443,-0.94461 0.17153,-0.33694 0.17071,-0.36315 -0.0216,-0.68898 -0.19349,-0.32794 -0.19443,-0.36555 -0.0297,-1.18316 0.60568,-3.006 2.70765,-5.25169 5.68176,-6.07025 0.89534,-0.24642 2.95614,-0.25181 3.87878,-0.0101 0.36547,0.0957 1.10151,0.39113 1.63566,0.65644 1.79823,0.89317 3.31701,2.71386 3.84348,4.60748 l 0.17697,0.63651 1.42116,0 c 0.78164,0 1.50967,0.0474 1.61784,0.10525 0.29959,0.16034 0.52898,0.67959 0.45301,1.02548 -0.036,0.16389 -0.18313,0.39055 -0.32696,0.50368 -0.23461,0.18454 -0.41333,0.2057 -1.73754,0.2057 -1.13092,0 -1.46802,0.0299 -1.44179,0.12779 0.0189,0.0703 0.14716,0.46407 0.28517,0.87509 0.21322,0.63501 0.28075,0.7395 0.4494,0.6954 0.28229,-0.0738 0.84331,0.18552 0.98859,0.45698 0.14526,0.2714 0.0474,2.05416 -0.13116,2.38951 -0.16255,0.30529 -0.39846,0.45751 -0.71479,0.46119 -0.22017,0.003 -0.29232,0.0627 -0.34132,0.28438 -0.66147,2.99284 -2.95267,5.43044 -5.88855,6.26481 -0.74194,0.21086 -2.71675,0.34839 -3.40715,0.23729 z m 2.76017,-2.04036 c 1.7545,-0.41761 3.42922,-1.79879 4.20142,-3.46501 0.81107,-1.75007 0.77263,-3.84876 -0.10191,-5.56497 l -0.34192,-0.67098 -5.32728,-0.0265 -5.32726,-0.0265 -0.35242,0.69981 c -0.48094,0.95502 -0.68796,1.82437 -0.68796,2.88894 0,2.17037 1.0206,4.08641 2.81649,5.28757 1.53315,1.02543 3.25788,1.32101 5.12084,0.87758 z m 3.98049,-11.82221 c -0.37408,-1.20621 -1.7316,-2.76076 -2.90708,-3.32903 -1.75922,-0.85046 -3.55668,-0.85046 -5.3159,0 -1.14504,0.55355 -2.55844,2.17114 -2.90881,3.32903 l -0.0696,0.23001 5.63636,0 5.63636,0 -0.0713,-0.23001 z" />
  </g>
</svg>
