<?xml version="1.0" encoding="UTF-8" standalone="no"?>

<svg
   xmlns:dc="http://purl.org/dc/elements/1.1/"
   xmlns:cc="http://creativecommons.org/ns#"
   xmlns:rdf="http://www.w3.org/1999/02/22-rdf-syntax-ns#"
   xmlns:svg="http://www.w3.org/2000/svg"
   xmlns="http://www.w3.org/2000/svg"
   xmlns:sodipodi="http://sodipodi.sourceforge.net/DTD/sodipodi-0.dtd"
   xmlns:inkscape="http://www.inkscape.org/namespaces/inkscape"
   width="14.111052mm"
   height="13.076192mm"
   viewBox="0 0 49.999789 46.332963"
   id="svg2"
   version="1.1"
   inkscape:version="0.91 r13725"
   sodipodi:docname="icono-handshake.svg">
  <defs
     id="defs4" />
  <sodipodi:namedview
     id="base"
     pagecolor="#818181"
     bordercolor="#666666"
     borderopacity="1.0"
     inkscape:pageopacity="0"
     inkscape:pageshadow="2"
     inkscape:zoom="11.143154"
     inkscape:cx="16.51238"
     inkscape:cy="27.909512"
     inkscape:document-units="px"
     inkscape:current-layer="layer1"
     showgrid="false"
     fit-margin-top="0"
     fit-margin-left="0"
     fit-margin-right="0"
     fit-margin-bottom="0"
     inkscape:window-width="1920"
     inkscape:window-height="1030"
     inkscape:window-x="0"
     inkscape:window-y="0"
     inkscape:window-maximized="1" />
  <metadata
     id="metadata7">
    <rdf:RDF>
      <cc:Work
         rdf:about="">
        <dc:format>image/svg+xml</dc:format>
        <dc:type
           rdf:resource="http://purl.org/dc/dcmitype/StillImage" />
        <dc:title></dc:title>
      </cc:Work>
    </rdf:RDF>
  </metadata>
  <g
     inkscape:label="Capa 1"
     inkscape:groupmode="layer"
     id="layer1"
     transform="translate(-258.06632,-355.38146)">
    <path
       style="fill:#ffffff"
       d="m 282.90726,395.79907 c -0.23071,-0.0831 -0.44002,-0.15184 -0.46512,-0.1527 -0.0251,-8.4e-4 -0.86192,-0.81305 -1.8596,-1.80484 l -1.81395,-1.80324 -0.86706,0.8444 c -1.00835,0.98198 -1.36001,1.18903 -2.01962,1.18903 -1.33044,0 -2.37936,-1.43476 -1.91434,-2.61855 l 0.15771,-0.40149 -0.3775,0.15772 c -1.22047,0.50995 -2.71184,-0.64062 -2.61081,-2.01422 0.0212,-0.28839 0.0779,-0.61243 0.12618,-0.72008 0.0774,-0.17278 0.062,-0.182 -0.13113,-0.0786 -0.12032,0.0645 -0.46961,0.11629 -0.77622,0.11535 -0.96242,-0.003 -1.71335,-0.60616 -1.97795,-1.58882 -0.10276,-0.38187 -0.0588,-0.72784 0.16166,-1.26671 0.0693,-0.16941 0.0525,-0.17141 -0.22458,-0.0269 -0.58671,0.306 -1.55204,0.12478 -2.12087,-0.39813 -0.56942,-0.52348 -0.79348,-1.51571 -0.49693,-2.20067 0.0803,-0.18561 0.52865,-0.71387 0.99622,-1.17392 l 0.85012,-0.83646 -2.72659,-2.73372 c -2.4462,-2.45259 -2.72661,-2.76881 -2.72661,-3.07477 0,-0.45717 0.3987,-0.85588 0.85586,-0.85588 0.30599,0 0.6224,0.28061 3.07735,2.72916 l 2.7363,2.72916 0.34487,-0.17203 c 0.46935,-0.23415 1.338,-0.15825 1.77846,0.15537 0.18229,0.12982 0.46113,0.40594 0.61962,0.6136 0.247,0.32365 0.2881,0.47609 0.28769,1.06762 -2.1e-4,0.37953 -0.0407,0.77242 -0.0898,0.87309 -0.0827,0.1698 -0.0676,0.17174 0.21021,0.0269 0.90932,-0.47426 2.34426,0.27576 2.65273,1.38653 0.13901,0.50056 0.13463,0.61913 -0.041,1.11148 -0.13032,0.36541 -0.1276,0.39319 0.0308,0.31508 0.0956,-0.0471 0.48799,-0.0858 0.87209,-0.086 0.62438,-4.2e-4 0.74101,0.0339 1.10114,0.32413 0.79103,0.63742 1.09245,1.6244 0.7175,2.34945 l -0.15721,0.30402 0.36359,-0.15192 c 0.19998,-0.0835 0.50821,-0.15192 0.68495,-0.15192 0.67659,0 1.51148,0.53674 1.85333,1.19146 0.18398,0.35236 0.21549,1.3016 0.0533,1.6047 -0.10078,0.18839 0.0732,0.39676 1.59285,1.90626 1.6008,1.5902 1.73051,1.69475 2.10261,1.69475 0.31117,0 0.47336,-0.0768 0.75313,-0.35657 0.32643,-0.32642 0.41827,-0.58352 0.35962,-1.00675 -0.012,-0.0865 -0.70186,-0.84799 -1.53305,-1.69213 -1.34867,-1.36967 -1.51092,-1.57277 -1.50794,-1.88768 0.006,-0.58282 0.50338,-1.00817 1.02893,-0.87906 0.1633,0.04 0.9113,0.69493 1.80714,1.58198 1.59531,1.57971 1.72117,1.65521 2.27854,1.36698 0.42365,-0.21909 0.65181,-0.51748 0.72082,-0.9427 0.0607,-0.37475 0.0361,-0.40729 -1.46489,-1.92998 -0.86561,-0.87812 -1.55651,-1.66747 -1.5955,-1.82283 -0.0789,-0.31454 0.16339,-0.86524 0.42491,-0.96559 0.0934,-0.0358 0.31574,-0.0651 0.49416,-0.0651 0.2772,0 0.54731,0.22116 1.85723,1.52064 1.43453,1.42309 1.5585,1.52065 1.93227,1.52065 0.56691,0 1.11253,-0.54562 1.11253,-1.11253 0,-0.37377 -0.0975,-0.49774 -1.52065,-1.93227 -1.29948,-1.30993 -1.52064,-1.58003 -1.52064,-1.85726 0,-0.1784 0.0293,-0.40077 0.0651,-0.49414 0.10036,-0.26151 0.65105,-0.50385 0.96559,-0.4249 0.15537,0.039 0.94472,0.72989 1.82283,1.5955 1.5253,1.50356 1.55462,1.52579 1.93202,1.46455 0.63679,-0.10338 1.18809,-0.81372 1.05011,-1.35314 -0.0335,-0.13089 -2.67078,-2.84536 -5.86068,-6.03215 -6.2325,-6.22643 -5.972,-6.00646 -6.67998,-5.64034 -0.52072,0.26925 -1.12081,1.07268 -2.01049,2.69169 -0.91497,1.66501 -1.27363,2.08043 -2.18325,2.52867 -0.38576,0.1901 -0.65461,0.23597 -1.37126,0.23395 -0.76275,-0.002 -0.96991,-0.0435 -1.43542,-0.28683 -0.6945,-0.363 -1.25339,-0.93317 -1.56662,-1.59835 -0.45558,-0.96743 -0.44403,-1.00887 1.66488,-5.97733 1.90069,-4.4779 1.91809,-4.51322 2.50986,-5.09649 0.69971,-0.68964 1.82381,-1.27955 2.79344,-1.46595 1.25162,-0.24059 2.08842,-0.0978 5.26318,0.89891 1.58585,0.4978 3.56763,1.11891 4.40399,1.38024 l 1.52063,0.47515 4.11177,4.09998 c 2.26147,2.25499 4.16668,4.23256 4.2338,4.3946 0.0925,0.22332 0.0927,0.36549 7.3e-4,0.58746 -0.0667,0.16106 -1.36782,1.53871 -2.89136,3.06143 l -2.77005,2.76856 0.78988,0.82676 c 0.94486,0.98898 1.18656,1.46612 1.18971,2.3486 0.004,1.28959 -0.93523,2.49154 -2.17923,2.78705 -0.51858,0.12318 -0.52447,0.12927 -0.68502,0.70673 -0.30155,1.08457 -1.14035,1.89079 -2.20307,2.11744 -0.42066,0.0898 -0.44612,0.11746 -0.56424,0.61473 -0.24862,1.04665 -1.23151,1.99062 -2.24828,2.15927 -0.34163,0.0567 -0.3916,0.10563 -0.45451,0.44503 -0.18853,1.01725 -1.05839,1.96618 -2.08063,2.26975 -0.64986,0.19299 -1.04711,0.19206 -1.5905,-0.003 z m 16.09779,-21.85984 c -0.57145,-0.30765 -7.61459,-7.42562 -7.80812,-7.89106 -0.39635,-0.95325 -0.14071,-1.4449 1.68696,-3.24426 1.1868,-1.16844 1.53666,-1.45384 1.90164,-1.55132 0.98051,-0.2619 0.85538,-0.35761 5.18267,3.96469 3.45531,3.45132 3.96094,3.99688 4.02302,4.34072 0.15626,0.86544 0.0398,1.06314 -1.61309,2.73864 -0.84581,0.85736 -1.68969,1.62424 -1.8753,1.70415 -0.4627,0.19927 -1.05887,0.17476 -1.49778,-0.0616 z m 1.41117,-1.78344 c 1.06274,-0.51447 1.09541,-1.96953 0.057,-2.53964 -0.95655,-0.52517 -2.193,0.32359 -2.05993,1.41403 0.0673,0.55141 0.32296,0.89698 0.83587,1.12987 0.55107,0.25019 0.64207,0.24986 1.16702,-0.004 z"
       id="path4255"
       inkscape:connector-curvature="0" />
  </g>
</svg>
