<?xml version="1.0" encoding="UTF-8" standalone="no"?>
<!-- Created with Inkscape (http://www.inkscape.org/) -->

<svg
   xmlns:dc="http://purl.org/dc/elements/1.1/"
   xmlns:cc="http://creativecommons.org/ns#"
   xmlns:rdf="http://www.w3.org/1999/02/22-rdf-syntax-ns#"
   xmlns:svg="http://www.w3.org/2000/svg"
   xmlns="http://www.w3.org/2000/svg"
   xmlns:sodipodi="http://sodipodi.sourceforge.net/DTD/sodipodi-0.dtd"
   xmlns:inkscape="http://www.inkscape.org/namespaces/inkscape"
   id="svg2"
   version="1.1"
   inkscape:version="0.91 r13725"
   xml:space="preserve"
   width="700"
   height="131.4678"
   viewBox="0 0 700 131.46781"
   sodipodi:docname="logo_white.svg"><metadata
     id="metadata8"><rdf:RDF><cc:Work
         rdf:about=""><dc:format>image/svg+xml</dc:format><dc:type
           rdf:resource="http://purl.org/dc/dcmitype/StillImage" /><dc:title></dc:title></cc:Work></rdf:RDF></metadata><defs
     id="defs6"><clipPath
       clipPathUnits="userSpaceOnUse"
       id="clipPath16"><path
         d="m 0,155.603 612.283,0 L 612.283,0 0,0 0,155.603 Z"
         id="path18"
         inkscape:connector-curvature="0" /></clipPath></defs><sodipodi:namedview
     pagecolor="#ff0000"
     bordercolor="#666666"
     borderopacity="1"
     objecttolerance="10"
     gridtolerance="10"
     guidetolerance="10"
     inkscape:pageopacity="0"
     inkscape:pageshadow="2"
     inkscape:window-width="1920"
     inkscape:window-height="1030"
     id="namedview4"
     showgrid="false"
     fit-margin-top="0"
     fit-margin-left="0"
     fit-margin-right="0"
     fit-margin-bottom="0"
     inkscape:zoom="1.4142136"
     inkscape:cx="398.31526"
     inkscape:cy="0.45510521"
     inkscape:window-x="0"
     inkscape:window-y="0"
     inkscape:window-maximized="1"
     inkscape:current-layer="g10" /><g
     id="g10"
     inkscape:groupmode="layer"
     inkscape:label="Mantproca, C.A. 00 (Logo)"
     transform="matrix(1.25,0,0,-1.25,-84.114336,178.27368)"><path
       inkscape:connector-curvature="0"
       id="path22"
       style="fill:#ffffff;fill-opacity:1;fill-rule:nonzero;stroke:none"
       d="m 373.79829,70.619609 -199.90358,0 c -3.20385,0 -5.87431,1.141804 -7.52488,3.217917 -1.50287,1.882686 -1.29069,3.688003 -0.67641,6.352602 l 7.08294,34.526082 c 1.42198,6.18497 8.06765,11.21641 14.81296,11.21641 l 165.68229,0 0.81825,4.20263 -166.50054,0 c -8.59283,0 -17.07312,-6.49327 -18.91127,-14.47652 l -7.08293,-34.524914 c -0.90501,-3.938872 -0.82998,-7.009081 1.4841,-9.916343 2.43014,-3.053797 6.37137,-4.802844 10.81549,-4.802844 l 199.08884,0 0.81474,4.20498 z" /><path
       inkscape:connector-curvature="0"
       id="path26"
       style="fill:#ffffff;fill-opacity:1;fill-rule:nonzero;stroke:none"
       d="m 624.74013,125.33346 c -2.43247,3.05262 -6.37253,4.80285 -10.81547,4.80285 l -236.97469,0 -0.81591,-4.20499 237.7906,0 c 3.2015,0 5.87197,-1.14063 7.52253,-3.21674 1.50405,-1.88503 1.98937,-4.3902 1.36571,-7.10638 l -7.8836,-38.573976 c -1.05857,-4.61645 -5.18149,-6.414733 -14.69926,-6.414733 l -203.57165,0 -0.81707,-4.204978 204.38872,0 c 5.37844,0 16.57257,0 18.81046,9.727605 l 7.88125,38.573982 c 0.90735,3.93886 0.1313,7.7101 -2.18162,10.61736" /><path
       inkscape:connector-curvature="0"
       id="path30"
       style="fill:#ffffff;fill-opacity:1;fill-rule:nonzero;stroke:none"
       d="m 223.49189,75.860534 7.80859,36.878856 c 0.12543,0.59552 -0.14303,0.89328 -0.7995,0.89328 l -10.11446,0 c -0.62717,0 -1.00348,-0.29776 -1.12773,-0.89328 l -7.80741,-36.878856 -12.04404,0 7.80858,36.878856 c 0.12661,0.59552 -0.1395,0.89328 -0.79949,0.89328 l -10.11212,0 c -0.62951,0 -1.00465,-0.29776 -1.12891,-0.89328 l -7.80858,-36.878856 -12.04521,0 7.99732,37.772136 c 0.37631,1.84986 1.81821,3.4172 4.32924,4.7032 2.2883,1.09843 4.62349,1.64823 7.00674,1.64823 l 40.17414,0 c 1.22386,0.0293 2.4067,-0.10317 3.55084,-0.39858 1.14416,-0.29893 2.13356,-0.73033 2.96353,-1.2942 0.83232,-0.56504 1.4595,-1.24848 1.88152,-2.0468 0.42437,-0.80067 0.52401,-1.6705 0.3048,-2.61185 l -7.99614,-37.772136 -12.04171,0 z" /><path
       inkscape:connector-curvature="0"
       id="path34"
       style="fill:#ffffff;fill-opacity:1;fill-rule:nonzero;stroke:none"
       d="m 278.10494,101.59238 -17.1212,0 c -0.65883,0 -1.05036,-0.29893 -1.17698,-0.89445 l -3.76185,-17.593623 c -0.15825,-0.533389 0.10672,-0.799497 0.79832,-0.799497 l 17.12237,0 4.13934,19.28757 z m -25.5886,-25.731611 c -2.54151,0 -4.67506,0.579108 -6.3995,1.742013 -1.91082,1.220346 -2.67866,2.788861 -2.3047,4.702028 l 4.1405,19.28757 c 0.43726,1.88035 1.84869,3.45003 4.23429,4.70203 2.35043,1.09726 4.73485,1.64823 7.14976,1.64823 l 20.13161,0 0.98824,4.79698 c 0.12543,0.59553 -0.14068,0.89329 -0.7995,0.89329 l -27.1407,0 1.31647,6.35026 30.1523,0 c 1.15938,0 2.31877,-0.14772 3.47933,-0.44547 1.16291,-0.30011 2.16638,-0.72213 3.01394,-1.27194 0.84404,-0.54862 1.48763,-1.21565 1.92723,-1.99756 0.43727,-0.78543 0.53457,-1.66347 0.28252,-2.63529 l -7.99965,-37.772141 -32.17214,0 z" /><path
       inkscape:connector-curvature="0"
       id="path38"
       style="fill:#ffffff;fill-opacity:1;fill-rule:nonzero;stroke:none"
       d="m 322.13542,75.860534 7.8074,36.878856 c 0.12662,0.59552 -0.14067,0.89328 -0.79832,0.89328 l -16.18103,0 c -0.62951,0 -1.00699,-0.29776 -1.13008,-0.89328 l -7.80975,-36.878856 -12.04404,0 7.99967,37.772136 c 0.37396,1.84986 1.81704,3.4172 4.32572,4.7032 2.28947,1.09843 4.62583,1.64823 7.01142,1.64823 l 22.20188,0 c 1.15821,0 2.31291,-0.14888 3.45589,-0.44664 1.14767,-0.30011 2.14176,-0.72096 2.98932,-1.27193 0.84639,-0.54863 1.48762,-1.21566 1.92841,-1.99757 0.43843,-0.78543 0.53104,-1.66347 0.28369,-2.63529 l -7.99849,-37.772136 -12.04169,0 z" /><path
       inkscape:connector-curvature="0"
       id="path42"
       style="fill:#ffffff;fill-opacity:1;fill-rule:nonzero;stroke:none"
       d="m 375.83267,75.860534 -16.67925,0 c -2.53799,0 -4.67272,0.579108 -6.39715,1.742014 -1.97529,1.220347 -2.77362,2.788861 -2.39849,4.7032 l 6.67967,31.326922 -10.01716,0 1.31413,6.35143 10.02068,0 4.32572,20.13279 12.04521,0 -4.32806,-20.13279 15.05093,0 -1.36453,-6.35143 -15.00523,0 -6.4921,-30.528598 c -0.15592,-0.532216 0.14184,-0.798324 0.89562,-0.798324 l 13.97127,0 -1.62126,-6.445214 z" /><path
       inkscape:connector-curvature="0"
       id="path46"
       style="fill:#ffffff;fill-opacity:1;fill-rule:nonzero;stroke:none"
       d="m 418.89461,112.73939 c 0.12427,0.59552 -0.14068,0.89445 -0.7995,0.89445 l -17.12236,0 -6.6785,-31.328092 17.17043,0 c 0.62483,0 1.01754,0.266108 1.17462,0.798324 l 6.25531,29.635318 z m 4.11706,-33.092381 c -0.76902,-0.799497 -1.67636,-1.480594 -2.73025,-2.044461 -1.05037,-0.566213 -2.20272,-0.998786 -3.45706,-1.294201 -1.25318,-0.300104 -2.4911,-0.447813 -3.71614,-0.447813 l -20.13396,0 -3.38438,-15.99463 -12.04287,0 12.70052,60.118196 32.22372,0 c 1.15704,0 2.31174,-0.15006 3.45588,-0.44664 1.1465,-0.30011 2.14177,-0.72096 2.98698,-1.27193 0.8464,-0.54863 1.48763,-1.21566 1.92841,-1.99757 0.43843,-0.78543 0.53222,-1.66347 0.28486,-2.63412 l -6.63277,-31.328092 c -0.22391,-0.974168 -0.7151,-1.859242 -1.48294,-2.658739" /><path
       inkscape:connector-curvature="0"
       id="path50"
       style="fill:#ffffff;fill-opacity:1;fill-rule:nonzero;stroke:none"
       d="m 460.33775,107.941 1.13008,5.69143 -12.04286,0 c -0.62835,0 -1.00582,-0.29776 -1.12774,-0.89327 l -7.81326,-36.878859 -12.04053,0 7.99967,37.772129 c 0.37396,1.85104 1.81586,3.41838 4.32689,4.70555 2.28713,1.09726 4.62231,1.64589 7.0079,1.64589 l 27.09382,0 -2.49227,-12.04287 -12.0417,0 z" /><path
       inkscape:connector-curvature="0"
       id="path54"
       style="fill:#ffffff;fill-opacity:1;fill-rule:nonzero;stroke:none"
       d="m 507.75344,112.73939 c 0.12308,0.59552 -0.14185,0.89445 -0.7995,0.89445 l -16.1822,0 c -0.62717,0 -1.00347,-0.29893 -1.13008,-0.89445 l -6.25531,-29.635318 c -0.15473,-0.532216 0.0962,-0.798324 0.75261,-0.798324 l 16.18103,0 c 0.62717,0 1.01989,0.266108 1.17697,0.798324 l 6.25648,29.635318 z m 4.13933,-33.092381 c -0.75261,-0.799497 -1.6623,-1.480594 -2.7279,-2.044461 -1.06443,-0.566213 -2.23203,-0.998786 -3.50513,-1.294201 -1.26841,-0.300104 -2.49931,-0.447813 -3.69387,-0.447813 l -22.1538,0 c -2.51103,0 -4.62465,0.579108 -6.35144,1.742014 -1.94598,1.220347 -2.7279,2.788861 -2.34925,4.7032 l 6.67616,31.328092 c 0.37747,1.84869 1.82172,3.41603 4.33158,4.70437 2.28712,1.09609 4.62349,1.64589 7.00674,1.64589 l 22.15849,0 c 1.15704,0 2.31644,-0.15006 3.47817,-0.44664 1.15938,-0.30011 2.16638,-0.72096 3.00925,-1.27193 0.8499,-0.54863 1.4888,-1.21566 1.93075,-1.99757 0.43843,-0.78543 0.53339,-1.66347 0.28252,-2.63412 l -6.68085,-31.328092 c -0.18873,-0.974168 -0.65764,-1.859242 -1.41142,-2.658739" /><path
       inkscape:connector-curvature="0"
       id="path58"
       style="fill:#ffffff;fill-opacity:1;fill-rule:nonzero;stroke:none"
       d="m 529.25182,75.860534 c -2.5122,0 -4.62583,0.579108 -6.35261,1.742014 -1.94481,1.220347 -2.72672,2.788861 -2.35159,4.7032 l 6.67967,31.326922 c 0.37747,1.84986 1.81938,3.4172 4.32924,4.7032 2.28946,1.09843 4.62348,1.64823 7.00791,1.64823 l 27.09497,0 -1.36454,-6.35143 -24.08455,0 c -0.62834,0 -1.00348,-0.29776 -1.12891,-0.89328 l -6.25413,-29.635318 c -0.15708,-0.532216 0.0938,-0.798324 0.75143,-0.798324 l 24.08338,0 -1.36453,-6.445214 -27.04574,0 z" /><path
       inkscape:connector-curvature="0"
       id="path62"
       style="fill:#ffffff;fill-opacity:1;fill-rule:nonzero;stroke:none"
       d="m 598.30316,101.59238 -17.12119,0 c -0.65765,0 -1.0492,-0.29893 -1.17346,-0.89445 l -3.76654,-17.593623 c -0.15592,-0.533389 0.11019,-0.799497 0.80067,-0.799497 l 17.12237,0 4.13815,19.28757 z M 572.71573,75.860769 c -2.53915,0 -4.67154,0.579108 -6.39714,1.742013 -1.91317,1.220346 -2.68219,2.788861 -2.30353,4.702028 l 4.13581,19.28757 c 0.44195,1.88035 1.8522,3.45003 4.23428,4.70203 2.35395,1.09726 4.7372,1.64823 7.15211,1.64823 l 20.13278,0 0.98707,4.79698 c 0.12543,0.59553 -0.14068,0.89329 -0.7995,0.89329 l -27.14188,0 1.31765,6.35026 30.15347,0 c 1.16056,0 2.31878,-0.14772 3.48051,-0.44547 1.15822,-0.30011 2.16403,-0.72213 3.01042,-1.27194 0.84639,-0.54862 1.48763,-1.21565 1.9284,-1.99756 0.43844,-0.78543 0.53223,-1.66347 0.28253,-2.63529 l -7.99849,-37.772141 -32.17449,0 z" /><path
       inkscape:connector-curvature="0"
       id="path66"
       style="fill:#ffffff;fill-opacity:1;fill-rule:nonzero;stroke:none"
       d="m 87.68337,77.807931 c -5.567173,2.223822 -9.978474,3.540295 -9.978474,3.540295 10.433319,13.326514 29.196884,24.163094 29.196884,24.163094 -6.03023,2.26838 -17.897247,4.62584 -17.897247,4.62584 11.430937,12.75913 27.148907,23.29677 37.016007,29.24729 -8.61393,3.55905 -18.44469,4.34448 -28.089071,1.53568 C 75.384948,134.353 62.431219,110.75377 68.999522,88.204911 71.225688,80.562796 75.44239,74.057797 80.878267,69.005258 c 2.411385,5.4687 6.805103,8.802673 6.805103,8.802673" /><path
       inkscape:connector-curvature="0"
       id="path70"
       style="fill:#ffffff;fill-opacity:1;fill-rule:nonzero;stroke:none"
       d="m 170.41748,141.24169 c 0,0 -14.63712,-1.3364 -33.12168,-8.76399 -14.4437,-5.80397 -32.38198,-18.60061 -32.38198,-18.60061 6.20255,-1.32702 23.23231,-9.1145 23.23231,-9.1145 -15.55502,-3.41369 -38.35945,-20.341458 -38.35945,-20.341458 2.126522,-1.168766 10.88699,-6.671463 10.88699,-6.671463 -5.039641,-2.378563 -9.717051,-5.741843 -13.869278,-9.293861 l -0.03282,0.0094 C 71.911707,56.510244 68.841498,42.868385 68.841498,42.868385 c 6.644501,8.480297 15.744935,15.525718 21.456298,19.510308 9.352474,-4.859114 20.498544,-6.282266 31.412494,-3.103034 22.54887,6.564786 35.50025,30.166362 28.93429,52.710531 -1.07146,3.67981 -2.62239,7.07708 -4.52735,10.20005 2.25078,3.74544 13.57152,13.35229 24.30025,19.05545" /><path
       inkscape:connector-curvature="0"
       id="path74"
       style="fill:#ffffff;fill-opacity:1;fill-rule:evenodd;stroke:none"
       d="m 201.96034,54.669056 2.53799,0 c -0.18873,-1.501695 -0.5158,-2.870922 -0.84873,-4.231942 0.74322,-0.389198 2.20272,-0.06095 3.22027,-0.167636 -0.0902,-0.47712 -0.24854,-0.880385 -0.33997,-1.355159 l -3.04442,0 c -0.71627,-1.938957 -0.94369,-4.363238 -1.52514,-6.427629 0.71509,-0.36458 2.06322,-0.08441 3.04911,-0.17467 -0.20046,-1.90965 -4.50508,-1.695121 -5.58593,-0.678752 0.12661,2.697424 0.91672,4.726645 1.35281,7.112242 -0.34582,0.38568 -1.40674,0.05979 -2.03156,0.168809 -0.13012,0.638894 0.20632,0.808874 0.16998,1.355159 l 2.03391,0 c 0.49822,1.302406 0.70806,2.897883 1.01168,4.399578" /><path
       inkscape:connector-curvature="0"
       id="path78"
       style="fill:#ffffff;fill-opacity:1;fill-rule:evenodd;stroke:none"
       d="m 274.75408,54.669056 2.54034,0 c -0.19226,-1.501695 -0.5205,-2.870922 -0.84405,-4.231942 0.73385,-0.389198 2.19451,-0.06095 3.2144,-0.167636 -0.095,-0.47712 -0.24852,-0.880385 -0.34113,-1.355159 l -3.04793,0 c -0.71393,-1.938957 -0.93901,-4.363238 -1.52163,-6.427629 0.71392,-0.36458 2.06087,-0.08441 3.04911,-0.17467 -0.20163,-1.90965 -4.50392,-1.695121 -5.58711,-0.678752 0.12544,2.697424 0.91556,4.726645 1.35517,7.112242 -0.34934,0.38568 -1.40909,0.05979 -2.03508,0.168809 -0.12895,0.638894 0.20749,0.808874 0.17114,1.355159 l 2.03275,0 c 0.50056,1.302406 0.70923,2.897883 1.01402,4.399578" /><path
       inkscape:connector-curvature="0"
       id="path82"
       style="fill:#ffffff;fill-opacity:1;fill-rule:evenodd;stroke:none"
       d="m 365.48926,54.669056 2.54151,0 c -0.19108,-1.501695 -0.51698,-2.870922 -0.84521,-4.231942 0.7315,-0.389198 2.19686,-0.06095 3.2144,-0.167636 -0.0938,-0.47712 -0.24852,-0.880385 -0.33997,-1.355159 l -3.04207,0 c -0.71744,-1.938957 -0.94369,-4.363238 -1.52866,-6.427629 0.71158,-0.36458 2.06322,-0.08441 3.05145,-0.17467 -0.20515,-1.90965 -4.50743,-1.695121 -5.58944,-0.678752 0.12777,2.697424 0.91789,4.726645 1.35515,7.112242 -0.34582,0.38568 -1.40439,0.05979 -2.03273,0.168809 -0.12895,0.638894 0.20632,0.808874 0.16881,1.355159 l 2.03157,0 c 0.50642,1.302406 0.7104,2.897883 1.01519,4.399578" /><path
       inkscape:connector-curvature="0"
       id="path86"
       style="fill:#ffffff;fill-opacity:1;fill-rule:evenodd;stroke:none"
       d="m 484.40847,55.677571 2.4618,0 c -0.18522,-1.455975 -0.49705,-2.784172 -0.81591,-4.104163 0.71157,-0.376303 2.12769,-0.05862 3.11592,-0.162948 -0.0844,-0.461879 -0.23914,-0.856938 -0.32941,-1.315301 l -2.95415,0 c -0.69399,-1.877997 -0.91438,-4.229598 -1.47825,-6.230685 0.69165,-0.354029 2.00109,-0.08441 2.9565,-0.169981 -0.19695,-1.849862 -4.36675,-1.642368 -5.41594,-0.656478 0.12191,2.611846 0.88975,4.583627 1.31412,6.897713 -0.33527,0.372786 -1.36453,0.0551 -1.96827,0.159431 -0.13246,0.622482 0.1993,0.787774 0.15944,1.315301 l 1.97061,0 c 0.48766,1.261377 0.69047,2.811136 0.98354,4.267111" /><path
       inkscape:connector-curvature="0"
       id="path90"
       style="fill:#ffffff;fill-opacity:1;fill-rule:evenodd;stroke:none"
       d="m 543.34431,50.09551 c -0.69869,-1.867447 -0.93548,-4.209668 -1.47474,-6.230684 0.94603,-0.366924 2.55323,-0.07737 3.77475,-0.169981 0.28604,2.283607 0.84874,4.295245 1.31295,6.400665 l -3.61296,0 z m 7.22477,5.582413 c -0.87921,-4.481639 -1.86393,-8.862461 -2.79003,-13.299552 -2.73024,0.283693 -6.67381,-0.651789 -8.37713,0.659996 -0.16061,1.142975 0.37278,2.434831 0.66351,3.777095 0.26844,1.266067 0.21687,2.964705 0.81942,3.771235 1.1676,1.580238 3.69973,0.485325 6.23655,0.824116 0.44781,1.305923 0.63186,2.869749 0.98589,4.26711 l 2.46179,0 z" /><path
       inkscape:connector-curvature="0"
       id="path94"
       style="fill:#ffffff;fill-opacity:1;fill-rule:evenodd;stroke:none"
       d="m 573.71265,55.677571 2.46765,0 c -0.18756,-1.455975 -0.50525,-2.784172 -0.82059,-4.104163 0.70806,-0.376303 2.13472,-0.05862 3.11827,-0.162948 -0.0879,-0.461879 -0.24735,-0.856938 -0.33059,-1.315301 l -2.95298,0 c -0.69399,-1.877997 -0.91555,-4.229598 -1.48176,-6.230685 0.69399,-0.354029 1.99991,-0.08441 2.95884,-0.169981 -0.19578,-1.849862 -4.37027,-1.642368 -5.42181,-0.656478 0.12778,2.611846 0.89328,4.583627 1.31413,6.897713 -0.33528,0.372786 -1.36336,0.0551 -1.96943,0.159431 -0.12309,0.622482 0.20163,0.787774 0.16411,1.315301 l 1.97178,0 c 0.49001,1.261377 0.68931,2.811136 0.98238,4.267111" /><path
       inkscape:connector-curvature="0"
       id="path98"
       style="fill:#ffffff;fill-opacity:1;fill-rule:evenodd;stroke:none"
       d="m 605.56123,55.677571 c -0.92962,-4.434747 -1.90496,-8.814397 -2.79003,-13.299552 l -2.46062,0 c 0.82177,4.542597 1.80766,8.917557 2.78886,13.299552 l 2.46179,0 z" /><path
       inkscape:connector-curvature="0"
       id="path102"
       style="fill:#ffffff;fill-opacity:1;fill-rule:evenodd;stroke:none"
       d="m 229.46327,53.326791 2.46297,0 c -0.20867,-0.610758 -0.2579,-1.384465 -0.49236,-1.969435 l -2.46648,0 c 0.19811,0.627171 0.22156,1.420808 0.49587,1.969435" /><path
       inkscape:connector-curvature="0"
       id="path106"
       style="fill:#ffffff;fill-opacity:1;fill-rule:evenodd;stroke:none"
       d="m 248.03201,53.326791 2.46179,0 c -0.20866,-0.610758 -0.2579,-1.384465 -0.49118,-1.969435 l -2.46414,0 c 0.19576,0.627171 0.21687,1.420808 0.49353,1.969435" /><path
       inkscape:connector-curvature="0"
       id="path110"
       style="fill:#ffffff;fill-opacity:1;fill-rule:evenodd;stroke:none"
       d="m 454.53248,54.857911 2.46297,0 c -0.20984,-0.61076 -0.25555,-1.387984 -0.49236,-1.969436 l -2.46296,0 c 0.19694,0.627172 0.21921,1.42198 0.49235,1.969436" /><path
       inkscape:connector-curvature="0"
       id="path114"
       style="fill:#ffffff;fill-opacity:1;fill-rule:evenodd;stroke:none"
       d="m 468.81394,54.857911 2.46531,0 c -0.21335,-0.61076 -0.26025,-1.387984 -0.49822,-1.969436 l -2.45945,0 c 0.19577,0.627172 0.21804,1.42198 0.49236,1.969436" /><path
       inkscape:connector-curvature="0"
       id="path118"
       style="fill:#ffffff;fill-opacity:1;fill-rule:evenodd;stroke:none"
       d="m 527.91917,54.857911 2.45711,0 c -0.21101,-0.61076 -0.26025,-1.387984 -0.49353,-1.969436 l -2.46181,0 c 0.19695,0.627172 0.21805,1.42198 0.49823,1.969436" /><path
       inkscape:connector-curvature="0"
       id="path122"
       style="fill:#ffffff;fill-opacity:1;fill-rule:evenodd;stroke:none"
       d="m 588.8195,54.857911 2.45946,0 c -0.21101,-0.61076 -0.2579,-1.387984 -0.48885,-1.969436 l -2.46648,0 c 0.19578,0.627172 0.22156,1.42198 0.49587,1.969436" /><path
       inkscape:connector-curvature="0"
       id="path126"
       style="fill:#ffffff;fill-opacity:1;fill-rule:evenodd;stroke:none"
       d="m 176.56739,49.588967 c -0.24969,-3.185093 -1.09843,-5.784044 -1.68925,-8.632693 l -2.54269,0 c 0.58732,2.573162 1.10781,5.214316 1.69513,7.789822 -0.45837,0.332928 -1.48294,0.101984 -2.20038,0.167636 -1.20511,-2.127693 -1.27427,-5.384296 -2.03273,-7.957458 l -2.54152,0 c 0.52871,2.637638 1.03748,5.282308 1.69512,7.789822 -0.50525,0.337617 -1.59665,0.09613 -2.37152,0.167636 -0.92493,-2.345738 -1.24965,-5.291686 -1.86158,-7.957458 l -2.538,0 c 0.22273,1.489972 0.51112,2.879128 0.84756,4.404268 0.43492,1.99757 0.37865,4.483983 2.53682,4.908349 1.51225,0.291899 3.84157,0 5.92354,0 1.97882,0 4.15575,0.317689 5.0795,-0.679924" /><path
       inkscape:connector-curvature="0"
       id="path130"
       style="fill:#ffffff;fill-opacity:1;fill-rule:evenodd;stroke:none"
       d="m 180.29151,46.373746 c -0.44429,-1.098429 -0.92259,-2.995184 -0.84756,-4.061961 l 3.72551,0 c 0.18406,1.454804 0.52518,2.750176 0.84873,4.061961 l -3.72668,0 z m 6.7711,3.215573 c -0.2872,-3.151097 -1.12538,-5.754738 -1.68926,-8.633866 -2.82754,0.281349 -6.86489,-0.654134 -8.6362,0.678753 0.49704,2.039773 0.0679,3.965833 1.01871,5.245966 1.26372,1.716223 4.16863,0.300104 6.59995,1.015198 0.0129,0.266108 -0.0832,0.6471 0.16998,0.677579 -1.32702,0.761985 -4.0432,0.137157 -5.92823,0.341135 0.0153,0.552145 0.0902,1.03747 0.34113,1.355159 2.6693,-0.268453 6.49914,0.627172 8.12392,-0.679924" /><path
       inkscape:connector-curvature="0"
       id="path134"
       style="fill:#ffffff;fill-opacity:1;fill-rule:evenodd;stroke:none"
       d="m 197.5597,49.762934 c 0.11489,-2.901401 -1.20862,-5.775839 -1.52513,-8.807363 l -2.54034,0 c 0.33527,2.77245 1.12774,5.080675 1.52514,7.789821 -0.79364,0.392716 -2.31057,0.05979 -3.38555,0.168809 -1.25318,-2.080803 -1.32351,-5.339749 -2.0304,-7.95863 l -2.54033,0 c 0.21101,1.429013 0.50994,2.866233 0.84638,4.40544 0.26963,1.222691 0.30128,3.399621 1.0152,4.228425 1.3704,1.593132 6.45694,0.588486 8.63503,0.173498" /><path
       inkscape:connector-curvature="0"
       id="path138"
       style="fill:#ffffff;fill-opacity:1;fill-rule:evenodd;stroke:none"
       d="m 210.08743,48.914084 c -0.26259,-0.757296 -0.47712,-1.55562 -0.50877,-2.540338 l 3.72551,0 c 0.18874,0.773707 0.39623,1.521624 0.50877,2.371529 -0.92845,0.370441 -2.52509,0.07151 -3.72551,0.168809 m 6.43114,0.506426 c 0.30128,-4.132298 -2.73376,-4.937657 -7.10755,-4.399578 -0.5709,-0.506427 -0.49001,-1.655265 -0.67876,-2.533305 1.52632,-0.513459 4.23195,0.161776 5.7571,-0.344651 0.0516,-0.395059 -0.0281,-0.649445 -0.16999,-0.846388 -1.98936,-0.572074 -6.36784,-0.62131 -8.12626,0.16412 -0.22743,1.303579 0.20397,2.825202 0.50877,4.234286 0.21922,1.022231 0.37512,3.146408 1.01402,3.894325 1.31412,1.533346 7.16382,0.861628 8.80267,-0.168809" /><path
       inkscape:connector-curvature="0"
       id="path142"
       style="fill:#ffffff;fill-opacity:1;fill-rule:evenodd;stroke:none"
       d="m 226.67675,49.762934 c 0.11489,-2.901401 -1.20862,-5.775839 -1.52396,-8.807363 l -2.538,0 c 0.32941,2.77245 1.12305,5.080675 1.52281,7.789821 -0.79482,0.392716 -2.3141,0.05979 -3.38556,0.168809 -1.252,-2.080803 -1.32351,-5.339749 -2.03391,-7.95863 l -2.53682,0 c 0.21101,1.429013 0.50877,2.866233 0.84756,4.40544 0.26728,1.222691 0.29541,3.399621 1.01519,4.228425 1.3704,1.593132 6.45342,0.588486 8.63269,0.173498" /><path
       inkscape:connector-curvature="0"
       id="path146"
       style="fill:#ffffff;fill-opacity:1;fill-rule:evenodd;stroke:none"
       d="m 231.24573,50.269008 c -0.48181,-3.242534 -1.31295,-6.135729 -1.86275,-9.312617 l -2.53565,0 c 0.47829,3.248397 1.33406,6.115801 1.86158,9.312617 l 2.53682,0 z" /><path
       inkscape:connector-curvature="0"
       id="path150"
       style="fill:#ffffff;fill-opacity:1;fill-rule:evenodd;stroke:none"
       d="m 245.29824,49.588967 c -0.25087,-3.185093 -1.09843,-5.784044 -1.69395,-8.632693 l -2.53799,0 c 0.58497,2.573162 1.10898,5.214316 1.69043,7.789822 -0.45837,0.332928 -1.47825,0.101984 -2.19685,0.167636 -1.20043,-2.127693 -1.2778,-5.384296 -2.03392,-7.957458 l -2.53799,0 c 0.52166,2.637638 1.03161,5.282308 1.6916,7.789822 -0.50525,0.337617 -1.59782,0.09613 -2.36801,0.167636 -0.9261,-2.345738 -1.25434,-5.291686 -1.86393,-7.957458 l -2.54033,0 c 0.22625,1.489972 0.51462,2.879128 0.84638,4.404268 0.43844,1.99757 0.38217,4.483983 2.53917,4.908349 1.51576,0.291899 3.84509,0 5.92589,0 1.97764,0 4.1534,0.317689 5.0795,-0.679924" /><path
       inkscape:connector-curvature="0"
       id="path154"
       style="fill:#ffffff;fill-opacity:1;fill-rule:evenodd;stroke:none"
       d="m 249.69887,50.269008 c -0.48298,-3.242534 -1.31295,-6.135729 -1.86275,-9.312617 l -2.538,0 c 0.4783,3.248397 1.33641,6.115801 1.86393,9.312617 l 2.53682,0 z" /><path
       inkscape:connector-curvature="0"
       id="path158"
       style="fill:#ffffff;fill-opacity:1;fill-rule:evenodd;stroke:none"
       d="m 253.59238,48.914084 c -0.2626,-0.757296 -0.47595,-1.55562 -0.50877,-2.540338 l 3.72552,0 c 0.19107,0.773707 0.39623,1.521624 0.50759,2.371529 -0.92727,0.370441 -2.51923,0.07151 -3.72434,0.168809 m 6.43583,0.506426 c 0.29425,-4.132298 -2.73845,-4.937657 -7.11106,-4.399578 -0.57326,-0.506427 -0.4912,-1.655265 -0.67993,-2.533305 1.52631,-0.513459 4.23312,0.161776 5.75943,-0.344651 0.0551,-0.395059 -0.0328,-0.649445 -0.17233,-0.846388 -1.99054,-0.572074 -6.36667,-0.62131 -8.12509,0.16412 -0.22978,1.303579 0.20515,2.825202 0.50642,4.234286 0.22157,1.022231 0.37631,3.146408 1.01754,3.894325 1.31179,1.533346 7.16031,0.861628 8.80502,-0.168809" /><path
       inkscape:connector-curvature="0"
       id="path162"
       style="fill:#ffffff;fill-opacity:1;fill-rule:evenodd;stroke:none"
       d="m 270.35122,49.762934 c 0.11488,-2.901401 -1.2098,-5.775839 -1.52163,-8.807363 l -2.54268,0 c 0.33411,2.77245 1.12774,5.080675 1.5228,7.789821 -0.78895,0.392716 -2.30706,0.05979 -3.38438,0.168809 -1.25082,-2.080803 -1.32234,-5.339749 -2.02805,-7.95863 l -2.54034,0 c 0.21101,1.429013 0.5076,2.866233 0.84405,4.40544 0.26963,1.222691 0.30361,3.399621 1.02105,4.228425 1.36923,1.593132 6.45108,0.588486 8.62918,0.173498" /><path
       inkscape:connector-curvature="0"
       id="path166"
       style="fill:#ffffff;fill-opacity:1;fill-rule:evenodd;stroke:none"
       d="m 282.87883,48.914084 c -0.50526,-2.147623 -1.0621,-4.240148 -1.35165,-6.602299 1.20042,0.0973 2.7959,-0.200461 3.72082,0.175842 0.50526,2.030395 0.93315,4.134643 1.35634,6.257648 -0.92845,0.370441 -2.52159,0.07151 -3.72551,0.168809 m 6.43348,0.506426 c -1.01989,-1.964747 -0.27783,-5.717225 -1.69394,-7.613978 -1.33055,-1.785388 -6.3655,-0.808876 -8.63153,-0.345824 -0.22859,1.303579 0.2028,2.825202 0.50877,4.234286 0.22157,1.022231 0.37396,3.146408 1.01403,3.894325 1.31178,1.533346 7.16265,0.861628 8.80267,-0.168809" /><path
       inkscape:connector-curvature="0"
       id="path170"
       style="fill:#ffffff;fill-opacity:1;fill-rule:evenodd;stroke:none"
       d="m 305.90316,48.914084 c -0.4525,-2.196859 -1.06678,-4.240148 -1.35633,-6.602299 l 3.72435,0 c 0.47008,2.186308 1.0363,4.2718 1.35515,6.602299 l -3.72317,0 z m 6.26469,0.848733 c -0.46658,-1.702156 -0.18757,-7.265811 -2.03275,-8.466229 -1.43604,-0.938998 -3.51919,-0.007 -5.92354,-0.341135 -0.26259,-1.094912 -0.58262,-2.126521 -0.67757,-3.383209 l -2.71268,0 c 0.98356,4.156917 1.86277,8.405271 2.71268,12.696999 2.8252,-0.221562 6.60346,0.507599 8.63386,-0.506426" /><path
       inkscape:connector-curvature="0"
       id="path174"
       style="fill:#ffffff;fill-opacity:1;fill-rule:evenodd;stroke:none"
       d="m 321.47601,50.269008 c -0.13716,-0.875694 -0.44782,-1.586099 -0.5076,-2.53682 l -2.53682,0 c -0.0984,0.545111 0.11137,0.787774 0.16646,1.181661 l -2.71031,0 c -0.62366,-2.590745 -1.218,-5.216659 -1.68692,-7.957458 l -2.54268,0 c 0.13364,1.446598 0.51111,2.833409 0.84522,4.404268 0.28134,1.319991 0.32002,3.416033 1.01636,4.228425 1.48998,1.733808 5.06661,0.100811 7.95629,0.679924" /><path
       inkscape:connector-curvature="0"
       id="path178"
       style="fill:#ffffff;fill-opacity:1;fill-rule:evenodd;stroke:none"
       d="m 324.69182,48.914084 c -0.50291,-2.147623 -1.06209,-4.240148 -1.35399,-6.602299 1.20276,0.0973 2.80059,-0.200461 3.72551,0.175842 0.4994,2.030395 0.93666,4.134643 1.35282,6.257648 -0.92728,0.370441 -2.52275,0.07151 -3.72434,0.168809 m 6.43466,0.506426 c -1.0234,-1.964747 -0.279,-5.717225 -1.6963,-7.613978 -1.32702,-1.785388 -6.369,-0.808876 -8.62918,-0.345824 -0.22741,1.303579 0.20047,2.825202 0.50644,4.234286 0.21922,1.022231 0.37161,3.146408 1.01637,3.894325 1.31177,1.533346 7.16617,0.861628 8.80267,-0.168809" /><path
       inkscape:connector-curvature="0"
       id="path182"
       style="fill:#ffffff;fill-opacity:1;fill-rule:evenodd;stroke:none"
       d="m 332.65279,50.269008 2.70798,0 c -0.63187,-2.532131 -1.12891,-5.196731 -1.69279,-7.781614 0.86985,-0.375132 2.40319,-0.07854 3.55203,-0.175844 0.9812,2.292987 1.29889,5.250657 1.85806,7.957458 l 2.7115,0 c -0.40209,-1.795937 -0.91556,-3.652834 -1.35516,-5.754738 -0.38803,-1.886202 -0.35637,-4.639896 -1.18166,-5.92589 -1.41495,-2.202721 -5.61875,-0.438434 -8.80502,-1.016369 0.0902,0.475946 0.25087,0.876867 0.33996,1.351642 l 5.75357,0 c 0.61896,0.29307 0.29541,1.518106 0.67875,2.032738 -2.06791,0.246181 -5.28114,-0.654134 -6.09353,0.849906 0.0434,2.614191 1.24848,5.512075 1.52631,8.462711" /><path
       inkscape:connector-curvature="0"
       id="path186"
       style="fill:#ffffff;fill-opacity:1;fill-rule:evenodd;stroke:none"
       d="m 345.5159,48.914084 c -0.26259,-0.757296 -0.48064,-1.55562 -0.50759,-2.540338 l 3.72199,0 c 0.18757,0.773707 0.39389,1.521624 0.51111,2.371529 -0.93196,0.370441 -2.52392,0.07151 -3.72551,0.168809 m 6.43114,0.506426 c 0.29777,-4.132298 -2.73376,-4.937657 -7.10755,-4.399578 -0.57207,-0.506427 -0.48884,-1.655265 -0.67992,-2.533305 1.52632,-0.513459 4.23546,0.161776 5.75708,-0.344651 0.0528,-0.395059 -0.0281,-0.649445 -0.17115,-0.846388 -1.98702,-0.572074 -6.36785,-0.62131 -8.12392,0.16412 -0.22625,1.303579 0.20514,2.825202 0.50525,4.234286 0.22274,1.022231 0.37513,3.146408 1.01754,3.894325 1.31414,1.533346 7.16148,0.861628 8.80267,-0.168809" /><path
       inkscape:connector-curvature="0"
       id="path190"
       style="fill:#ffffff;fill-opacity:1;fill-rule:evenodd;stroke:none"
       d="m 361.59693,50.269008 c -0.0879,-0.475946 -0.24852,-0.880384 -0.33996,-1.355159 l -5.07247,0 c -0.85225,-1.802972 -1.08085,-4.228425 -1.52983,-6.426455 1.41026,-0.400922 3.55788,-0.06213 5.25182,-0.175844 -0.23328,-0.337617 -0.16295,-0.967133 -0.33879,-1.355159 -2.46414,0.194599 -5.77114,-0.464224 -7.44985,0.504082 -0.22977,1.304752 0.19577,2.799412 0.5076,4.235459 0.25204,1.173455 0.39036,3.16282 1.01519,3.893152 1.5099,1.758425 5.06779,0.09144 7.95629,0.679924" /><path
       inkscape:connector-curvature="0"
       id="path194"
       style="fill:#ffffff;fill-opacity:1;fill-rule:evenodd;stroke:none"
       d="m 373.614,48.914084 c -0.50174,-2.147623 -1.06325,-4.240148 -1.35047,-6.602299 1.19925,0.0973 2.79239,-0.200461 3.72317,0.175842 0.50409,2.030395 0.93314,4.134643 1.35282,6.257648 -0.92494,0.370441 -2.51806,0.07151 -3.72552,0.168809 m 6.43583,0.506426 c -1.02222,-1.964747 -0.27899,-5.717225 -1.69277,-7.613978 -1.33054,-1.785388 -6.36667,-0.808876 -8.63386,-0.345824 -0.2286,1.303579 0.20163,2.825202 0.50642,4.234286 0.22274,1.022231 0.37396,3.146408 1.01754,3.894325 1.3153,1.533346 7.16265,0.861628 8.80267,-0.168809" /><path
       inkscape:connector-curvature="0"
       id="path198"
       style="fill:#ffffff;fill-opacity:1;fill-rule:evenodd;stroke:none"
       d="m 390.71398,50.269008 c -0.0539,-0.396231 -0.26611,-0.635377 -0.17116,-1.185177 -1.75842,-0.386854 -4.22021,-0.0633 -6.25999,-0.169982 -0.69047,-0.383336 -0.42201,-1.724428 -0.84873,-2.366839 1.76664,-0.548629 5.03496,0.402093 6.09236,-0.851078 0.0609,-1.58141 -0.4396,-2.60364 -0.67172,-3.889635 -1.80063,-1.535691 -6.07829,-0.588486 -9.14498,-0.849906 0.0528,0.398577 0.26962,0.638895 0.17115,1.186351 1.75491,0.384508 4.22726,0.0633 6.26469,0.168808 0.70805,0.418506 0.43842,1.814695 0.84521,2.539166 -1.72795,0.589659 -5.09944,-0.470085 -6.09352,0.845216 -0.041,1.509901 0.42904,2.503997 0.6764,3.724343 1.7936,1.534519 6.07243,0.580281 9.14029,0.848733" /><path
       inkscape:connector-curvature="0"
       id="path202"
       style="fill:#ffffff;fill-opacity:1;fill-rule:evenodd;stroke:none"
       d="m 401.01613,51.41093 2.6259,0 c -0.60958,-2.457106 -1.09373,-5.038473 -1.64236,-7.545987 0.84756,-0.366924 2.33519,-0.07737 3.44651,-0.169981 0.95072,2.222649 1.25786,5.088881 1.80766,7.715968 l 2.62474,0 c -0.3892,-1.742014 -0.88859,-3.544984 -1.31061,-5.580068 -0.38334,-1.829934 -0.35169,-4.499222 -1.15001,-5.747705 -1.37039,-2.134727 -5.45111,-0.424365 -8.54009,-0.9812 0.0903,0.458363 0.24384,0.845216 0.33059,1.308268 l 5.5789,0 c 0.6002,0.279003 0.28721,1.470042 0.65882,1.968264 -2.00343,0.240317 -5.12288,-0.633034 -5.91065,0.825287 0.0399,2.534476 1.21332,5.347954 1.4806,8.207154" /><path
       inkscape:connector-curvature="0"
       id="path206"
       style="fill:#ffffff;fill-opacity:1;fill-rule:evenodd;stroke:none"
       d="m 428.26596,51.41093 c -0.0539,-0.385682 -0.26142,-0.616621 -0.16177,-1.150011 -1.71153,-0.37513 -4.09948,-0.06213 -6.07477,-0.165291 -0.67055,-0.36927 -0.40679,-1.670504 -0.82177,-2.294159 1.71036,-0.531043 4.87903,0.392715 5.9083,-0.827631 0.0586,-1.532174 -0.42906,-2.521581 -0.65531,-3.770062 -1.73966,-1.489972 -5.89072,-0.56973 -8.86715,-0.825287 0.0516,0.386853 0.26259,0.623653 0.1653,1.151181 1.70566,0.375131 4.09947,0.06096 6.07476,0.165292 0.69048,0.406782 0.42789,1.76077 0.82178,2.462967 -1.67402,0.568557 -4.94469,-0.458363 -5.90948,0.815909 -0.0375,1.466526 0.41967,2.431315 0.6553,3.612977 1.7385,1.486454 5.88956,0.566212 8.86481,0.824115" /><path
       inkscape:connector-curvature="0"
       id="path210"
       style="fill:#ffffff;fill-opacity:1;fill-rule:evenodd;stroke:none"
       d="m 432.04153,51.41093 c -0.35989,-2.652877 -1.11484,-4.90366 -1.47473,-7.545987 0.81943,-0.383336 2.34808,-0.06447 3.44533,-0.169981 0.8757,2.30002 1.17346,5.17563 1.80415,7.715968 l 2.46414,0 c -0.26025,-1.433702 -0.50642,-2.670461 -0.82177,-4.104164 -0.25321,-1.165249 -0.26142,-3.016284 -0.81943,-3.945905 -1.17462,-1.936611 -6.28812,-0.946032 -8.53421,-0.490014 -0.15709,2.855681 1.11484,5.653922 1.47472,8.540083 l 2.4618,0 z" /><path
       inkscape:connector-curvature="0"
       id="path214"
       style="fill:#ffffff;fill-opacity:1;fill-rule:evenodd;stroke:none"
       d="m 451.9074,50.752106 c -0.24267,-3.092482 -1.06327,-5.609374 -1.64355,-8.373617 l -2.46296,0 c 0.56621,2.496962 1.07263,5.057228 1.64237,7.556536 -0.4443,0.320034 -1.43371,0.09613 -2.13005,0.160603 -1.16876,-2.063219 -1.23676,-5.220177 -1.97412,-7.717139 l -2.46179,0 c 0.5076,2.561437 1.00581,5.125221 1.63885,7.556536 -0.48885,0.325894 -1.54742,0.09027 -2.29885,0.160603 -0.89563,-2.273057 -1.2098,-5.133428 -1.80531,-7.717139 l -2.46063,0 c 0.21571,1.446597 0.49705,2.791205 0.82178,4.270626 0.42436,1.938957 0.36809,4.347999 2.46179,4.761815 1.47004,0.28252 3.72903,0 5.74652,0 1.91786,0 4.0268,0.30831 4.92595,-0.658824" /><path
       inkscape:connector-curvature="0"
       id="path218"
       style="fill:#ffffff;fill-opacity:1;fill-rule:evenodd;stroke:none"
       d="m 456.17416,51.41093 c -0.46892,-3.142891 -1.27662,-5.950509 -1.8018,-9.032441 l -2.46532,0 c 0.46071,3.152269 1.29303,5.930579 1.80531,9.032441 l 2.46181,0 z" /><path
       inkscape:connector-curvature="0"
       id="path222"
       style="fill:#ffffff;fill-opacity:1;fill-rule:evenodd;stroke:none"
       d="m 466.02285,50.919861 c 0.11137,-2.812309 -1.17111,-5.597653 -1.47472,-8.541256 l -2.46181,0 c 0.32004,2.688045 1.08789,4.927106 1.47474,7.556538 -0.76784,0.379819 -2.24258,0.05627 -3.28239,0.160602 -1.21566,-2.013983 -1.28365,-5.177974 -1.96709,-7.71714 l -2.46649,0 c 0.20281,1.384466 0.49353,2.780656 0.82177,4.270628 0.2579,1.18635 0.29307,3.297632 0.98589,4.102991 1.32703,1.546241 6.25764,0.57559 8.3701,0.167637" /><path
       inkscape:connector-curvature="0"
       id="path226"
       style="fill:#ffffff;fill-opacity:1;fill-rule:evenodd;stroke:none"
       d="m 470.45561,51.41093 c -0.46657,-3.142891 -1.27662,-5.950509 -1.80415,-9.032441 l -2.46179,0 c 0.46657,3.152269 1.29538,5.930579 1.79945,9.032441 l 2.46649,0 z" /><path
       inkscape:connector-curvature="0"
       id="path230"
       style="fill:#ffffff;fill-opacity:1;fill-rule:evenodd;stroke:none"
       d="m 480.63525,51.41093 c -0.054,-0.385682 -0.26143,-0.616621 -0.1653,-1.150011 -1.70333,-0.37513 -4.09947,-0.06213 -6.07125,-0.165291 -0.67172,-0.36927 -0.41147,-1.670504 -0.82177,-2.294159 1.71271,-0.531043 4.87787,0.392715 5.9083,-0.827631 0.054,-1.532174 -0.42905,-2.521581 -0.65999,-3.770062 -1.7385,-1.489972 -5.88838,-0.56973 -8.86246,-0.825287 0.0551,0.386853 0.25907,0.623653 0.16177,1.151181 1.71036,0.375131 4.10182,0.06096 6.07478,0.165292 0.69164,0.406782 0.43374,1.76077 0.82411,2.462967 -1.6752,0.568557 -4.94117,-0.458363 -5.91182,0.815909 -0.034,1.466526 0.42085,2.431315 0.65882,3.612977 1.74084,1.486454 5.88837,0.566212 8.86481,0.824115" /><path
       inkscape:connector-curvature="0"
       id="path234"
       style="fill:#ffffff;fill-opacity:1;fill-rule:evenodd;stroke:none"
       d="m 497.87262,51.41093 c -0.13951,-0.849906 -0.43493,-1.538036 -0.49236,-2.461796 l -2.46414,0 c -0.0962,0.529872 0.10902,0.764329 0.16411,1.146494 l -2.62239,0 c -0.61076,-2.512203 -1.18635,-5.058402 -1.64823,-7.717139 l -2.46062,0 c 0.12895,1.400877 0.49469,2.751347 0.82177,4.270626 0.27548,1.278962 0.31066,3.314045 0.98471,4.102991 1.44308,1.682226 4.91187,0.0973 7.71715,0.658824" /><path
       inkscape:connector-curvature="0"
       id="path238"
       style="fill:#ffffff;fill-opacity:1;fill-rule:evenodd;stroke:none"
       d="m 500.98878,50.09551 c -0.48533,-2.081974 -1.03044,-4.111196 -1.30944,-6.400665 1.1629,0.0926 2.70797,-0.196943 3.60946,0.169981 0.4865,1.972953 0.90851,4.006863 1.31412,6.070082 -0.9003,0.357546 -2.44538,0.06916 -3.61414,0.160602 m 6.23889,0.491187 c -0.98824,-1.907305 -0.2708,-5.542555 -1.63768,-7.383039 -1.29068,-1.731462 -6.17442,-0.783084 -8.37831,-0.332928 -0.22038,1.260204 0.19577,2.734936 0.49939,4.10299 0.20984,0.99058 0.35755,3.051453 0.98472,3.778269 1.27193,1.485282 6.94578,0.835837 8.53188,-0.165292" /><path
       inkscape:connector-curvature="0"
       id="path242"
       style="fill:#ffffff;fill-opacity:1;fill-rule:evenodd;stroke:none"
       d="m 517.56896,51.41093 c -0.0504,-0.385682 -0.26024,-0.616621 -0.16411,-1.150011 -1.69982,-0.37513 -4.09831,-0.06213 -6.07126,-0.165291 -0.66938,-0.36927 -0.40913,-1.670504 -0.82295,-2.294159 1.71271,-0.531043 4.88022,0.392715 5.91065,-0.827631 0.0598,-1.532174 -0.42788,-2.521581 -0.65882,-3.770062 -1.73849,-1.489972 -5.88837,-0.56973 -8.86011,-0.825287 0.0504,0.386853 0.25907,0.623653 0.16295,1.151181 1.70098,0.375131 4.09712,0.06096 6.07242,0.165292 0.69047,0.406782 0.43023,1.76077 0.82294,2.462967 -1.67753,0.568557 -4.94469,-0.458363 -5.91299,0.815909 -0.0387,1.466526 0.41967,2.431315 0.65999,3.612977 1.73967,1.486454 5.88955,0.566212 8.86129,0.824115" /><path
       inkscape:connector-curvature="0"
       id="path246"
       style="fill:#ffffff;fill-opacity:1;fill-rule:evenodd;stroke:none"
       d="m 529.55743,51.41093 c -0.47008,-3.142891 -1.27544,-5.950509 -1.81001,-9.032441 l -2.45827,0 c 0.45954,3.152269 1.29303,5.930579 1.80414,9.032441 l 2.46414,0 z" /><path
       inkscape:connector-curvature="0"
       id="path250"
       style="fill:#ffffff;fill-opacity:1;fill-rule:evenodd;stroke:none"
       d="m 539.56991,50.919861 c 0.10901,-2.812309 -1.17698,-5.597653 -1.47825,-8.541256 l -2.46063,0 c 0.31769,2.688045 1.09139,4.927106 1.47474,7.556538 -0.76668,0.379819 -2.24024,0.05627 -3.28474,0.160602 -1.21449,-2.013983 -1.28248,-5.177974 -1.96827,-7.71714 l -2.46179,0 c 0.20046,1.384466 0.49118,2.780656 0.81591,4.270628 0.26611,1.18635 0.29307,3.297632 0.98589,4.102991 1.33523,1.546241 6.26116,0.57559 8.37714,0.167637" /><path
       inkscape:connector-curvature="0"
       id="path254"
       style="fill:#ffffff;fill-opacity:1;fill-rule:evenodd;stroke:none"
       d="m 553.52394,51.41093 c -0.36107,-2.652877 -1.1207,-4.90366 -1.4759,-7.545987 0.81825,-0.383336 2.34925,-0.06447 3.44299,-0.169981 0.871,2.30002 1.16994,5.17563 1.80766,7.715968 l 2.46063,0 c -0.25791,-1.433702 -0.49939,-2.670461 -0.81943,-4.104164 -0.25205,-1.165249 -0.25908,-3.016284 -0.8206,-3.945905 -1.17463,-1.936611 -6.28929,-0.946032 -8.53423,-0.490014 -0.15473,2.855681 1.11954,5.653922 1.47592,8.540083 l 2.46296,0 z" /><path
       inkscape:connector-curvature="0"
       id="path258"
       style="fill:#ffffff;fill-opacity:1;fill-rule:evenodd;stroke:none"
       d="m 569.93591,51.41093 c -0.0516,-0.385682 -0.2544,-0.616621 -0.15827,-1.150011 -1.71153,-0.37513 -4.09947,-0.06213 -6.07711,-0.165291 -0.66937,-0.36927 -0.40444,-1.670504 -0.8206,-2.294159 1.71505,-0.531043 4.88256,0.392715 5.91299,-0.827631 0.054,-1.532174 -0.42905,-2.521581 -0.66116,-3.770062 -1.73966,-1.489972 -5.88838,-0.56973 -8.8648,-0.825287 0.0539,0.386853 0.26141,0.623653 0.16411,1.151181 1.7045,0.375131 4.09713,0.06096 6.07595,0.165292 0.68578,0.406782 0.42553,1.76077 0.81825,2.462967 -1.67167,0.568557 -4.94586,-0.458363 -5.90714,0.815909 -0.0387,1.466526 0.41968,2.431315 0.65649,3.612977 1.74201,1.486454 5.89189,0.566212 8.86129,0.824115" /><path
       inkscape:connector-curvature="0"
       id="path262"
       style="fill:#ffffff;fill-opacity:1;fill-rule:evenodd;stroke:none"
       d="m 587.18019,51.41093 c -0.14302,-0.849906 -0.43609,-1.538036 -0.49353,-2.461796 l -2.46532,0 c -0.0938,0.529872 0.11019,0.764329 0.16413,1.146494 l -2.62827,0 c -0.60137,-2.512203 -1.18049,-5.058402 -1.63767,-7.717139 l -2.46297,0 c 0.12778,1.400877 0.49471,2.751347 0.82177,4.270626 0.27198,1.278962 0.30714,3.314045 0.9812,4.102991 1.44308,1.682226 4.91187,0.0973 7.72066,0.658824" /><path
       inkscape:connector-curvature="0"
       id="path266"
       style="fill:#ffffff;fill-opacity:1;fill-rule:evenodd;stroke:none"
       d="m 590.45895,51.41093 c -0.46539,-3.142891 -1.27545,-5.950509 -1.80415,-9.032441 l -2.46179,0 c 0.4654,3.152269 1.29655,5.930579 1.8018,9.032441 l 2.46414,0 z" /><path
       inkscape:connector-curvature="0"
       id="path270"
       style="fill:#ffffff;fill-opacity:1;fill-rule:evenodd;stroke:none"
       d="m 593.74216,47.633013 c -0.42905,-1.063261 -0.89914,-2.904917 -0.81825,-3.937699 l 3.60945,0 c 0.18171,1.405567 0.50995,2.664599 0.82061,3.937699 l -3.61181,0 z m 6.56831,3.119445 c -0.27784,-3.060832 -1.09375,-5.583584 -1.64237,-8.373618 -2.74198,0.271969 -6.65858,-0.633033 -8.37011,0.659995 0.47712,1.977642 0.0609,3.843917 0.98003,5.085365 1.23324,1.659953 4.04907,0.290726 6.40653,0.985889 0.0117,0.259075 -0.0821,0.628344 0.1606,0.658823 -1.28482,0.737367 -3.91659,0.130124 -5.74066,0.327068 0.008,0.536905 0.0797,1.006991 0.32471,1.315301 2.59309,-0.259074 6.30572,0.609587 7.88127,-0.658823" /><path
       inkscape:connector-curvature="0"
       id="path274"
       style="fill:#ffffff;fill-opacity:1;fill-rule:evenodd;stroke:none"
       d="m 608.34998,50.09551 c -0.25087,-0.732677 -0.46071,-1.507555 -0.49001,-2.462966 l 3.61649,0 c 0.18171,0.753778 0.3845,1.477077 0.49118,2.302364 -0.90148,0.357546 -2.4489,0.06916 -3.61766,0.160602 m 6.24593,0.491187 c 0.28252,-4.006863 -2.65522,-4.789949 -6.89772,-4.262421 -0.55215,-0.493532 -0.47477,-1.608372 -0.65648,-2.45945 1.47942,-0.495876 4.10417,0.154742 5.58476,-0.335274 0.0446,-0.380991 -0.0293,-0.629515 -0.16764,-0.81708 -1.92723,-0.555663 -6.17559,-0.606071 -7.88009,0.158258 -0.22272,1.260204 0.19813,2.734936 0.49119,4.10299 0.21571,0.99058 0.35755,3.051453 0.98238,3.778269 1.27544,1.485282 6.95046,0.835837 8.5436,-0.165292" /><path
       inkscape:connector-curvature="0"
       id="path278"
       style="fill:#ffffff;fill-opacity:1;fill-rule:evenodd;stroke:none"
       d="m 624.93134,51.41093 c -0.0528,-0.385682 -0.25556,-0.616621 -0.15944,-1.150011 -1.71153,-0.37513 -4.09947,-0.06213 -6.07476,-0.165291 -0.67172,-0.36927 -0.40796,-1.670504 -0.8206,-2.294159 1.71388,-0.531043 4.88139,0.392715 5.91065,-0.827631 0.0551,-1.532174 -0.43375,-2.521581 -0.66234,-3.770062 -1.73498,-1.489972 -5.89189,-0.56973 -8.86246,-0.825287 0.0562,0.386853 0.25908,0.623653 0.16178,1.151181 1.70918,0.375131 4.10182,0.06096 6.08063,0.165292 0.68226,0.406782 0.42788,1.76077 0.81591,2.462967 -1.6705,0.568557 -4.94001,-0.458363 -5.90714,0.815909 -0.0375,1.466526 0.41968,2.431315 0.65531,3.612977 1.74318,1.486454 5.89306,0.566212 8.86246,0.824115" /><path
       inkscape:connector-curvature="0"
       id="path282"
       style="fill:#ffffff;fill-opacity:1;fill-rule:evenodd;stroke:none"
       d="m 291.40426,42.82548 2.46179,0 c -0.17116,-1.25786 -0.53339,-2.315259 -0.65883,-3.614149 l -2.13004,0 c -0.33644,1.260205 1.47708,0.37513 1.31062,1.478249 -0.12309,0.368097 -0.91673,0.05979 -1.31062,0.15943 -0.0317,0.799497 0.21453,1.317647 0.32708,1.97647" /></g></svg>