<?xml version="1.0" encoding="UTF-8" standalone="no"?>
<!-- Created with Inkscape (http://www.inkscape.org/) -->

<svg
   xmlns:dc="http://purl.org/dc/elements/1.1/"
   xmlns:cc="http://creativecommons.org/ns#"
   xmlns:rdf="http://www.w3.org/1999/02/22-rdf-syntax-ns#"
   xmlns:svg="http://www.w3.org/2000/svg"
   xmlns="http://www.w3.org/2000/svg"
   xmlns:sodipodi="http://sodipodi.sourceforge.net/DTD/sodipodi-0.dtd"
   xmlns:inkscape="http://www.inkscape.org/namespaces/inkscape"
   id="svg2"
   version="1.1"
   inkscape:version="0.91 r13725"
   xml:space="preserve"
   width="597.12537"
   height="106.36355"
   viewBox="0 0 597.12537 106.36355"
   sodipodi:docname="logo_white2.svg"><metadata
     id="metadata8"><rdf:RDF><cc:Work
         rdf:about=""><dc:format>image/svg+xml</dc:format><dc:type
           rdf:resource="http://purl.org/dc/dcmitype/StillImage" /><dc:title></dc:title></cc:Work></rdf:RDF></metadata><defs
     id="defs6"><clipPath
       clipPathUnits="userSpaceOnUse"
       id="clipPath16"><path
         d="m 0,155.603 612.283,0 L 612.283,0 0,0 0,155.603 Z"
         id="path18"
         inkscape:connector-curvature="0" /></clipPath></defs><sodipodi:namedview
     pagecolor="#ff0000"
     bordercolor="#666666"
     borderopacity="1"
     objecttolerance="10"
     gridtolerance="10"
     guidetolerance="10"
     inkscape:pageopacity="0"
     inkscape:pageshadow="2"
     inkscape:window-width="1920"
     inkscape:window-height="1030"
     id="namedview4"
     showgrid="false"
     fit-margin-top="0"
     fit-margin-left="0"
     fit-margin-right="0"
     fit-margin-bottom="0"
     inkscape:zoom="1.4142136"
     inkscape:cx="336.9649"
     inkscape:cy="-6.7423605"
     inkscape:window-x="0"
     inkscape:window-y="0"
     inkscape:window-maximized="1"
     inkscape:current-layer="g10" /><g
     id="g10"
     inkscape:groupmode="layer"
     inkscape:label="Mantproca, C.A. 00 (Logo)"
     transform="matrix(1.25,0,0,-1.25,-84.114336,158.95268)"><path
       inkscape:connector-curvature="0"
       id="path22"
       style="fill:#ffffff;fill-opacity:1;fill-rule:nonzero;stroke:none"
       d="m 328.7529,65.7441 -170.525,0 c -2.733,0 -5.011,0.974 -6.419,2.745 -1.282,1.606 -1.101,3.146 -0.577,5.419 l 6.042,29.452 c 1.213,5.276 6.882,9.568 12.636,9.568 l 141.333,0 0.698,3.585 -142.031,0 c -7.33,0 -14.564,-5.539 -16.132,-12.349 l -6.042,-29.451 c -0.772,-3.36 -0.708,-5.979 1.266,-8.459 2.073,-2.605 5.435,-4.097 9.226,-4.097 l 169.83,0 0.695,3.587 z" /><path
       inkscape:connector-curvature="0"
       id="path26"
       style="fill:#ffffff;fill-opacity:1;fill-rule:nonzero;stroke:none"
       d="m 542.8154,112.417 c -2.075,2.604 -5.436,4.097 -9.226,4.097 l -202.148,0 -0.696,-3.587 202.844,0 c 2.731,0 5.009,-0.973 6.417,-2.744 1.283,-1.608 1.697,-3.745 1.165,-6.062 l -6.725,-32.905 c -0.903,-3.938 -4.42,-5.472 -12.539,-5.472 l -173.654,0 -0.697,-3.587 174.351,0 c 4.588,0 14.137,0 16.046,8.298 l 6.723,32.905 c 0.774,3.36 0.112,6.577 -1.861,9.057" /><path
       inkscape:connector-curvature="0"
       id="path30"
       style="fill:#ffffff;fill-opacity:1;fill-rule:nonzero;stroke:none"
       d="m 200.5361,70.2148 6.661,31.459 c 0.107,0.508 -0.122,0.762 -0.682,0.762 l -8.628,0 c -0.535,0 -0.856,-0.254 -0.962,-0.762 l -6.66,-31.459 -10.274,0 6.661,31.459 c 0.108,0.508 -0.119,0.762 -0.682,0.762 l -8.626,0 c -0.537,0 -0.857,-0.254 -0.963,-0.762 l -6.661,-31.459 -10.275,0 6.822,32.221 c 0.321,1.578 1.551,2.915 3.693,4.012 1.952,0.937 3.944,1.406 5.977,1.406 l 34.27,0 c 1.044,0.025 2.053,-0.088 3.029,-0.34 0.976,-0.255 1.82,-0.623 2.528,-1.104 0.71,-0.482 1.245,-1.065 1.605,-1.746 0.362,-0.683 0.447,-1.425 0.26,-2.228 l -6.821,-32.221 -10.272,0 z" /><path
       inkscape:connector-curvature="0"
       id="path34"
       style="fill:#ffffff;fill-opacity:1;fill-rule:nonzero;stroke:none"
       d="m 247.123,92.165 -14.605,0 c -0.562,0 -0.896,-0.255 -1.004,-0.763 l -3.209,-15.008 c -0.135,-0.455 0.091,-0.682 0.681,-0.682 l 14.606,0 3.531,16.453 z m -21.828,-21.95 c -2.168,0 -3.988,0.494 -5.459,1.486 -1.63,1.041 -2.285,2.379 -1.966,4.011 l 3.532,16.453 c 0.373,1.604 1.577,2.943 3.612,4.011 2.005,0.936 4.039,1.406 6.099,1.406 l 17.173,0 0.843,4.092 c 0.107,0.508 -0.12,0.762 -0.682,0.762 l -23.152,0 1.123,5.417 25.721,0 c 0.989,0 1.978,-0.126 2.968,-0.38 0.992,-0.256 1.848,-0.616 2.571,-1.085 0.72,-0.468 1.269,-1.037 1.644,-1.704 0.373,-0.67 0.456,-1.419 0.241,-2.248 l -6.824,-32.221 -27.444,0 z" /><path
       inkscape:connector-curvature="0"
       id="path38"
       style="fill:#ffffff;fill-opacity:1;fill-rule:nonzero;stroke:none"
       d="m 284.6826,70.2148 6.66,31.459 c 0.108,0.508 -0.12,0.762 -0.681,0.762 l -13.803,0 c -0.537,0 -0.859,-0.254 -0.964,-0.762 l -6.662,-31.459 -10.274,0 6.824,32.221 c 0.319,1.578 1.55,2.915 3.69,4.012 1.953,0.937 3.946,1.406 5.981,1.406 l 18.939,0 c 0.988,0 1.973,-0.127 2.948,-0.381 0.979,-0.256 1.827,-0.615 2.55,-1.085 0.722,-0.468 1.269,-1.037 1.645,-1.704 0.374,-0.67 0.453,-1.419 0.242,-2.248 l -6.823,-32.221 -10.272,0 z" /><path
       inkscape:connector-curvature="0"
       id="path42"
       style="fill:#ffffff;fill-opacity:1;fill-rule:nonzero;stroke:none"
       d="m 330.4883,70.2148 -14.228,0 c -2.165,0 -3.986,0.494 -5.457,1.486 -1.685,1.041 -2.366,2.379 -2.046,4.012 l 5.698,26.723 -8.545,0 1.121,5.418 8.548,0 3.69,17.174 10.275,0 -3.692,-17.174 12.839,0 -1.164,-5.418 -12.8,0 -5.538,-26.042 c -0.133,-0.454 0.121,-0.681 0.764,-0.681 l 11.918,0 -1.383,-5.498 z" /><path
       inkscape:connector-curvature="0"
       id="path46"
       style="fill:#ffffff;fill-opacity:1;fill-rule:nonzero;stroke:none"
       d="m 367.2217,101.6738 c 0.106,0.508 -0.12,0.763 -0.682,0.763 l -14.606,0 -5.697,-26.724 14.647,0 c 0.533,0 0.868,0.227 1.002,0.681 l 5.336,25.28 z m 3.512,-28.229 c -0.656,-0.682 -1.43,-1.263 -2.329,-1.744 -0.896,-0.483 -1.879,-0.852 -2.949,-1.104 -1.069,-0.256 -2.125,-0.382 -3.17,-0.382 l -17.175,0 -2.887,-13.644 -10.273,0 10.834,51.283 27.488,0 c 0.987,0 1.972,-0.128 2.948,-0.381 0.978,-0.256 1.827,-0.615 2.548,-1.085 0.722,-0.468 1.269,-1.037 1.645,-1.704 0.374,-0.67 0.454,-1.419 0.243,-2.247 l -5.658,-26.724 c -0.191,-0.831 -0.61,-1.586 -1.265,-2.268" /><path
       inkscape:connector-curvature="0"
       id="path50"
       style="fill:#ffffff;fill-opacity:1;fill-rule:nonzero;stroke:none"
       d="m 402.5742,97.5806 0.964,4.855 -10.273,0 c -0.536,0 -0.858,-0.254 -0.962,-0.762 l -6.665,-31.459 -10.271,0 6.824,32.221 c 0.319,1.579 1.549,2.916 3.691,4.014 1.951,0.936 3.943,1.404 5.978,1.404 l 23.112,0 -2.126,-10.273 -10.272,0 z" /><path
       inkscape:connector-curvature="0"
       id="path54"
       style="fill:#ffffff;fill-opacity:1;fill-rule:nonzero;stroke:none"
       d="m 443.0215,101.6738 c 0.105,0.508 -0.121,0.763 -0.682,0.763 l -13.804,0 c -0.535,0 -0.856,-0.255 -0.964,-0.763 l -5.336,-25.28 c -0.132,-0.454 0.082,-0.681 0.642,-0.681 l 13.803,0 c 0.535,0 0.87,0.227 1.004,0.681 l 5.337,25.28 z m 3.531,-28.229 c -0.642,-0.682 -1.418,-1.263 -2.327,-1.744 -0.908,-0.483 -1.904,-0.852 -2.99,-1.104 -1.082,-0.256 -2.132,-0.382 -3.151,-0.382 l -18.898,0 c -2.142,0 -3.945,0.494 -5.418,1.486 -1.66,1.041 -2.327,2.379 -2.004,4.012 l 5.695,26.724 c 0.322,1.577 1.554,2.914 3.695,4.013 1.951,0.935 3.944,1.404 5.977,1.404 l 18.902,0 c 0.987,0 1.976,-0.128 2.967,-0.381 0.989,-0.256 1.848,-0.615 2.567,-1.085 0.725,-0.468 1.27,-1.037 1.647,-1.704 0.374,-0.67 0.455,-1.419 0.241,-2.247 l -5.699,-26.724 c -0.161,-0.831 -0.561,-1.586 -1.204,-2.268" /><path
       inkscape:connector-curvature="0"
       id="path58"
       style="fill:#ffffff;fill-opacity:1;fill-rule:nonzero;stroke:none"
       d="m 461.3604,70.2148 c -2.143,0 -3.946,0.494 -5.419,1.486 -1.659,1.041 -2.326,2.379 -2.006,4.012 l 5.698,26.723 c 0.322,1.578 1.552,2.915 3.693,4.012 1.953,0.937 3.944,1.406 5.978,1.406 l 23.113,0 -1.164,-5.418 -20.545,0 c -0.536,0 -0.856,-0.254 -0.963,-0.762 l -5.335,-25.28 c -0.134,-0.454 0.08,-0.681 0.641,-0.681 l 20.544,0 -1.164,-5.498 -23.071,0 z" /><path
       inkscape:connector-curvature="0"
       id="path62"
       style="fill:#ffffff;fill-opacity:1;fill-rule:nonzero;stroke:none"
       d="m 520.2637,92.165 -14.605,0 c -0.561,0 -0.895,-0.255 -1.001,-0.763 l -3.213,-15.008 c -0.133,-0.455 0.094,-0.682 0.683,-0.682 l 14.606,0 3.53,16.453 z m -21.827,-21.95 c -2.166,0 -3.985,0.494 -5.457,1.486 -1.632,1.041 -2.288,2.379 -1.965,4.011 l 3.528,16.453 c 0.377,1.604 1.58,2.943 3.612,4.011 2.008,0.936 4.041,1.406 6.101,1.406 l 17.174,0 0.842,4.092 c 0.107,0.508 -0.12,0.762 -0.682,0.762 l -23.153,0 1.124,5.417 25.722,0 c 0.99,0 1.978,-0.126 2.969,-0.38 0.988,-0.256 1.846,-0.616 2.568,-1.085 0.722,-0.468 1.269,-1.037 1.645,-1.704 0.374,-0.67 0.454,-1.419 0.241,-2.248 l -6.823,-32.221 -27.446,0 z" /><path
       inkscape:connector-curvature="0"
       id="path66"
       style="fill:#ffffff;fill-opacity:1;fill-rule:nonzero;stroke:none"
       d="m 84.6865,71.876 c -4.749,1.897 -8.512,3.02 -8.512,3.02 8.9,11.368 24.906,20.612 24.906,20.612 -5.144,1.935 -15.267,3.946 -15.267,3.946 9.751,10.884 23.159,19.873 31.576,24.949 -7.348,3.036 -15.734,3.706 -23.961,1.31 -19.233,-5.602 -30.283,-25.733 -24.68,-44.968 1.899,-6.519 5.496,-12.068 10.133,-16.378 2.057,4.665 5.805,7.509 5.805,7.509" /><path
       inkscape:connector-curvature="0"
       id="path70"
       style="fill:#ffffff;fill-opacity:1;fill-rule:nonzero;stroke:none"
       d="m 155.2617,125.9873 c 0,0 -12.486,-1.14 -28.254,-7.476 -12.321,-4.951 -27.623,-15.867 -27.623,-15.867 5.291,-1.132 19.818,-7.775 19.818,-7.775 -13.269,-2.912 -32.722,-17.352 -32.722,-17.352 1.814,-0.997 9.287,-5.691 9.287,-5.691 -4.299,-2.029 -8.289,-4.898 -11.831,-7.928 l -0.028,0.008 c -12.676,-10.198 -15.295,-21.835 -15.295,-21.835 5.668,7.234 13.431,13.244 18.303,16.643 7.978,-4.145 17.486,-5.359 26.796,-2.647 19.235,5.6 30.283,25.733 24.682,44.964 -0.914,3.139 -2.237,6.037 -3.862,8.701 1.92,3.195 11.577,11.39 20.729,16.255" /></g></svg>