<?xml version="1.0" encoding="UTF-8" standalone="no"?>

<svg
   xmlns:dc="http://purl.org/dc/elements/1.1/"
   xmlns:cc="http://creativecommons.org/ns#"
   xmlns:rdf="http://www.w3.org/1999/02/22-rdf-syntax-ns#"
   xmlns:svg="http://www.w3.org/2000/svg"
   xmlns="http://www.w3.org/2000/svg"
   xmlns:sodipodi="http://sodipodi.sourceforge.net/DTD/sodipodi-0.dtd"
   xmlns:inkscape="http://www.inkscape.org/namespaces/inkscape"
   id="svg2"
   version="1.1"
   inkscape:version="0.91 r13725"
   xml:space="preserve"
   width="597.12537"
   height="112.1468"
   viewBox="0 0 597.12537 112.1468"
   sodipodi:docname="logo.svg"><metadata
     id="metadata8"><rdf:RDF><cc:Work
         rdf:about=""><dc:format>image/svg+xml</dc:format><dc:type
           rdf:resource="http://purl.org/dc/dcmitype/StillImage" /><dc:title></dc:title></cc:Work></rdf:RDF></metadata><defs
     id="defs6"><clipPath
       clipPathUnits="userSpaceOnUse"
       id="clipPath16"><path
         d="m 0,155.603 612.283,0 L 612.283,0 0,0 0,155.603 Z"
         id="path18"
         inkscape:connector-curvature="0" /></clipPath></defs><sodipodi:namedview
     pagecolor="#ffffff"
     bordercolor="#666666"
     borderopacity="1"
     objecttolerance="10"
     gridtolerance="10"
     guidetolerance="10"
     inkscape:pageopacity="0"
     inkscape:pageshadow="2"
     inkscape:window-width="1920"
     inkscape:window-height="1028"
     id="namedview4"
     showgrid="false"
     fit-margin-top="0"
     fit-margin-left="0"
     fit-margin-right="0"
     fit-margin-bottom="0"
     inkscape:zoom="1.4142136"
     inkscape:cx="398.31526"
     inkscape:cy="0.4550952"
     inkscape:window-x="0"
     inkscape:window-y="0"
     inkscape:window-maximized="1"
     inkscape:current-layer="g10" /><g
     id="g10"
     inkscape:groupmode="layer"
     inkscape:label="Mantproca, C.A. 00 (Logo)"
     transform="matrix(1.25,0,0,-1.25,-84.114336,158.95268)"><path
       inkscape:connector-curvature="0"
       id="path22"
       style="fill:#ed1c24;fill-opacity:1;fill-rule:nonzero;stroke:none"
       d="m 328.7529,65.7441 -170.525,0 c -2.733,0 -5.011,0.974 -6.419,2.745 -1.282,1.606 -1.101,3.146 -0.577,5.419 l 6.042,29.452 c 1.213,5.276 6.882,9.568 12.636,9.568 l 141.333,0 0.698,3.585 -142.031,0 c -7.33,0 -14.564,-5.539 -16.132,-12.349 l -6.042,-29.451 c -0.772,-3.36 -0.708,-5.979 1.266,-8.459 2.073,-2.605 5.435,-4.097 9.226,-4.097 l 169.83,0 0.695,3.587 z" /><path
       inkscape:connector-curvature="0"
       id="path26"
       style="fill:#231f20;fill-opacity:1;fill-rule:nonzero;stroke:none"
       d="m 542.8154,112.417 c -2.075,2.604 -5.436,4.097 -9.226,4.097 l -202.148,0 -0.696,-3.587 202.844,0 c 2.731,0 5.009,-0.973 6.417,-2.744 1.283,-1.608 1.697,-3.745 1.165,-6.062 l -6.725,-32.905 c -0.903,-3.938 -4.42,-5.472 -12.539,-5.472 l -173.654,0 -0.697,-3.587 174.351,0 c 4.588,0 14.137,0 16.046,8.298 l 6.723,32.905 c 0.774,3.36 0.112,6.577 -1.861,9.057" /><path
       inkscape:connector-curvature="0"
       id="path30"
       style="fill:#231f20;fill-opacity:1;fill-rule:nonzero;stroke:none"
       d="m 200.5361,70.2148 6.661,31.459 c 0.107,0.508 -0.122,0.762 -0.682,0.762 l -8.628,0 c -0.535,0 -0.856,-0.254 -0.962,-0.762 l -6.66,-31.459 -10.274,0 6.661,31.459 c 0.108,0.508 -0.119,0.762 -0.682,0.762 l -8.626,0 c -0.537,0 -0.857,-0.254 -0.963,-0.762 l -6.661,-31.459 -10.275,0 6.822,32.221 c 0.321,1.578 1.551,2.915 3.693,4.012 1.952,0.937 3.944,1.406 5.977,1.406 l 34.27,0 c 1.044,0.025 2.053,-0.088 3.029,-0.34 0.976,-0.255 1.82,-0.623 2.528,-1.104 0.71,-0.482 1.245,-1.065 1.605,-1.746 0.362,-0.683 0.447,-1.425 0.26,-2.228 l -6.821,-32.221 -10.272,0 z" /><path
       inkscape:connector-curvature="0"
       id="path34"
       style="fill:#231f20;fill-opacity:1;fill-rule:nonzero;stroke:none"
       d="m 247.123,92.165 -14.605,0 c -0.562,0 -0.896,-0.255 -1.004,-0.763 l -3.209,-15.008 c -0.135,-0.455 0.091,-0.682 0.681,-0.682 l 14.606,0 3.531,16.453 z m -21.828,-21.95 c -2.168,0 -3.988,0.494 -5.459,1.486 -1.63,1.041 -2.285,2.379 -1.966,4.011 l 3.532,16.453 c 0.373,1.604 1.577,2.943 3.612,4.011 2.005,0.936 4.039,1.406 6.099,1.406 l 17.173,0 0.843,4.092 c 0.107,0.508 -0.12,0.762 -0.682,0.762 l -23.152,0 1.123,5.417 25.721,0 c 0.989,0 1.978,-0.126 2.968,-0.38 0.992,-0.256 1.848,-0.616 2.571,-1.085 0.72,-0.468 1.269,-1.037 1.644,-1.704 0.373,-0.67 0.456,-1.419 0.241,-2.248 l -6.824,-32.221 -27.444,0 z" /><path
       inkscape:connector-curvature="0"
       id="path38"
       style="fill:#231f20;fill-opacity:1;fill-rule:nonzero;stroke:none"
       d="m 284.6826,70.2148 6.66,31.459 c 0.108,0.508 -0.12,0.762 -0.681,0.762 l -13.803,0 c -0.537,0 -0.859,-0.254 -0.964,-0.762 l -6.662,-31.459 -10.274,0 6.824,32.221 c 0.319,1.578 1.55,2.915 3.69,4.012 1.953,0.937 3.946,1.406 5.981,1.406 l 18.939,0 c 0.988,0 1.973,-0.127 2.948,-0.381 0.979,-0.256 1.827,-0.615 2.55,-1.085 0.722,-0.468 1.269,-1.037 1.645,-1.704 0.374,-0.67 0.453,-1.419 0.242,-2.248 l -6.823,-32.221 -10.272,0 z" /><path
       inkscape:connector-curvature="0"
       id="path42"
       style="fill:#231f20;fill-opacity:1;fill-rule:nonzero;stroke:none"
       d="m 330.4883,70.2148 -14.228,0 c -2.165,0 -3.986,0.494 -5.457,1.486 -1.685,1.041 -2.366,2.379 -2.046,4.012 l 5.698,26.723 -8.545,0 1.121,5.418 8.548,0 3.69,17.174 10.275,0 -3.692,-17.174 12.839,0 -1.164,-5.418 -12.8,0 -5.538,-26.042 c -0.133,-0.454 0.121,-0.681 0.764,-0.681 l 11.918,0 -1.383,-5.498 z" /><path
       inkscape:connector-curvature="0"
       id="path46"
       style="fill:#ed1c24;fill-opacity:1;fill-rule:nonzero;stroke:none"
       d="m 367.2217,101.6738 c 0.106,0.508 -0.12,0.763 -0.682,0.763 l -14.606,0 -5.697,-26.724 14.647,0 c 0.533,0 0.868,0.227 1.002,0.681 l 5.336,25.28 z m 3.512,-28.229 c -0.656,-0.682 -1.43,-1.263 -2.329,-1.744 -0.896,-0.483 -1.879,-0.852 -2.949,-1.104 -1.069,-0.256 -2.125,-0.382 -3.17,-0.382 l -17.175,0 -2.887,-13.644 -10.273,0 10.834,51.283 27.488,0 c 0.987,0 1.972,-0.128 2.948,-0.381 0.978,-0.256 1.827,-0.615 2.548,-1.085 0.722,-0.468 1.269,-1.037 1.645,-1.704 0.374,-0.67 0.454,-1.419 0.243,-2.247 l -5.658,-26.724 c -0.191,-0.831 -0.61,-1.586 -1.265,-2.268" /><path
       inkscape:connector-curvature="0"
       id="path50"
       style="fill:#ed1c24;fill-opacity:1;fill-rule:nonzero;stroke:none"
       d="m 402.5742,97.5806 0.964,4.855 -10.273,0 c -0.536,0 -0.858,-0.254 -0.962,-0.762 l -6.665,-31.459 -10.271,0 6.824,32.221 c 0.319,1.579 1.549,2.916 3.691,4.014 1.951,0.936 3.943,1.404 5.978,1.404 l 23.112,0 -2.126,-10.273 -10.272,0 z" /><path
       inkscape:connector-curvature="0"
       id="path54"
       style="fill:#ed1c24;fill-opacity:1;fill-rule:nonzero;stroke:none"
       d="m 443.0215,101.6738 c 0.105,0.508 -0.121,0.763 -0.682,0.763 l -13.804,0 c -0.535,0 -0.856,-0.255 -0.964,-0.763 l -5.336,-25.28 c -0.132,-0.454 0.082,-0.681 0.642,-0.681 l 13.803,0 c 0.535,0 0.87,0.227 1.004,0.681 l 5.337,25.28 z m 3.531,-28.229 c -0.642,-0.682 -1.418,-1.263 -2.327,-1.744 -0.908,-0.483 -1.904,-0.852 -2.99,-1.104 -1.082,-0.256 -2.132,-0.382 -3.151,-0.382 l -18.898,0 c -2.142,0 -3.945,0.494 -5.418,1.486 -1.66,1.041 -2.327,2.379 -2.004,4.012 l 5.695,26.724 c 0.322,1.577 1.554,2.914 3.695,4.013 1.951,0.935 3.944,1.404 5.977,1.404 l 18.902,0 c 0.987,0 1.976,-0.128 2.967,-0.381 0.989,-0.256 1.848,-0.615 2.567,-1.085 0.725,-0.468 1.27,-1.037 1.647,-1.704 0.374,-0.67 0.455,-1.419 0.241,-2.247 l -5.699,-26.724 c -0.161,-0.831 -0.561,-1.586 -1.204,-2.268" /><path
       inkscape:connector-curvature="0"
       id="path58"
       style="fill:#ed1c24;fill-opacity:1;fill-rule:nonzero;stroke:none"
       d="m 461.3604,70.2148 c -2.143,0 -3.946,0.494 -5.419,1.486 -1.659,1.041 -2.326,2.379 -2.006,4.012 l 5.698,26.723 c 0.322,1.578 1.552,2.915 3.693,4.012 1.953,0.937 3.944,1.406 5.978,1.406 l 23.113,0 -1.164,-5.418 -20.545,0 c -0.536,0 -0.856,-0.254 -0.963,-0.762 l -5.335,-25.28 c -0.134,-0.454 0.08,-0.681 0.641,-0.681 l 20.544,0 -1.164,-5.498 -23.071,0 z" /><path
       inkscape:connector-curvature="0"
       id="path62"
       style="fill:#ed1c24;fill-opacity:1;fill-rule:nonzero;stroke:none"
       d="m 520.2637,92.165 -14.605,0 c -0.561,0 -0.895,-0.255 -1.001,-0.763 l -3.213,-15.008 c -0.133,-0.455 0.094,-0.682 0.683,-0.682 l 14.606,0 3.53,16.453 z m -21.827,-21.95 c -2.166,0 -3.985,0.494 -5.457,1.486 -1.632,1.041 -2.288,2.379 -1.965,4.011 l 3.528,16.453 c 0.377,1.604 1.58,2.943 3.612,4.011 2.008,0.936 4.041,1.406 6.101,1.406 l 17.174,0 0.842,4.092 c 0.107,0.508 -0.12,0.762 -0.682,0.762 l -23.153,0 1.124,5.417 25.722,0 c 0.99,0 1.978,-0.126 2.969,-0.38 0.988,-0.256 1.846,-0.616 2.568,-1.085 0.722,-0.468 1.269,-1.037 1.645,-1.704 0.374,-0.67 0.454,-1.419 0.241,-2.248 l -6.823,-32.221 -27.446,0 z" /><path
       inkscape:connector-curvature="0"
       id="path66"
       style="fill:#ed1c24;fill-opacity:1;fill-rule:nonzero;stroke:none"
       d="m 84.6865,71.876 c -4.749,1.897 -8.512,3.02 -8.512,3.02 8.9,11.368 24.906,20.612 24.906,20.612 -5.144,1.935 -15.267,3.946 -15.267,3.946 9.751,10.884 23.159,19.873 31.576,24.949 -7.348,3.036 -15.734,3.706 -23.961,1.31 -19.233,-5.602 -30.283,-25.733 -24.68,-44.968 1.899,-6.519 5.496,-12.068 10.133,-16.378 2.057,4.665 5.805,7.509 5.805,7.509" /><path
       inkscape:connector-curvature="0"
       id="path70"
       style="fill:#231f20;fill-opacity:1;fill-rule:nonzero;stroke:none"
       d="m 155.2617,125.9873 c 0,0 -12.486,-1.14 -28.254,-7.476 -12.321,-4.951 -27.623,-15.867 -27.623,-15.867 5.291,-1.132 19.818,-7.775 19.818,-7.775 -13.269,-2.912 -32.722,-17.352 -32.722,-17.352 1.814,-0.997 9.287,-5.691 9.287,-5.691 -4.299,-2.029 -8.289,-4.898 -11.831,-7.928 l -0.028,0.008 c -12.676,-10.198 -15.295,-21.835 -15.295,-21.835 5.668,7.234 13.431,13.244 18.303,16.643 7.978,-4.145 17.486,-5.359 26.796,-2.647 19.235,5.6 30.283,25.733 24.682,44.964 -0.914,3.139 -2.237,6.037 -3.862,8.701 1.92,3.195 11.577,11.39 20.729,16.255" /><path
       inkscape:connector-curvature="0"
       id="path74"
       style="fill:#231f20;fill-opacity:1;fill-rule:evenodd;stroke:none"
       d="m 182.1689,52.1377 2.165,0 c -0.161,-1.281 -0.44,-2.449 -0.724,-3.61 0.634,-0.332 1.879,-0.052 2.747,-0.143 -0.077,-0.407 -0.212,-0.751 -0.29,-1.156 l -2.597,0 c -0.611,-1.654 -0.805,-3.722 -1.301,-5.483 0.61,-0.311 1.76,-0.072 2.601,-0.149 -0.171,-1.629 -3.843,-1.446 -4.765,-0.579 0.108,2.301 0.782,4.032 1.154,6.067 -0.295,0.329 -1.2,0.051 -1.733,0.144 -0.111,0.545 0.176,0.69 0.145,1.156 l 1.735,0 c 0.425,1.111 0.604,2.472 0.863,3.753" /><path
       inkscape:connector-curvature="0"
       id="path78"
       style="fill:#231f20;fill-opacity:1;fill-rule:evenodd;stroke:none"
       d="m 244.2646,52.1377 2.167,0 c -0.164,-1.281 -0.444,-2.449 -0.72,-3.61 0.626,-0.332 1.872,-0.052 2.742,-0.143 -0.081,-0.407 -0.212,-0.751 -0.291,-1.156 l -2.6,0 c -0.609,-1.654 -0.801,-3.722 -1.298,-5.483 0.609,-0.311 1.758,-0.072 2.601,-0.149 -0.172,-1.629 -3.842,-1.446 -4.766,-0.579 0.107,2.301 0.781,4.032 1.156,6.067 -0.298,0.329 -1.202,0.051 -1.736,0.144 -0.11,0.545 0.177,0.69 0.146,1.156 l 1.734,0 c 0.427,1.111 0.605,2.472 0.865,3.753" /><path
       inkscape:connector-curvature="0"
       id="path82"
       style="fill:#231f20;fill-opacity:1;fill-rule:evenodd;stroke:none"
       d="m 321.665,52.1377 2.168,0 c -0.163,-1.281 -0.441,-2.449 -0.721,-3.61 0.624,-0.332 1.874,-0.052 2.742,-0.143 -0.08,-0.407 -0.212,-0.751 -0.29,-1.156 l -2.595,0 c -0.612,-1.654 -0.805,-3.722 -1.304,-5.483 0.607,-0.311 1.76,-0.072 2.603,-0.149 -0.175,-1.629 -3.845,-1.446 -4.768,-0.579 0.109,2.301 0.783,4.032 1.156,6.067 -0.295,0.329 -1.198,0.051 -1.734,0.144 -0.11,0.545 0.176,0.69 0.144,1.156 l 1.733,0 c 0.432,1.111 0.606,2.472 0.866,3.753" /><path
       inkscape:connector-curvature="0"
       id="path86"
       style="fill:#231f20;fill-opacity:1;fill-rule:evenodd;stroke:none"
       d="m 423.1074,52.998 2.1,0 c -0.158,-1.242 -0.424,-2.375 -0.696,-3.501 0.607,-0.321 1.815,-0.05 2.658,-0.139 -0.072,-0.394 -0.204,-0.731 -0.281,-1.122 l -2.52,0 c -0.592,-1.602 -0.78,-3.608 -1.261,-5.315 0.59,-0.302 1.707,-0.072 2.522,-0.145 -0.168,-1.578 -3.725,-1.401 -4.62,-0.56 0.104,2.228 0.759,3.91 1.121,5.884 -0.286,0.318 -1.164,0.047 -1.679,0.136 -0.113,0.531 0.17,0.672 0.136,1.122 l 1.681,0 c 0.416,1.076 0.589,2.398 0.839,3.64" /><path
       inkscape:connector-curvature="0"
       id="path90"
       style="fill:#231f20;fill-opacity:1;fill-rule:evenodd;stroke:none"
       d="m 473.3818,48.2363 c -0.596,-1.593 -0.798,-3.591 -1.258,-5.315 0.807,-0.313 2.178,-0.066 3.22,-0.145 0.244,1.948 0.724,3.664 1.12,5.46 l -3.082,0 z m 6.163,4.762 c -0.75,-3.823 -1.59,-7.56 -2.38,-11.345 -2.329,0.242 -5.693,-0.556 -7.146,0.563 -0.137,0.975 0.318,2.077 0.566,3.222 0.229,1.08 0.185,2.529 0.699,3.217 0.996,1.348 3.156,0.414 5.32,0.703 0.382,1.114 0.539,2.448 0.841,3.64 l 2.1,0 z" /><path
       inkscape:connector-curvature="0"
       id="path94"
       style="fill:#231f20;fill-opacity:1;fill-rule:evenodd;stroke:none"
       d="m 499.2871,52.998 2.105,0 c -0.16,-1.242 -0.431,-2.375 -0.7,-3.501 0.604,-0.321 1.821,-0.05 2.66,-0.139 -0.075,-0.394 -0.211,-0.731 -0.282,-1.122 l -2.519,0 c -0.592,-1.602 -0.781,-3.608 -1.264,-5.315 0.592,-0.302 1.706,-0.072 2.524,-0.145 -0.167,-1.578 -3.728,-1.401 -4.625,-0.56 0.109,2.228 0.762,3.91 1.121,5.884 -0.286,0.318 -1.163,0.047 -1.68,0.136 -0.105,0.531 0.172,0.672 0.14,1.122 l 1.682,0 c 0.418,1.076 0.588,2.398 0.838,3.64" /><path
       inkscape:connector-curvature="0"
       id="path98"
       style="fill:#231f20;fill-opacity:1;fill-rule:evenodd;stroke:none"
       d="m 526.4551,52.998 c -0.793,-3.783 -1.625,-7.519 -2.38,-11.345 l -2.099,0 c 0.701,3.875 1.542,7.607 2.379,11.345 l 2.1,0 z" /><path
       inkscape:connector-curvature="0"
       id="path102"
       style="fill:#231f20;fill-opacity:1;fill-rule:evenodd;stroke:none"
       d="m 205.6299,50.9927 2.101,0 c -0.178,-0.521 -0.22,-1.181 -0.42,-1.68 l -2.104,0 c 0.169,0.535 0.189,1.212 0.423,1.68" /><path
       inkscape:connector-curvature="0"
       id="path106"
       style="fill:#231f20;fill-opacity:1;fill-rule:evenodd;stroke:none"
       d="m 221.4697,50.9927 2.1,0 c -0.178,-0.521 -0.22,-1.181 -0.419,-1.68 l -2.102,0 c 0.167,0.535 0.185,1.212 0.421,1.68" /><path
       inkscape:connector-curvature="0"
       id="path110"
       style="fill:#231f20;fill-opacity:1;fill-rule:evenodd;stroke:none"
       d="m 397.6221,52.2988 2.101,0 c -0.179,-0.521 -0.218,-1.184 -0.42,-1.68 l -2.101,0 c 0.168,0.535 0.187,1.213 0.42,1.68" /><path
       inkscape:connector-curvature="0"
       id="path114"
       style="fill:#231f20;fill-opacity:1;fill-rule:evenodd;stroke:none"
       d="m 409.8047,52.2988 2.103,0 c -0.182,-0.521 -0.222,-1.184 -0.425,-1.68 l -2.098,0 c 0.167,0.535 0.186,1.213 0.42,1.68" /><path
       inkscape:connector-curvature="0"
       id="path118"
       style="fill:#231f20;fill-opacity:1;fill-rule:evenodd;stroke:none"
       d="m 460.2236,52.2988 2.096,0 c -0.18,-0.521 -0.222,-1.184 -0.421,-1.68 l -2.1,0 c 0.168,0.535 0.186,1.213 0.425,1.68" /><path
       inkscape:connector-curvature="0"
       id="path122"
       style="fill:#231f20;fill-opacity:1;fill-rule:evenodd;stroke:none"
       d="m 512.1738,52.2988 2.098,0 c -0.18,-0.521 -0.22,-1.184 -0.417,-1.68 l -2.104,0 c 0.167,0.535 0.189,1.213 0.423,1.68" /><path
       inkscape:connector-curvature="0"
       id="path126"
       style="fill:#231f20;fill-opacity:1;fill-rule:evenodd;stroke:none"
       d="m 160.5078,47.8042 c -0.213,-2.717 -0.937,-4.934 -1.441,-7.364 l -2.169,0 c 0.501,2.195 0.945,4.448 1.446,6.645 -0.391,0.284 -1.265,0.087 -1.877,0.143 -1.028,-1.815 -1.087,-4.593 -1.734,-6.788 l -2.168,0 c 0.451,2.25 0.885,4.506 1.446,6.645 -0.431,0.288 -1.362,0.082 -2.023,0.143 -0.789,-2.001 -1.066,-4.514 -1.588,-6.788 l -2.165,0 c 0.19,1.271 0.436,2.456 0.723,3.757 0.371,1.704 0.323,3.825 2.164,4.187 1.29,0.249 3.277,0 5.053,0 1.688,0 3.545,0.271 4.333,-0.58" /><path
       inkscape:connector-curvature="0"
       id="path130"
       style="fill:#231f20;fill-opacity:1;fill-rule:evenodd;stroke:none"
       d="m 163.6846,45.0615 c -0.379,-0.937 -0.787,-2.555 -0.723,-3.465 l 3.178,0 c 0.157,1.241 0.448,2.346 0.724,3.465 l -3.179,0 z m 5.776,2.743 c -0.245,-2.688 -0.96,-4.909 -1.441,-7.365 -2.412,0.24 -5.856,-0.558 -7.367,0.579 0.424,1.74 0.058,3.383 0.869,4.475 1.078,1.464 3.556,0.256 5.63,0.866 0.011,0.227 -0.071,0.552 0.145,0.578 -1.132,0.65 -3.449,0.117 -5.057,0.291 0.013,0.471 0.077,0.885 0.291,1.156 2.277,-0.229 5.544,0.535 6.93,-0.58" /><path
       inkscape:connector-curvature="0"
       id="path134"
       style="fill:#231f20;fill-opacity:1;fill-rule:evenodd;stroke:none"
       d="m 178.415,47.9526 c 0.098,-2.475 -1.031,-4.927 -1.301,-7.513 l -2.167,0 c 0.286,2.365 0.962,4.334 1.301,6.645 -0.677,0.335 -1.971,0.051 -2.888,0.144 -1.069,-1.775 -1.129,-4.555 -1.732,-6.789 l -2.167,0 c 0.18,1.219 0.435,2.445 0.722,3.758 0.23,1.043 0.257,2.9 0.866,3.607 1.169,1.359 5.508,0.502 7.366,0.148" /><path
       inkscape:connector-curvature="0"
       id="path138"
       style="fill:#231f20;fill-opacity:1;fill-rule:evenodd;stroke:none"
       d="m 189.1016,47.2285 c -0.224,-0.646 -0.407,-1.327 -0.434,-2.167 l 3.178,0 c 0.161,0.66 0.338,1.298 0.434,2.023 -0.792,0.316 -2.154,0.061 -3.178,0.144 m 5.486,0.432 c 0.257,-3.525 -2.332,-4.212 -6.063,-3.753 -0.487,-0.432 -0.418,-1.412 -0.579,-2.161 1.302,-0.438 3.61,0.138 4.911,-0.294 0.044,-0.337 -0.024,-0.554 -0.145,-0.722 -1.697,-0.488 -5.432,-0.53 -6.932,0.14 -0.194,1.112 0.174,2.41 0.434,3.612 0.187,0.872 0.32,2.684 0.865,3.322 1.121,1.308 6.111,0.735 7.509,-0.144" /><path
       inkscape:connector-curvature="0"
       id="path142"
       style="fill:#231f20;fill-opacity:1;fill-rule:evenodd;stroke:none"
       d="m 203.2529,47.9526 c 0.098,-2.475 -1.031,-4.927 -1.3,-7.513 l -2.165,0 c 0.281,2.365 0.958,4.334 1.299,6.645 -0.678,0.335 -1.974,0.051 -2.888,0.144 -1.068,-1.775 -1.129,-4.555 -1.735,-6.789 l -2.164,0 c 0.18,1.219 0.434,2.445 0.723,3.758 0.228,1.043 0.252,2.9 0.866,3.607 1.169,1.359 5.505,0.502 7.364,0.148" /><path
       inkscape:connector-curvature="0"
       id="path146"
       style="fill:#231f20;fill-opacity:1;fill-rule:evenodd;stroke:none"
       d="m 207.1504,48.3843 c -0.411,-2.766 -1.12,-5.234 -1.589,-7.944 l -2.163,0 c 0.408,2.771 1.138,5.217 1.588,7.944 l 2.164,0 z" /><path
       inkscape:connector-curvature="0"
       id="path150"
       style="fill:#231f20;fill-opacity:1;fill-rule:evenodd;stroke:none"
       d="m 219.1377,47.8042 c -0.214,-2.717 -0.937,-4.934 -1.445,-7.364 l -2.165,0 c 0.499,2.195 0.946,4.448 1.442,6.645 -0.391,0.284 -1.261,0.087 -1.874,0.143 -1.024,-1.815 -1.09,-4.593 -1.735,-6.788 l -2.165,0 c 0.445,2.25 0.88,4.506 1.443,6.645 -0.431,0.288 -1.363,0.082 -2.02,0.143 -0.79,-2.001 -1.07,-4.514 -1.59,-6.788 l -2.167,0 c 0.193,1.271 0.439,2.456 0.722,3.757 0.374,1.704 0.326,3.825 2.166,4.187 1.293,0.249 3.28,0 5.055,0 1.687,0 3.543,0.271 4.333,-0.58" /><path
       inkscape:connector-curvature="0"
       id="path154"
       style="fill:#231f20;fill-opacity:1;fill-rule:evenodd;stroke:none"
       d="m 222.8916,48.3843 c -0.412,-2.766 -1.12,-5.234 -1.589,-7.944 l -2.165,0 c 0.408,2.771 1.14,5.217 1.59,7.944 l 2.164,0 z" /><path
       inkscape:connector-curvature="0"
       id="path158"
       style="fill:#231f20;fill-opacity:1;fill-rule:evenodd;stroke:none"
       d="m 226.2129,47.2285 c -0.224,-0.646 -0.406,-1.327 -0.434,-2.167 l 3.178,0 c 0.163,0.66 0.338,1.298 0.433,2.023 -0.791,0.316 -2.149,0.061 -3.177,0.144 m 5.49,0.432 c 0.251,-3.525 -2.336,-4.212 -6.066,-3.753 -0.489,-0.432 -0.419,-1.412 -0.58,-2.161 1.302,-0.438 3.611,0.138 4.913,-0.294 0.047,-0.337 -0.028,-0.554 -0.147,-0.722 -1.698,-0.488 -5.431,-0.53 -6.931,0.14 -0.196,1.112 0.175,2.41 0.432,3.612 0.189,0.872 0.321,2.684 0.868,3.322 1.119,1.308 6.108,0.735 7.511,-0.144" /><path
       inkscape:connector-curvature="0"
       id="path162"
       style="fill:#231f20;fill-opacity:1;fill-rule:evenodd;stroke:none"
       d="m 240.5088,47.9526 c 0.098,-2.475 -1.032,-4.927 -1.298,-7.513 l -2.169,0 c 0.285,2.365 0.962,4.334 1.299,6.645 -0.673,0.335 -1.968,0.051 -2.887,0.144 -1.067,-1.775 -1.128,-4.555 -1.73,-6.789 l -2.167,0 c 0.18,1.219 0.433,2.445 0.72,3.758 0.23,1.043 0.259,2.9 0.871,3.607 1.168,1.359 5.503,0.502 7.361,0.148" /><path
       inkscape:connector-curvature="0"
       id="path166"
       style="fill:#231f20;fill-opacity:1;fill-rule:evenodd;stroke:none"
       d="m 251.1953,47.2285 c -0.431,-1.832 -0.906,-3.617 -1.153,-5.632 1.024,0.083 2.385,-0.171 3.174,0.15 0.431,1.732 0.796,3.527 1.157,5.338 -0.792,0.316 -2.151,0.061 -3.178,0.144 m 5.488,0.432 c -0.87,-1.676 -0.237,-4.877 -1.445,-6.495 -1.135,-1.523 -5.43,-0.69 -7.363,-0.295 -0.195,1.112 0.173,2.41 0.434,3.612 0.189,0.872 0.319,2.684 0.865,3.322 1.119,1.308 6.11,0.735 7.509,-0.144" /><path
       inkscape:connector-curvature="0"
       id="path170"
       style="fill:#231f20;fill-opacity:1;fill-rule:evenodd;stroke:none"
       d="m 270.8359,47.2285 c -0.386,-1.874 -0.91,-3.617 -1.157,-5.632 l 3.177,0 c 0.401,1.865 0.884,3.644 1.156,5.632 l -3.176,0 z m 5.344,0.724 c -0.398,-1.452 -0.16,-6.198 -1.734,-7.222 -1.225,-0.801 -3.002,-0.006 -5.053,-0.291 -0.224,-0.934 -0.497,-1.814 -0.578,-2.886 l -2.314,0 c 0.839,3.546 1.589,7.17 2.314,10.831 2.41,-0.189 5.633,0.433 7.365,-0.432" /><path
       inkscape:connector-curvature="0"
       id="path174"
       style="fill:#231f20;fill-opacity:1;fill-rule:evenodd;stroke:none"
       d="m 284.1201,48.3843 c -0.117,-0.747 -0.382,-1.353 -0.433,-2.164 l -2.164,0 c -0.084,0.465 0.095,0.672 0.142,1.008 l -2.312,0 c -0.532,-2.21 -1.039,-4.45 -1.439,-6.788 l -2.169,0 c 0.114,1.234 0.436,2.417 0.721,3.757 0.24,1.126 0.273,2.914 0.867,3.607 1.271,1.479 4.322,0.086 6.787,0.58" /><path
       inkscape:connector-curvature="0"
       id="path178"
       style="fill:#231f20;fill-opacity:1;fill-rule:evenodd;stroke:none"
       d="m 286.8633,47.2285 c -0.429,-1.832 -0.906,-3.617 -1.155,-5.632 1.026,0.083 2.389,-0.171 3.178,0.15 0.426,1.732 0.799,3.527 1.154,5.338 -0.791,0.316 -2.152,0.061 -3.177,0.144 m 5.489,0.432 c -0.873,-1.676 -0.238,-4.877 -1.447,-6.495 -1.132,-1.523 -5.433,-0.69 -7.361,-0.295 -0.194,1.112 0.171,2.41 0.432,3.612 0.187,0.872 0.317,2.684 0.867,3.322 1.119,1.308 6.113,0.735 7.509,-0.144" /><path
       inkscape:connector-curvature="0"
       id="path182"
       style="fill:#231f20;fill-opacity:1;fill-rule:evenodd;stroke:none"
       d="m 293.6543,48.3843 2.31,0 c -0.539,-2.16 -0.963,-4.433 -1.444,-6.638 0.742,-0.32 2.05,-0.067 3.03,-0.15 0.837,1.956 1.108,4.479 1.585,6.788 l 2.313,0 c -0.343,-1.532 -0.781,-3.116 -1.156,-4.909 -0.331,-1.609 -0.304,-3.958 -1.008,-5.055 -1.207,-1.879 -4.793,-0.374 -7.511,-0.867 0.077,0.406 0.214,0.748 0.29,1.153 l 4.908,0 c 0.528,0.25 0.252,1.295 0.579,1.734 -1.764,0.21 -4.505,-0.558 -5.198,0.725 0.037,2.23 1.065,4.702 1.302,7.219" /><path
       inkscape:connector-curvature="0"
       id="path186"
       style="fill:#231f20;fill-opacity:1;fill-rule:evenodd;stroke:none"
       d="m 304.627,47.2285 c -0.224,-0.646 -0.41,-1.327 -0.433,-2.167 l 3.175,0 c 0.16,0.66 0.336,1.298 0.436,2.023 -0.795,0.316 -2.153,0.061 -3.178,0.144 m 5.486,0.432 c 0.254,-3.525 -2.332,-4.212 -6.063,-3.753 -0.488,-0.432 -0.417,-1.412 -0.58,-2.161 1.302,-0.438 3.613,0.138 4.911,-0.294 0.045,-0.337 -0.024,-0.554 -0.146,-0.722 -1.695,-0.488 -5.432,-0.53 -6.93,0.14 -0.193,1.112 0.175,2.41 0.431,3.612 0.19,0.872 0.32,2.684 0.868,3.322 1.121,1.308 6.109,0.735 7.509,-0.144" /><path
       inkscape:connector-curvature="0"
       id="path190"
       style="fill:#231f20;fill-opacity:1;fill-rule:evenodd;stroke:none"
       d="m 318.3447,48.3843 c -0.075,-0.406 -0.212,-0.751 -0.29,-1.156 l -4.327,0 c -0.727,-1.538 -0.922,-3.607 -1.305,-5.482 1.203,-0.342 3.035,-0.053 4.48,-0.15 -0.199,-0.288 -0.139,-0.825 -0.289,-1.156 -2.102,0.166 -4.923,-0.396 -6.355,0.43 -0.196,1.113 0.167,2.388 0.433,3.613 0.215,1.001 0.333,2.698 0.866,3.321 1.288,1.5 4.323,0.078 6.787,0.58" /><path
       inkscape:connector-curvature="0"
       id="path194"
       style="fill:#231f20;fill-opacity:1;fill-rule:evenodd;stroke:none"
       d="m 328.5957,47.2285 c -0.428,-1.832 -0.907,-3.617 -1.152,-5.632 1.023,0.083 2.382,-0.171 3.176,0.15 0.43,1.732 0.796,3.527 1.154,5.338 -0.789,0.316 -2.148,0.061 -3.178,0.144 m 5.49,0.432 c -0.872,-1.676 -0.238,-4.877 -1.444,-6.495 -1.135,-1.523 -5.431,-0.69 -7.365,-0.295 -0.195,1.112 0.172,2.41 0.432,3.612 0.19,0.872 0.319,2.684 0.868,3.322 1.122,1.308 6.11,0.735 7.509,-0.144" /><path
       inkscape:connector-curvature="0"
       id="path198"
       style="fill:#231f20;fill-opacity:1;fill-rule:evenodd;stroke:none"
       d="m 343.1826,48.3843 c -0.046,-0.338 -0.227,-0.542 -0.146,-1.011 -1.5,-0.33 -3.6,-0.054 -5.34,-0.145 -0.589,-0.327 -0.36,-1.471 -0.724,-2.019 1.507,-0.468 4.295,0.343 5.197,-0.726 0.052,-1.349 -0.375,-2.221 -0.573,-3.318 -1.536,-1.31 -5.185,-0.502 -7.801,-0.725 0.045,0.34 0.23,0.545 0.146,1.012 1.497,0.328 3.606,0.054 5.344,0.144 0.604,0.357 0.374,1.548 0.721,2.166 -1.474,0.503 -4.35,-0.401 -5.198,0.721 -0.035,1.288 0.366,2.136 0.577,3.177 1.53,1.309 5.18,0.495 7.797,0.724" /><path
       inkscape:connector-curvature="0"
       id="path202"
       style="fill:#231f20;fill-opacity:1;fill-rule:evenodd;stroke:none"
       d="m 351.9707,49.3584 2.24,0 c -0.52,-2.096 -0.933,-4.298 -1.401,-6.437 0.723,-0.313 1.992,-0.066 2.94,-0.145 0.811,1.896 1.073,4.341 1.542,6.582 l 2.239,0 c -0.332,-1.486 -0.758,-3.024 -1.118,-4.76 -0.327,-1.561 -0.3,-3.838 -0.981,-4.903 -1.169,-1.821 -4.65,-0.362 -7.285,-0.837 0.077,0.391 0.208,0.721 0.282,1.116 l 4.759,0 c 0.512,0.238 0.245,1.254 0.562,1.679 -1.709,0.205 -4.37,-0.54 -5.042,0.704 0.034,2.162 1.035,4.562 1.263,7.001" /><path
       inkscape:connector-curvature="0"
       id="path206"
       style="fill:#231f20;fill-opacity:1;fill-rule:evenodd;stroke:none"
       d="m 375.2158,49.3584 c -0.046,-0.329 -0.223,-0.526 -0.138,-0.981 -1.46,-0.32 -3.497,-0.053 -5.182,-0.141 -0.572,-0.315 -0.347,-1.425 -0.701,-1.957 1.459,-0.453 4.162,0.335 5.04,-0.706 0.05,-1.307 -0.366,-2.151 -0.559,-3.216 -1.484,-1.271 -5.025,-0.486 -7.564,-0.704 0.044,0.33 0.224,0.532 0.141,0.982 1.455,0.32 3.497,0.052 5.182,0.141 0.589,0.347 0.365,1.502 0.701,2.101 -1.428,0.485 -4.218,-0.391 -5.041,0.696 -0.032,1.251 0.358,2.074 0.559,3.082 1.483,1.268 5.024,0.483 7.562,0.703" /><path
       inkscape:connector-curvature="0"
       id="path210"
       style="fill:#231f20;fill-opacity:1;fill-rule:evenodd;stroke:none"
       d="m 378.4365,49.3584 c -0.307,-2.263 -0.951,-4.183 -1.258,-6.437 0.699,-0.327 2.003,-0.055 2.939,-0.145 0.747,1.962 1.001,4.415 1.539,6.582 l 2.102,0 c -0.222,-1.223 -0.432,-2.278 -0.701,-3.501 -0.216,-0.994 -0.223,-2.573 -0.699,-3.366 -1.002,-1.652 -5.364,-0.807 -7.28,-0.418 -0.134,2.436 0.951,4.823 1.258,7.285 l 2.1,0 z" /><path
       inkscape:connector-curvature="0"
       id="path214"
       style="fill:#231f20;fill-opacity:1;fill-rule:evenodd;stroke:none"
       d="m 395.3828,48.7964 c -0.207,-2.638 -0.907,-4.785 -1.402,-7.143 l -2.101,0 c 0.483,2.13 0.915,4.314 1.401,6.446 -0.379,0.273 -1.223,0.082 -1.817,0.137 -0.997,-1.76 -1.055,-4.453 -1.684,-6.583 l -2.1,0 c 0.433,2.185 0.858,4.372 1.398,6.446 -0.417,0.278 -1.32,0.077 -1.961,0.137 -0.764,-1.939 -1.032,-4.379 -1.54,-6.583 l -2.099,0 c 0.184,1.234 0.424,2.381 0.701,3.643 0.362,1.654 0.314,3.709 2.1,4.062 1.254,0.241 3.181,0 4.902,0 1.636,0 3.435,0.263 4.202,-0.562" /><path
       inkscape:connector-curvature="0"
       id="path218"
       style="fill:#231f20;fill-opacity:1;fill-rule:evenodd;stroke:none"
       d="m 399.0225,49.3584 c -0.4,-2.681 -1.089,-5.076 -1.537,-7.705 l -2.103,0 c 0.393,2.689 1.103,5.059 1.54,7.705 l 2.1,0 z" /><path
       inkscape:connector-curvature="0"
       id="path222"
       style="fill:#231f20;fill-opacity:1;fill-rule:evenodd;stroke:none"
       d="m 407.4238,48.9395 c 0.095,-2.399 -0.999,-4.775 -1.258,-7.286 l -2.1,0 c 0.273,2.293 0.928,4.203 1.258,6.446 -0.655,0.324 -1.913,0.048 -2.8,0.137 -1.037,-1.718 -1.095,-4.417 -1.678,-6.583 l -2.104,0 c 0.173,1.181 0.421,2.372 0.701,3.643 0.22,1.012 0.25,2.813 0.841,3.5 1.132,1.319 5.338,0.491 7.14,0.143" /><path
       inkscape:connector-curvature="0"
       id="path226"
       style="fill:#231f20;fill-opacity:1;fill-rule:evenodd;stroke:none"
       d="m 411.2051,49.3584 c -0.398,-2.681 -1.089,-5.076 -1.539,-7.705 l -2.1,0 c 0.398,2.689 1.105,5.059 1.535,7.705 l 2.104,0 z" /><path
       inkscape:connector-curvature="0"
       id="path230"
       style="fill:#231f20;fill-opacity:1;fill-rule:evenodd;stroke:none"
       d="m 419.8887,49.3584 c -0.046,-0.329 -0.223,-0.526 -0.141,-0.981 -1.453,-0.32 -3.497,-0.053 -5.179,-0.141 -0.573,-0.315 -0.351,-1.425 -0.701,-1.957 1.461,-0.453 4.161,0.335 5.04,-0.706 0.046,-1.307 -0.366,-2.151 -0.563,-3.216 -1.483,-1.271 -5.023,-0.486 -7.56,-0.704 0.047,0.33 0.221,0.532 0.138,0.982 1.459,0.32 3.499,0.052 5.182,0.141 0.59,0.347 0.37,1.502 0.703,2.101 -1.429,0.485 -4.215,-0.391 -5.043,0.696 -0.029,1.251 0.359,2.074 0.562,3.082 1.485,1.268 5.023,0.483 7.562,0.703" /><path
       inkscape:connector-curvature="0"
       id="path234"
       style="fill:#231f20;fill-opacity:1;fill-rule:evenodd;stroke:none"
       d="m 434.5928,49.3584 c -0.119,-0.725 -0.371,-1.312 -0.42,-2.1 l -2.102,0 c -0.082,0.452 0.093,0.652 0.14,0.978 l -2.237,0 c -0.521,-2.143 -1.012,-4.315 -1.406,-6.583 l -2.099,0 c 0.11,1.195 0.422,2.347 0.701,3.643 0.235,1.091 0.265,2.827 0.84,3.5 1.231,1.435 4.19,0.083 6.583,0.562" /><path
       inkscape:connector-curvature="0"
       id="path238"
       style="fill:#231f20;fill-opacity:1;fill-rule:evenodd;stroke:none"
       d="m 437.251,48.2363 c -0.414,-1.776 -0.879,-3.507 -1.117,-5.46 0.992,0.079 2.31,-0.168 3.079,0.145 0.415,1.683 0.775,3.418 1.121,5.178 -0.768,0.305 -2.086,0.059 -3.083,0.137 m 5.322,0.419 c -0.843,-1.627 -0.231,-4.728 -1.397,-6.298 -1.101,-1.477 -5.267,-0.668 -7.147,-0.284 -0.188,1.075 0.167,2.333 0.426,3.5 0.179,0.845 0.305,2.603 0.84,3.223 1.085,1.267 5.925,0.713 7.278,-0.141" /><path
       inkscape:connector-curvature="0"
       id="path242"
       style="fill:#231f20;fill-opacity:1;fill-rule:evenodd;stroke:none"
       d="m 451.3945,49.3584 c -0.043,-0.329 -0.222,-0.526 -0.14,-0.981 -1.45,-0.32 -3.496,-0.053 -5.179,-0.141 -0.571,-0.315 -0.349,-1.425 -0.702,-1.957 1.461,-0.453 4.163,0.335 5.042,-0.706 0.051,-1.307 -0.365,-2.151 -0.562,-3.216 -1.483,-1.271 -5.023,-0.486 -7.558,-0.704 0.043,0.33 0.221,0.532 0.139,0.982 1.451,0.32 3.495,0.052 5.18,0.141 0.589,0.347 0.367,1.502 0.702,2.101 -1.431,0.485 -4.218,-0.391 -5.044,0.696 -0.033,1.251 0.358,2.074 0.563,3.082 1.484,1.268 5.024,0.483 7.559,0.703" /><path
       inkscape:connector-curvature="0"
       id="path246"
       style="fill:#231f20;fill-opacity:1;fill-rule:evenodd;stroke:none"
       d="m 461.6211,49.3584 c -0.401,-2.681 -1.088,-5.076 -1.544,-7.705 l -2.097,0 c 0.392,2.689 1.103,5.059 1.539,7.705 l 2.102,0 z" /><path
       inkscape:connector-curvature="0"
       id="path250"
       style="fill:#231f20;fill-opacity:1;fill-rule:evenodd;stroke:none"
       d="m 470.1621,48.9395 c 0.093,-2.399 -1.004,-4.775 -1.261,-7.286 l -2.099,0 c 0.271,2.293 0.931,4.203 1.258,6.446 -0.654,0.324 -1.911,0.048 -2.802,0.137 -1.036,-1.718 -1.094,-4.417 -1.679,-6.583 l -2.1,0 c 0.171,1.181 0.419,2.372 0.696,3.643 0.227,1.012 0.25,2.813 0.841,3.5 1.139,1.319 5.341,0.491 7.146,0.143" /><path
       inkscape:connector-curvature="0"
       id="path254"
       style="fill:#231f20;fill-opacity:1;fill-rule:evenodd;stroke:none"
       d="m 482.0654,49.3584 c -0.308,-2.263 -0.956,-4.183 -1.259,-6.437 0.698,-0.327 2.004,-0.055 2.937,-0.145 0.743,1.962 0.998,4.415 1.542,6.582 l 2.099,0 c -0.22,-1.223 -0.426,-2.278 -0.699,-3.501 -0.215,-0.994 -0.221,-2.573 -0.7,-3.366 -1.002,-1.652 -5.365,-0.807 -7.28,-0.418 -0.132,2.436 0.955,4.823 1.259,7.285 l 2.101,0 z" /><path
       inkscape:connector-curvature="0"
       id="path258"
       style="fill:#231f20;fill-opacity:1;fill-rule:evenodd;stroke:none"
       d="m 496.0654,49.3584 c -0.044,-0.329 -0.217,-0.526 -0.135,-0.981 -1.46,-0.32 -3.497,-0.053 -5.184,-0.141 -0.571,-0.315 -0.345,-1.425 -0.7,-1.957 1.463,-0.453 4.165,0.335 5.044,-0.706 0.046,-1.307 -0.366,-2.151 -0.564,-3.216 -1.484,-1.271 -5.023,-0.486 -7.562,-0.704 0.046,0.33 0.223,0.532 0.14,0.982 1.454,0.32 3.495,0.052 5.183,0.141 0.585,0.347 0.363,1.502 0.698,2.101 -1.426,0.485 -4.219,-0.391 -5.039,0.696 -0.033,1.251 0.358,2.074 0.56,3.082 1.486,1.268 5.026,0.483 7.559,0.703" /><path
       inkscape:connector-curvature="0"
       id="path262"
       style="fill:#231f20;fill-opacity:1;fill-rule:evenodd;stroke:none"
       d="m 510.7754,49.3584 c -0.122,-0.725 -0.372,-1.312 -0.421,-2.1 l -2.103,0 c -0.08,0.452 0.094,0.652 0.14,0.978 l -2.242,0 c -0.513,-2.143 -1.007,-4.315 -1.397,-6.583 l -2.101,0 c 0.109,1.195 0.422,2.347 0.701,3.643 0.232,1.091 0.262,2.827 0.837,3.5 1.231,1.435 4.19,0.083 6.586,0.562" /><path
       inkscape:connector-curvature="0"
       id="path266"
       style="fill:#231f20;fill-opacity:1;fill-rule:evenodd;stroke:none"
       d="m 513.5723,49.3584 c -0.397,-2.681 -1.088,-5.076 -1.539,-7.705 l -2.1,0 c 0.397,2.689 1.106,5.059 1.537,7.705 l 2.102,0 z" /><path
       inkscape:connector-curvature="0"
       id="path270"
       style="fill:#231f20;fill-opacity:1;fill-rule:evenodd;stroke:none"
       d="m 516.373,46.1357 c -0.366,-0.907 -0.767,-2.478 -0.698,-3.359 l 3.079,0 c 0.155,1.199 0.435,2.273 0.7,3.359 l -3.081,0 z m 5.603,2.661 c -0.237,-2.611 -0.933,-4.763 -1.401,-7.143 -2.339,0.232 -5.68,-0.54 -7.14,0.563 0.407,1.687 0.052,3.279 0.836,4.338 1.052,1.416 3.454,0.248 5.465,0.841 0.01,0.221 -0.07,0.536 0.137,0.562 -1.096,0.629 -3.341,0.111 -4.897,0.279 0.006,0.458 0.068,0.859 0.277,1.122 2.212,-0.221 5.379,0.52 6.723,-0.562" /><path
       inkscape:connector-curvature="0"
       id="path274"
       style="fill:#231f20;fill-opacity:1;fill-rule:evenodd;stroke:none"
       d="m 528.834,48.2363 c -0.214,-0.625 -0.393,-1.286 -0.418,-2.101 l 3.085,0 c 0.155,0.643 0.328,1.26 0.419,1.964 -0.769,0.305 -2.089,0.059 -3.086,0.137 m 5.328,0.419 c 0.241,-3.418 -2.265,-4.086 -5.884,-3.636 -0.471,-0.421 -0.405,-1.372 -0.56,-2.098 1.262,-0.423 3.501,0.132 4.764,-0.286 0.038,-0.325 -0.025,-0.537 -0.143,-0.697 -1.644,-0.474 -5.268,-0.517 -6.722,0.135 -0.19,1.075 0.169,2.333 0.419,3.5 0.184,0.845 0.305,2.603 0.838,3.223 1.088,1.267 5.929,0.713 7.288,-0.141" /><path
       inkscape:connector-curvature="0"
       id="path278"
       style="fill:#231f20;fill-opacity:1;fill-rule:evenodd;stroke:none"
       d="m 542.9785,49.3584 c -0.045,-0.329 -0.218,-0.526 -0.136,-0.981 -1.46,-0.32 -3.497,-0.053 -5.182,-0.141 -0.573,-0.315 -0.348,-1.425 -0.7,-1.957 1.462,-0.453 4.164,0.335 5.042,-0.706 0.047,-1.307 -0.37,-2.151 -0.565,-3.216 -1.48,-1.271 -5.026,-0.486 -7.56,-0.704 0.048,0.33 0.221,0.532 0.138,0.982 1.458,0.32 3.499,0.052 5.187,0.141 0.582,0.347 0.365,1.502 0.696,2.101 -1.425,0.485 -4.214,-0.391 -5.039,0.696 -0.032,1.251 0.358,2.074 0.559,3.082 1.487,1.268 5.027,0.483 7.56,0.703" /><path
       inkscape:connector-curvature="0"
       id="path282"
       style="fill:#231f20;fill-opacity:1;fill-rule:evenodd;stroke:none"
       d="m 258.4678,42.0347 2.1,0 c -0.146,-1.073 -0.455,-1.975 -0.562,-3.083 l -1.817,0 c -0.287,1.075 1.26,0.32 1.118,1.261 -0.105,0.314 -0.782,0.051 -1.118,0.136 -0.027,0.682 0.183,1.124 0.279,1.686" /></g></svg>