<?xml version="1.0" encoding="UTF-8" standalone="no"?>
<svg
   xmlns:dc="http://purl.org/dc/elements/1.1/"
   xmlns:cc="http://creativecommons.org/ns#"
   xmlns:rdf="http://www.w3.org/1999/02/22-rdf-syntax-ns#"
   xmlns:svg="http://www.w3.org/2000/svg"
   xmlns="http://www.w3.org/2000/svg"
   xmlns:sodipodi="http://sodipodi.sourceforge.net/DTD/sodipodi-0.dtd"
   xmlns:inkscape="http://www.inkscape.org/namespaces/inkscape"
   width="13.546666mm"
   height="13.546666mm"
   viewBox="0 0 47.999999 47.999999"
   id="svg4825"
   version="1.1"
   inkscape:version="0.91 r13725"
   sodipodi:docname="phone2.svg">
  <defs
     id="defs4827" />
  <sodipodi:namedview
     id="base"
     pagecolor="#ffffff"
     bordercolor="#666666"
     borderopacity="1.0"
     inkscape:pageopacity="0.0"
     inkscape:pageshadow="2"
     inkscape:zoom="11.527436"
     inkscape:cx="29.191099"
     inkscape:cy="22.83161"
     inkscape:document-units="px"
     inkscape:current-layer="layer1"
     showgrid="false"
     fit-margin-top="0"
     fit-margin-left="0"
     fit-margin-right="0"
     fit-margin-bottom="0"
     inkscape:window-width="1920"
     inkscape:window-height="1030"
     inkscape:window-x="0"
     inkscape:window-y="0"
     inkscape:window-maximized="1" />
  <metadata
     id="metadata4830">
    <rdf:RDF>
      <cc:Work
         rdf:about="">
        <dc:format>image/svg+xml</dc:format>
        <dc:type
           rdf:resource="http://purl.org/dc/dcmitype/StillImage" />
        <dc:title></dc:title>
      </cc:Work>
    </rdf:RDF>
  </metadata>
  <g
     inkscape:label="Capa 1"
     inkscape:groupmode="layer"
     id="layer1"
     transform="translate(-196.85713,-364.64792)">
    <path
       style="opacity:1;fill:#ffffff;fill-opacity:1;stroke:#ed1c24;stroke-width:3.19830656;stroke-linecap:round;stroke-linejoin:round;stroke-miterlimit:4;stroke-dasharray:none;stroke-dashoffset:0;stroke-opacity:1"
       d="m 241.79842,388.64792 a 20.941292,20.941292 0 0 1 -20.94129,20.94129 20.941292,20.941292 0 0 1 -20.94129,-20.94129 20.941292,20.941292 0 0 1 20.94129,-20.94129 20.941292,20.941292 0 0 1 20.94129,20.94129 z"
       id="path4833" />
    <g
       style="font-style:normal;font-weight:normal;font-size:21.62670898px;line-height:100%;font-family:sans-serif;text-align:end;letter-spacing:0px;word-spacing:0px;text-anchor:end;fill:#ed1c24;fill-opacity:1;stroke:none;stroke-width:1px;stroke-linecap:butt;stroke-linejoin:miter;stroke-opacity:1"
       id="text4141">
      <path
         d="m 232.84752,391.37315 0,2.14104 -8.26141,0 0,-2.14104 3.071,0 0,-7.54772 q -0.19464,0.25952 -0.60555,0.54066 -0.41091,0.28115 -0.90832,0.51904 -0.49742,0.2379 -1.03808,0.41091 -0.54067,0.15139 -0.95158,0.15139 l 0,-2.22755 q 0.43253,0 0.99483,-0.25952 0.58392,-0.25952 1.10296,-0.60555 0.54067,-0.34603 0.92995,-0.69206 0.41091,-0.34602 0.47579,-0.49741 l 2.44382,0 0,10.20781 2.74659,0 z"
         style="font-style:normal;font-variant:normal;font-weight:600;font-stretch:normal;font-family:Raleway;-inkscape-font-specification:'Raleway Semi-Bold';fill:#ed1c24;fill-opacity:1"
         id="path4146" />
    </g>
    <path
       inkscape:connector-curvature="0"
       id="path4844"
       style="font-style:normal;font-variant:normal;font-weight:bold;font-stretch:normal;font-size:medium;line-height:125%;font-family:Raleway;-inkscape-font-specification:'Raleway Bold';letter-spacing:0px;word-spacing:0px;fill:#ed1c24;fill-opacity:1;stroke:none;stroke-width:1px;stroke-linecap:butt;stroke-linejoin:miter;stroke-opacity:1"
       d="m 210.87114,386.25928 0,-1.98516 -2.10813,0 0,1.98516 -1.82706,0 0,1.89733 1.82706,0 0,1.98516 2.10813,0 0,-1.98516 1.80949,0 0,-1.89733 -1.80949,0 z" />
    <path
       inkscape:connector-curvature="0"
       id="path4846"
       style="font-style:normal;font-variant:normal;font-weight:bold;font-stretch:normal;font-size:medium;line-height:125%;font-family:Raleway;-inkscape-font-specification:'Raleway Bold';letter-spacing:0px;word-spacing:0px;fill:#ed1c24;fill-opacity:1;stroke:none;stroke-width:1px;stroke-linecap:butt;stroke-linejoin:miter;stroke-opacity:1"
       d="m 218.61553,387.84039 c -0.79055,0 -1.33515,0.21081 -1.61624,0.50946 l 0.4919,-2.79328 4.44466,0 0,-2.14327 -6.14874,0 c 0,0 -1.38785,7.1501 -1.44056,7.43118 l 2.05544,0 c 0.40406,-0.61487 1.10677,-0.9838 1.87975,-0.9838 1.15948,0 2.0203,0.82569 2.0203,2.03787 0,1.24732 -0.89596,2.09057 -2.16084,2.09057 -1.05407,0 -2.09057,-0.57974 -2.75815,-1.49326 l -1.35272,1.40542 c 0.75542,1.33516 2.28382,2.16084 4.0933,2.16084 2.63518,0 4.60277,-1.70407 4.60277,-4.21627 0,-2.37166 -1.75678,-4.00546 -4.11087,-4.00546 z" />
  </g>
</svg>
