<?xml version="1.0" encoding="UTF-8" standalone="no"?>

<svg
   xmlns:dc="http://purl.org/dc/elements/1.1/"
   xmlns:cc="http://creativecommons.org/ns#"
   xmlns:rdf="http://www.w3.org/1999/02/22-rdf-syntax-ns#"
   xmlns:svg="http://www.w3.org/2000/svg"
   xmlns="http://www.w3.org/2000/svg"
   xmlns:sodipodi="http://sodipodi.sourceforge.net/DTD/sodipodi-0.dtd"
   xmlns:inkscape="http://www.inkscape.org/namespaces/inkscape"
   width="13.546666mm"
   height="13.546666mm"
   viewBox="0 0 47.999999 47.999999"
   id="svg4825"
   version="1.1"
   inkscape:version="0.91 r13725"
   sodipodi:docname="phone.svg">
  <defs
     id="defs4827" />
  <sodipodi:namedview
     id="base"
     pagecolor="#ffffff"
     bordercolor="#666666"
     borderopacity="1.0"
     inkscape:pageopacity="0.0"
     inkscape:pageshadow="2"
     inkscape:zoom="4.7959825"
     inkscape:cx="7.1682079"
     inkscape:cy="29.150743"
     inkscape:document-units="px"
     inkscape:current-layer="layer1"
     showgrid="false"
     fit-margin-top="0"
     fit-margin-left="0"
     fit-margin-right="0"
     fit-margin-bottom="0"
     inkscape:window-width="1920"
     inkscape:window-height="1028"
     inkscape:window-x="0"
     inkscape:window-y="0"
     inkscape:window-maximized="1" />
  <metadata
     id="metadata4830">
    <rdf:RDF>
      <cc:Work
         rdf:about="">
        <dc:format>image/svg+xml</dc:format>
        <dc:type
           rdf:resource="http://purl.org/dc/dcmitype/StillImage" />
        <dc:title></dc:title>
      </cc:Work>
    </rdf:RDF>
  </metadata>
  <g
     inkscape:label="Capa 1"
     inkscape:groupmode="layer"
     id="layer1"
     transform="translate(-196.85713,-364.64792)">
    <path
       style="opacity:1;fill:#ffffff;fill-opacity:1;stroke:#ed1c24;stroke-width:3.19830656;stroke-linecap:round;stroke-linejoin:round;stroke-miterlimit:4;stroke-dasharray:none;stroke-dashoffset:0;stroke-opacity:1"
       d="m 241.79842,388.64792 a 20.941292,20.941292 0 0 1 -20.94129,20.94129 20.941292,20.941292 0 0 1 -20.94129,-20.94129 20.941292,20.941292 0 0 1 20.94129,-20.94129 20.941292,20.941292 0 0 1 20.94129,20.94129 z"
       id="path4833" />
    <g
       style="font-style:normal;font-weight:normal;font-size:17.56781769px;line-height:125%;font-family:sans-serif;letter-spacing:0px;word-spacing:0px;fill:#000000;fill-opacity:1;stroke:none;stroke-width:1px;stroke-linecap:butt;stroke-linejoin:miter;stroke-opacity:1"
       id="text4839">
      <path
         d="m 210.87114,386.25928 0,-1.98516 -2.10813,0 0,1.98516 -1.82706,0 0,1.89733 1.82706,0 0,1.98516 2.10813,0 0,-1.98516 1.80949,0 0,-1.89733 -1.80949,0 z"
         style="font-style:normal;font-variant:normal;font-weight:bold;font-stretch:normal;font-family:Raleway;-inkscape-font-specification:'Raleway Bold';fill:#ed1c24;fill-opacity:1"
         id="path4844" />
      <path
         d="m 218.61553,387.84039 c -0.79055,0 -1.33515,0.21081 -1.61624,0.50946 l 0.4919,-2.79328 4.44466,0 0,-2.14327 -6.14874,0 c 0,0 -1.38785,7.1501 -1.44056,7.43118 l 2.05544,0 c 0.40406,-0.61487 1.10677,-0.9838 1.87975,-0.9838 1.15948,0 2.0203,0.82569 2.0203,2.03787 0,1.24732 -0.89596,2.09057 -2.16084,2.09057 -1.05407,0 -2.09057,-0.57974 -2.75815,-1.49326 l -1.35272,1.40542 c 0.75542,1.33516 2.28382,2.16084 4.0933,2.16084 2.63518,0 4.60277,-1.70407 4.60277,-4.21627 0,-2.37166 -1.75678,-4.00546 -4.11087,-4.00546 z"
         style="font-style:normal;font-variant:normal;font-weight:bold;font-stretch:normal;font-family:Raleway;-inkscape-font-specification:'Raleway Bold';fill:#ed1c24;fill-opacity:1"
         id="path4846" />
      <path
         d="m 233.12106,389.75528 c 0,-1.44056 -0.96623,-2.47706 -1.9676,-2.98653 0.87839,-0.40406 1.59867,-1.35272 1.59867,-2.35409 0,-2.24868 -2.24868,-3.44329 -4.16357,-3.44329 -1.89732,0 -4.146,1.22975 -4.146,3.46086 0,1.00136 0.70271,1.91489 1.5811,2.33652 -0.93109,0.47433 -1.96759,1.49326 -1.96759,2.89869 0,2.30138 2.03786,3.93519 4.51492,3.93519 2.47707,0 4.55007,-1.5284 4.55007,-3.84735 z m -2.38922,-0.14055 c 0,1.07164 -1.01894,1.86219 -2.12571,1.86219 -1.0892,0 -2.16084,-0.73784 -2.16084,-1.86219 0,-1.12434 1.01893,-1.86218 2.14327,-1.86218 1.07164,0 2.14328,0.68514 2.14328,1.86218 z m -3.90006,-5.11223 c 0,-0.86082 0.80812,-1.44056 1.75678,-1.44056 0.94866,0 1.77435,0.56217 1.77435,1.42299 0,0.96623 -0.94866,1.49327 -1.77435,1.49327 -0.82569,0 -1.75678,-0.50947 -1.75678,-1.4757 z"
         style="font-style:normal;font-variant:normal;font-weight:bold;font-stretch:normal;font-family:Raleway;-inkscape-font-specification:'Raleway Bold';fill:#ed1c24;fill-opacity:1"
         id="path4848" />
    </g>
  </g>
</svg>
